<svg width="448" height="32" viewBox="0 0 448 32" fill="none" xmlns="http://www.w3.org/2000/svg">
<path d="M420.976 16.6331C420.363 16.6594 419.743 16.6775 419.141 16.717C418.751 16.7417 418.584 16.6693 418.323 16.6314C418.236 16.6183 418.143 16.5919 418.063 16.5952C417.455 16.6216 416.848 16.6512 416.24 16.6808C416.054 16.745 415.937 16.8306 415.652 16.8619C415.373 16.8915 415.044 16.8915 414.734 16.9063C414.325 16.9244 413.916 16.9426 413.507 16.959C413.302 16.9673 413.135 16.9985 413.067 17.0578C413.054 17.0677 413.191 17.0923 413.265 17.1072C413.513 17.1565 413.755 17.2125 414.027 17.2504C414.288 17.2866 414.61 17.2273 414.889 17.2734C415.515 17.3771 415.521 17.3755 415.999 17.3557C416.408 17.3376 416.817 17.3179 417.226 17.3047C417.307 17.3014 417.4 17.3261 417.486 17.3393C417.747 17.3755 417.914 17.4578 418.298 17.4265C418.59 17.4018 418.912 17.3969 419.216 17.3837C419.47 17.4315 419.706 17.4858 419.978 17.5236C420.232 17.5599 420.307 17.5878 420.171 17.6356C420.047 17.68 419.873 17.6981 419.644 17.7014C419.439 17.7031 419.234 17.7179 419.03 17.7261C418.924 17.7311 418.825 17.7344 418.726 17.7393C418.336 17.7574 418.336 17.7574 417.623 17.652C417.344 17.6109 417.028 17.6685 416.761 17.629C416.581 17.6027 416.426 17.5632 416.253 17.5352C416.178 17.5237 416.061 17.522 415.968 17.5253C415.658 17.5368 415.348 17.545 415.05 17.5664C414.84 17.5813 414.716 17.6274 414.74 17.6734C414.747 17.6916 414.895 17.7179 414.982 17.7195C415.18 17.7228 415.391 17.6998 415.583 17.7113C415.769 17.7228 415.961 17.7557 416.098 17.792C416.377 17.8677 416.693 17.8002 416.959 17.82C417.238 17.8414 417.468 17.9072 417.734 17.9467C417.802 17.9566 417.933 17.9401 418.038 17.9352C418.342 17.9237 418.646 17.9138 418.949 17.9023C419.204 17.95 419.476 17.9928 419.706 18.0471C420.121 18.1459 420.567 18.1837 421.107 18.136C421.41 18.1097 421.708 18.1195 421.949 18.1837C422.197 18.2496 422.483 18.243 422.799 18.2298C423.09 18.2167 423.388 18.1805 423.685 18.2265C424.33 18.3286 424.336 18.3335 425.099 18.294C425.328 18.2825 425.501 18.2792 425.675 18.3171C425.836 18.3517 426.01 18.3813 426.177 18.4142C426.481 18.4027 426.791 18.3912 427.095 18.378C427.485 18.3599 427.702 18.3829 427.795 18.4751C427.851 18.5311 427.876 18.5821 428.012 18.62C428.173 18.6661 428.347 18.6644 428.582 18.6512C428.805 18.6397 428.967 18.6216 429.06 18.5624C429.097 18.5377 429.171 18.5146 429.239 18.4949C429.295 18.48 429.382 18.457 429.432 18.4603C429.525 18.4669 429.648 18.485 429.679 18.5064C429.983 18.7056 429.983 18.7072 430.293 18.7648C430.634 18.829 430.987 18.8866 431.297 18.9591C431.576 19.0233 431.855 18.9953 432.159 18.9953C432.388 18.9953 432.537 19.0381 432.519 19.0809C432.506 19.1056 432.419 19.1418 432.345 19.1451C431.737 19.178 431.124 19.206 430.51 19.229C430.436 19.2323 430.343 19.2027 430.256 19.1879C430.082 19.1582 429.927 19.1122 429.741 19.1023C429.556 19.0924 429.339 19.1171 429.134 19.1253C428.929 19.1336 428.713 19.155 428.527 19.1418C428.341 19.1286 428.192 19.0809 428.018 19.0496C427.938 19.0348 427.826 19.0134 427.758 19.0183C427.305 19.0578 426.971 19.0035 426.648 18.9311C426.58 18.9163 426.462 18.9064 426.376 18.9097C425.656 18.9377 424.944 18.9706 424.225 19.0019C423.933 19.015 423.698 18.9574 423.636 18.8603C423.605 18.806 423.543 18.7517 423.543 18.6973C423.543 18.5986 423.202 18.5442 422.954 18.5558C422.545 18.5722 422.129 18.5854 421.726 18.6101C421.398 18.6298 421.119 18.6101 420.896 18.5508C420.635 18.4833 420.338 18.4965 420.04 18.5146C419.817 18.5278 419.755 18.5821 419.767 18.7187C419.78 18.829 419.674 18.8636 419.272 18.8817C418.763 18.9047 418.249 18.9278 417.734 18.9459C417.654 18.9492 417.561 18.9212 417.48 18.9064C417.307 18.8768 417.152 18.829 416.966 18.8191C416.78 18.8076 416.563 18.8323 416.358 18.8422C416.154 18.8504 415.937 18.8735 415.751 18.8619C415.565 18.8504 415.41 18.8011 415.242 18.7698C415.162 18.755 415.063 18.7335 414.982 18.7368C414.573 18.75 414.164 18.7698 413.755 18.7879C413.296 18.8076 413.296 18.8076 412.645 18.7056C412.347 18.6595 412.05 18.6957 411.759 18.7089C411.449 18.722 411.157 18.7286 410.916 18.6628C410.754 18.62 410.575 18.5936 410.383 18.6019C409.868 18.6216 409.36 18.6463 408.845 18.6661C408.758 18.6694 408.641 18.6611 408.572 18.6463C408.244 18.5772 407.922 18.5228 407.463 18.5574C407.066 18.587 406.638 18.5887 406.242 18.6167C406.025 18.6315 405.925 18.6842 405.969 18.7253C405.994 18.7467 406.124 18.7714 406.211 18.7714C406.409 18.7731 406.626 18.7484 406.812 18.7582C407.196 18.778 407.388 18.9163 407.891 18.8784C408.188 18.8554 408.498 18.8471 408.808 18.8405C408.889 18.8389 408.975 18.8702 409.062 18.8866C409.31 18.9311 409.527 18.9887 409.887 18.9591C410.184 18.936 410.5 18.9295 410.804 18.9163C411.288 18.8949 411.288 18.8965 411.914 18.9969C412.211 19.0447 412.509 19.0068 412.8 18.9953C413.017 18.9871 413.221 18.9706 413.395 18.9936C413.662 19.0282 413.854 19.1072 414.182 19.1023C414.492 19.0973 414.796 19.0743 415.106 19.0661C415.298 19.0611 415.478 19.0875 415.633 19.1319C415.794 19.1764 415.968 19.1961 416.178 19.1862C416.482 19.1731 416.792 19.1566 417.102 19.1484C417.189 19.1467 417.288 19.1615 417.369 19.1747C417.542 19.2043 417.709 19.2389 417.877 19.2702C418.181 19.2603 418.491 19.257 418.788 19.2373C419.018 19.2225 419.179 19.229 419.365 19.262C419.6 19.3064 419.792 19.3854 420.177 19.3476C420.369 19.3295 420.592 19.3344 420.784 19.3179C421.02 19.2965 421.181 19.3048 421.348 19.3541C421.664 19.448 422.061 19.4496 422.47 19.4134C422.917 19.3739 423.251 19.42 423.586 19.4924C423.939 19.5682 423.939 19.5665 424.212 19.7492C424.293 19.8019 424.522 19.8266 424.714 19.8167C425.036 19.8003 425.316 19.8085 425.551 19.871C425.799 19.9385 426.096 19.9303 426.4 19.9122C426.803 19.8875 427.206 19.8661 427.535 19.9616C427.696 20.0077 427.87 20.0192 428.086 20.0077C428.7 19.978 429.32 19.9599 429.921 19.9237C430.287 19.9007 430.498 19.9533 430.746 19.9978C431.08 20.0587 431.446 20.113 431.446 20.2431C431.446 20.2645 431.533 20.2891 431.607 20.3056C431.769 20.3402 431.942 20.3698 432.109 20.4027C432.357 20.4521 432.599 20.4933 432.94 20.4669C433.238 20.4455 433.554 20.4389 433.857 20.4241C434.161 20.4093 434.44 20.4011 434.713 20.4636C435.029 20.5344 435.364 20.6019 435.723 20.6546C435.977 20.6924 436.312 20.6283 436.585 20.6793C436.752 20.7106 436.913 20.7468 437.093 20.7731C437.168 20.7846 437.286 20.7764 437.385 20.7731C437.589 20.7665 437.8 20.7616 437.998 20.7451C438.228 20.727 438.401 20.7303 438.575 20.7682C438.736 20.8028 438.897 20.8505 439.083 20.8604C439.362 20.8752 439.672 20.8093 439.951 20.8851C440.094 20.9229 440.273 20.9591 440.459 20.9707C440.645 20.9822 440.862 20.9575 441.061 20.9591C441.147 20.9591 441.253 20.9855 441.302 21.0069C441.333 21.0184 441.29 21.0497 441.247 21.0661C441.191 21.0859 441.11 21.1122 441.03 21.1155C440.416 21.1451 439.802 21.1698 439.189 21.1978C438.823 21.2143 438.823 21.2143 438.085 21.1106C437.912 21.0859 437.719 21.0908 437.502 21.1023C437.211 21.1171 436.914 21.1451 436.61 21.1155C436.213 21.0036 435.723 20.9937 435.203 21.0365C434.986 21.0546 434.787 21.0546 434.626 21.0233C434.285 20.9608 433.926 20.9032 433.622 20.8291C433.386 20.7715 433.275 20.7665 433.176 20.8455C433.145 20.8702 433.114 20.8966 433.12 20.9196C433.157 21.0019 433.225 21.0826 433.262 21.1649C433.275 21.1879 433.225 21.2143 433.194 21.239C433.095 21.3081 432.965 21.3032 432.748 21.2455C432.531 21.1879 432.271 21.1501 431.923 21.1764C431.626 21.1995 431.304 21.1962 431.006 21.2209C430.547 21.2571 430.225 21.2044 429.896 21.1336C429.828 21.1188 429.711 21.1106 429.624 21.1139C428.7 21.1517 427.783 21.1945 426.859 21.2324C426.661 21.2406 426.481 21.2159 426.326 21.1715C426.165 21.127 425.985 21.104 425.787 21.1122C424.968 21.1468 424.15 21.1781 423.332 21.2209C422.997 21.239 422.731 21.2176 422.501 21.1599C422.328 21.1171 422.166 21.104 421.949 21.1089C421.714 21.1139 421.547 21.1303 421.429 21.1781C421.317 21.2242 421.398 21.2521 421.646 21.2883C421.912 21.3279 422.16 21.3789 422.414 21.425C422.619 21.4184 422.824 21.4052 423.022 21.4069C423.109 21.4069 423.189 21.4365 423.276 21.453C423.524 21.5007 423.753 21.5484 424.107 21.5221C424.404 21.4991 424.72 21.4941 425.024 21.4793C425.446 21.4612 425.446 21.4612 426.128 21.5649C426.301 21.5912 426.487 21.5896 426.71 21.5748C426.902 21.5632 427.101 21.5863 427.237 21.6357C427.293 21.6554 427.274 21.6884 427.157 21.797C427.157 21.8777 427.287 21.8415 427.33 21.7888C427.398 21.7131 427.268 21.6884 427.02 21.7295C426.847 21.7591 426.76 21.802 426.803 21.8365C426.828 21.8546 426.946 21.8777 427.157 21.797C427.702 21.6982 428.117 21.6867 428.514 21.6604C428.75 21.6456 428.898 21.6521 429.084 21.6949C429.308 21.746 429.531 21.8003 429.896 21.774C430.293 21.7443 430.715 21.741 431.118 21.7163C431.49 21.6933 431.682 21.7657 431.917 21.8085C432.202 21.8596 432.519 21.8019 432.779 21.8316C433.052 21.8612 433.244 21.9336 433.56 21.9468C434.019 21.9024 434.31 21.9847 434.657 22.039C434.93 22.0801 435.252 22.0439 435.544 22.0258C435.872 22.0061 436.145 22.0242 436.374 22.0834C436.635 22.1509 436.926 22.1361 437.224 22.1213C437.918 22.0884 437.943 22.0834 438.345 22.174C438.637 22.2398 438.916 22.2102 439.207 22.202C439.461 22.2464 439.709 22.2941 439.976 22.3336C440.044 22.3435 440.174 22.3271 440.28 22.3221C440.583 22.309 440.893 22.2958 441.197 22.2826C441.402 22.2744 441.618 22.2497 441.804 22.2596C441.99 22.2711 442.145 22.3188 442.313 22.3501C442.48 22.3814 442.654 22.4127 442.815 22.4456C443.063 22.495 443.298 22.5361 443.645 22.5114C443.943 22.49 444.253 22.4834 444.563 22.4686C444.953 22.4505 444.941 22.4555 445.666 22.5542C446.057 22.6086 446.46 22.5427 446.856 22.5361C447.055 22.5328 447.247 22.5509 447.383 22.5987C447.439 22.6184 447.421 22.6514 447.439 22.6793C446.416 22.7238 445.387 22.7616 444.377 22.816C443.986 22.8374 443.782 22.7781 443.571 22.7287C443.224 22.6497 442.765 22.7649 442.437 22.6629C442.238 22.602 441.953 22.5674 441.612 22.597C441.414 22.6135 441.203 22.6118 440.999 22.6267C440.478 22.6629 440.001 22.6645 439.585 22.5509C439.443 22.5114 439.238 22.49 439.089 22.4522C438.916 22.411 438.748 22.388 438.544 22.3962C437.62 22.4357 436.703 22.4752 435.785 22.518C435.705 22.5213 435.624 22.546 435.556 22.5641C435.382 22.6102 435.438 22.6464 435.717 22.676C435.81 22.6859 435.885 22.7073 435.971 22.7238C436.139 22.755 436.294 22.8044 436.48 22.816C436.666 22.8275 436.883 22.8044 437.087 22.7962C437.292 22.788 437.509 22.7633 437.695 22.7732C437.881 22.7847 438.036 22.8324 438.209 22.8621C438.29 22.8769 438.389 22.9016 438.47 22.8999C438.879 22.89 439.282 22.8719 439.691 22.8571C439.945 22.9016 440.162 22.9658 440.466 22.9806C440.658 22.9905 440.862 22.9723 441.061 22.9756C441.147 22.9773 441.259 23.002 441.302 23.0234C441.327 23.0365 441.247 23.0695 441.185 23.0859C440.949 23.1485 440.627 23.1369 440.335 23.1567C440.019 23.1781 439.734 23.1715 439.492 23.1073C439.331 23.0645 439.151 23.0415 438.953 23.0497C438.438 23.0711 437.93 23.0958 437.416 23.1139C437.329 23.1172 437.223 23.1024 437.143 23.0909C436.492 22.9905 436.492 22.9872 436.033 23.0086C435.358 23.0398 435.358 23.0398 434.905 22.9526C434.818 22.9361 434.725 22.9049 434.651 22.9065C433.932 22.9328 433.219 22.9592 432.506 22.997C432.271 23.0086 432.109 23.0086 431.936 22.9658C431.787 22.9296 431.614 22.8884 431.428 22.8785C431.235 22.8686 431.025 22.8933 430.82 22.9016C430.616 22.9098 430.399 22.9312 430.219 22.918C430.033 22.9049 429.872 22.8588 429.71 22.8258C429.543 22.7913 429.363 22.7929 429.134 22.8061C428.427 22.8439 428.421 22.839 427.721 22.7369C427.64 22.7254 427.535 22.7123 427.448 22.7155C426.933 22.7353 426.425 22.76 425.911 22.7798C425.712 22.788 425.52 22.7666 425.384 22.7188C425.328 22.6991 425.347 22.6662 425.309 22.602C425.266 22.5871 425.315 22.6135 425.328 22.6382C425.421 22.6349 425.533 22.6382 425.601 22.625C425.774 22.5937 425.861 22.5526 425.818 22.518C425.793 22.4999 425.675 22.4768 425.601 22.4768C425.464 22.4768 425.347 22.5131 425.309 22.602C424.919 22.6563 424.503 22.6678 424.1 22.6941C423.865 22.7106 423.716 22.7024 423.53 22.6596C423.307 22.6069 423.078 22.5559 422.712 22.5822C422.315 22.6118 421.894 22.6168 421.485 22.6398C421.013 22.6662 420.809 22.518 420.412 22.5213C420.003 22.5246 419.594 22.5526 419.185 22.5723C418.825 22.5888 418.825 22.5888 418.081 22.4818C417.809 22.4423 417.486 22.4999 417.22 22.4587C417.04 22.4324 416.885 22.3929 416.712 22.3649C416.637 22.3534 416.519 22.3534 416.426 22.3567C415.912 22.3764 415.391 22.3896 414.895 22.4258C414.331 22.4686 413.903 22.4225 413.501 22.3254C412.992 22.3435 412.478 22.3534 411.976 22.3847C411.61 22.4077 411.399 22.3534 411.151 22.309C411.064 22.2941 410.99 22.2694 410.897 22.2629C410.804 22.2563 410.692 22.2694 410.593 22.2744C410.184 22.2925 409.763 22.3007 409.366 22.3304C408.876 22.3682 408.69 22.2332 408.312 22.2168C408.058 22.2974 407.922 22.4077 407.419 22.4159C407.01 22.4225 406.601 22.4489 406.192 22.467C405.988 22.4752 405.783 22.4851 405.578 22.4933C405.25 22.5081 405.095 22.5723 405.163 22.6711C405.2 22.7254 405.231 22.7797 405.262 22.8341C405.324 22.9312 405.169 23.0135 404.909 23.025C404.19 23.0563 403.477 23.0892 402.758 23.1172C402.566 23.1254 402.38 23.0974 402.225 23.053C402.064 23.0086 401.884 22.9888 401.685 22.997C400.966 23.0283 400.254 23.0612 399.535 23.0892C399.454 23.0925 399.349 23.0761 399.268 23.0629C399.094 23.0333 398.927 22.9987 398.76 22.9674C398.351 22.9822 397.948 22.9921 397.545 23.0118C396.894 23.0415 396.894 23.0431 396.416 22.9526C396.33 22.9361 396.243 22.9049 396.162 22.9065C395.852 22.9131 395.549 22.9296 395.239 22.9444C394.328 22.9872 394.327 22.9872 394.061 22.9378C393.819 22.8917 393.602 22.8357 393.236 22.8621C392.84 22.8917 392.418 22.9016 392.009 22.918C391.705 22.9295 391.402 22.9427 391.098 22.946C391.017 22.9477 390.931 22.9164 390.844 22.8999C390.596 22.8489 390.354 22.8077 390.013 22.8357C389.815 22.8522 389.604 22.8555 389.399 22.8637C388.866 22.8868 388.866 22.8867 387.992 22.788C387.905 22.7781 387.8 22.7666 387.713 22.7715C386.994 22.8011 386.281 22.8341 385.562 22.8621C385.475 22.8654 385.37 22.8555 385.283 22.8472C384.304 22.7518 384.304 22.7518 383.263 22.7979C382.866 22.8143 382.853 22.8209 382.438 22.7337C382.252 22.6958 382.097 22.6777 381.88 22.6892C381.062 22.7287 380.238 22.7551 379.425 22.8012C379.06 22.8209 378.849 22.7715 378.601 22.7271C378.514 22.7122 378.421 22.6793 378.347 22.681C377.529 22.7123 376.71 22.7501 375.892 22.7814C375.818 22.7847 375.725 22.7518 375.638 22.7369C375.471 22.7073 375.309 22.6629 375.123 22.653C374.931 22.6431 374.72 22.6678 374.51 22.676C373.995 22.6974 373.995 22.6958 373.4 22.5987C373.319 22.5855 373.214 22.5674 373.134 22.5707C372.315 22.6036 371.491 22.6316 370.679 22.6793C370.214 22.7057 369.898 22.6579 369.569 22.5888C369.501 22.574 369.383 22.5674 369.297 22.5707C368.373 22.6086 367.455 22.6513 366.532 22.6892C366.34 22.6974 366.154 22.6695 365.999 22.6267C365.751 22.5592 365.459 22.5674 365.15 22.5822C364.437 22.6168 364.43 22.6151 364.009 22.5361C363.922 22.5197 363.848 22.4983 363.755 22.49C363.668 22.4818 363.556 22.4867 363.463 22.49C363.054 22.5065 362.645 22.5246 362.236 22.5427C361.827 22.5608 361.411 22.5707 361.009 22.5987C360.513 22.6332 360.277 22.5262 359.93 22.4768C359.422 22.4982 358.901 22.5114 358.399 22.546C358.015 22.5723 357.835 22.4999 357.581 22.462C357.494 22.4489 357.401 22.4209 357.32 22.4242C356.397 22.4604 355.473 22.4999 354.556 22.5443C354.332 22.5542 354.184 22.5411 353.998 22.5015C353.582 22.4127 353.564 22.416 352.87 22.4489C352.566 22.4637 352.274 22.4769 352.014 22.4094C351.785 22.3485 351.506 22.3336 351.177 22.3534C350.774 22.3781 350.359 22.3913 349.95 22.4077C349.541 22.4258 349.132 22.4505 348.723 22.4587C348.394 22.467 348.196 22.3896 347.935 22.3501C347.855 22.3386 347.743 22.3369 347.65 22.3402C347.241 22.355 346.82 22.3666 346.423 22.3945C345.939 22.4291 345.673 22.3386 345.332 22.2859C345.257 22.2744 345.133 22.281 345.04 22.2859C344.321 22.3155 343.608 22.3485 342.889 22.3797C342.635 22.3353 342.375 22.2925 342.121 22.2481C341.712 22.2645 341.302 22.2826 340.893 22.2991C340.583 22.3122 340.267 22.3172 339.976 22.3419C339.598 22.3748 339.412 22.2974 339.158 22.2596C339.071 22.2464 338.978 22.2184 338.897 22.2217C338.383 22.2398 337.868 22.2596 337.36 22.2876C336.876 22.3155 336.684 22.1674 336.288 22.169C335.879 22.1707 335.457 22.1921 335.06 22.2217C334.602 22.2563 334.279 22.2036 333.951 22.1328C333.882 22.118 333.765 22.1098 333.678 22.1131C333.163 22.1328 332.655 22.1575 332.141 22.1773C332.054 22.1806 331.948 22.1723 331.862 22.1625C330.882 22.0653 330.882 22.0637 330.455 22.0834C330.151 22.0966 329.841 22.1131 329.531 22.1213C329.444 22.1246 329.339 22.1098 329.258 22.0966C328.613 21.9962 328.613 21.9945 328.148 22.0143C327.739 22.0324 327.33 22.0505 326.921 22.0686C326.667 22.0242 326.407 21.9814 326.152 21.9369C325.644 21.9583 325.123 21.9748 324.621 22.0044C324.386 22.0176 324.231 22.0126 324.051 21.9715C323.828 21.9221 323.605 21.8645 323.233 21.8925C322.836 21.9221 322.415 21.9254 322.012 21.9501C321.528 21.9797 321.33 21.8299 320.939 21.8316C320.53 21.8332 320.109 21.8546 319.712 21.8842C319.253 21.9188 318.931 21.8662 318.602 21.7954C318.534 21.7806 318.416 21.7723 318.33 21.7756C317.201 21.8234 316.079 21.8711 314.951 21.9221C314.257 21.9534 314.257 21.955 312.937 21.8645C312.844 21.8579 312.744 21.8513 312.651 21.8546C312.242 21.8694 311.821 21.881 311.424 21.9089C310.94 21.9435 310.674 21.8546 310.333 21.8003C310.259 21.7888 310.141 21.7954 310.042 21.7986C309.732 21.8102 309.428 21.825 309.118 21.8382C308.709 21.8563 308.3 21.8744 307.891 21.8925C307.637 21.8497 307.376 21.8052 307.122 21.7624C306.614 21.7838 306.093 21.7954 305.591 21.8299C305.207 21.8563 305.027 21.7871 304.773 21.7476C304.686 21.7345 304.593 21.7065 304.512 21.7081C303.589 21.7443 302.665 21.7822 301.748 21.8283C301.37 21.848 301.196 21.774 300.942 21.7361C300.855 21.7246 300.756 21.7032 300.675 21.7065C300.062 21.7295 299.448 21.7575 298.834 21.7855C298.487 21.8019 298.487 21.8019 297.731 21.6999C297.644 21.6884 297.545 21.6768 297.458 21.6801C295.512 21.7624 293.571 21.8497 291.625 21.932C291.427 21.9402 291.247 21.9155 291.092 21.8711C290.931 21.8266 290.751 21.8036 290.552 21.8118C289.734 21.8464 288.91 21.8777 288.098 21.9205C287.763 21.9386 287.496 21.9172 287.267 21.8595C287.094 21.8167 286.932 21.8003 286.715 21.8102C286.306 21.8299 285.897 21.8464 285.488 21.8645C285.079 21.8826 284.67 21.9007 284.261 21.9188C283.852 21.9369 283.436 21.9468 283.033 21.9748C282.537 22.0094 282.296 21.9073 281.955 21.8563C281.341 21.881 280.727 21.9057 280.12 21.932C279.302 21.9666 278.483 22.0044 277.665 22.0373C277.591 22.0406 277.498 22.011 277.411 21.9962C277.157 21.955 276.971 21.8974 276.593 21.9155C274.758 22.0028 272.911 22.0769 271.07 22.1625C270.685 22.1806 270.518 22.1098 270.257 22.0719C270.171 22.0604 270.072 22.0373 269.991 22.0406C268.968 22.0818 267.945 22.1279 266.923 22.1723C266.507 22.1904 266.507 22.1904 265.813 22.0884C265.732 22.0768 265.627 22.062 265.54 22.0653C264.207 22.1213 262.881 22.1806 261.548 22.2382C261.35 22.2464 261.17 22.2234 261.009 22.1789C260.854 22.1345 260.668 22.1098 260.476 22.118C259.248 22.1707 258.015 22.2217 256.794 22.2793C256.465 22.2958 256.192 22.281 255.957 22.2217C255.789 22.1789 255.622 22.1608 255.411 22.1707C253.57 22.2513 251.729 22.3287 249.888 22.4143C249.535 22.4308 249.287 22.3995 249.064 22.3452C248.884 22.3024 248.729 22.2941 248.506 22.3007C248.27 22.309 248.128 22.3271 247.997 22.3764C247.83 22.4406 247.725 22.5213 247.328 22.5262C246.919 22.5312 246.503 22.5509 246.101 22.5789C245.716 22.6069 245.536 22.5328 245.295 22.4884C245.115 22.4571 244.948 22.4522 244.718 22.467C244.507 22.4802 244.377 22.5081 244.253 22.5608C243.981 22.6727 243.956 22.6727 243.621 22.602C243.441 22.5641 243.28 22.5345 243.082 22.541C242.263 22.574 241.445 22.6102 240.627 22.6481C240.156 22.6695 240.15 22.6727 239.796 22.5904C239.623 22.5493 239.455 22.5295 239.251 22.5394C237.001 22.6382 234.751 22.7337 232.5 22.8374C232.153 22.8538 231.918 22.8193 231.67 22.7699C231.589 22.7534 231.508 22.7304 231.416 22.7238C231.323 22.7172 231.217 22.7238 231.118 22.7271C229.481 22.7978 227.839 22.8654 226.208 22.9444C225.836 22.9625 225.638 22.9098 225.384 22.867C225.297 22.8522 225.223 22.8291 225.13 22.8226C225.037 22.8176 224.925 22.8291 224.826 22.8341C223.19 22.9049 221.547 22.9724 219.917 23.0514C219.526 23.0695 219.359 23.0003 219.105 22.9641C219.018 22.9509 218.925 22.9262 218.844 22.9295C218.33 22.9476 217.821 22.9723 217.307 22.9937C216.08 23.0481 214.852 23.0991 213.625 23.1551C213.154 23.1765 212.949 23.03 212.552 23.0365C212.038 23.0448 211.53 23.0777 211.015 23.1007C210.606 23.1188 210.197 23.1353 209.788 23.1551C209.385 23.1732 209.385 23.1732 208.38 23.0777C208.294 23.0695 208.188 23.0579 208.102 23.0612C206.67 23.1221 205.232 23.1831 203.806 23.2489C203.477 23.2637 203.204 23.2555 202.969 23.1946C202.802 23.1518 202.628 23.1304 202.423 23.1402C200.272 23.2341 198.128 23.3279 195.977 23.4201C195.896 23.4234 195.791 23.4069 195.71 23.3938C195.537 23.3641 195.369 23.3296 195.202 23.2983C195.078 23.3361 194.917 23.3707 194.836 23.4135C194.725 23.4711 194.576 23.4876 194.34 23.4975C194.105 23.5073 193.956 23.5041 193.77 23.4613C193.547 23.4086 193.317 23.3674 192.952 23.3839C190.701 23.4876 188.451 23.5814 186.201 23.6835C185.829 23.6999 185.656 23.6275 185.395 23.5896C185.308 23.5781 185.209 23.56 185.129 23.5633C184.205 23.6012 183.288 23.6423 182.364 23.6818C179.804 23.7938 177.244 23.9008 174.69 24.0193C174.225 24.0407 173.909 23.9995 173.58 23.9287C173.512 23.9139 173.394 23.9057 173.308 23.909C169.725 24.0637 166.142 24.2201 162.565 24.3765C162.373 24.3847 162.187 24.3584 162.032 24.3156C161.871 24.2711 161.691 24.2497 161.492 24.258C159.856 24.3288 158.22 24.3996 156.583 24.472C156.174 24.4901 156.168 24.4917 155.746 24.4127C155.659 24.3962 155.566 24.365 155.498 24.3683C155.356 24.3765 155.219 24.4176 155.12 24.4736C155.021 24.5329 154.866 24.5493 154.636 24.5609C154.401 24.5724 154.246 24.5675 154.066 24.5279C153.837 24.4786 153.626 24.4308 153.254 24.4473C148.549 24.658 143.844 24.8604 139.139 25.0695C138.761 25.086 138.588 25.0168 138.327 24.979C138.24 24.9675 138.154 24.951 138.061 24.9477C137.962 24.9444 137.856 24.9543 137.757 24.9592C130.083 25.2934 122.409 25.6292 114.735 25.9634C114.276 25.9831 114.282 25.9831 113.78 26.1346C113.718 26.1527 113.637 26.1774 113.55 26.1806C111.201 26.286 108.846 26.3881 106.49 26.4901C105.467 26.5346 104.444 26.5807 103.422 26.6235C103.056 26.6383 103.056 26.6383 102.182 26.8161C102.108 26.8309 102.021 26.8506 101.934 26.8539C97.8426 27.0334 93.7513 27.2128 89.6539 27.3889C89.3316 27.4021 89.0713 27.4317 88.9225 27.5107C88.8171 27.5667 88.6807 27.5996 88.4762 27.6095C85.6123 27.7346 82.7485 27.8614 79.8784 27.9832C79.5375 27.998 79.3329 28.0441 79.1655 28.1132C79.1097 28.1363 79.0601 28.1626 78.9795 28.1791C78.9051 28.1939 78.7936 28.1988 78.7006 28.2038C76.2458 28.3108 73.7912 28.4211 71.3302 28.5231C70.9645 28.5379 70.8156 28.5988 70.6359 28.663C70.5739 28.6844 70.5305 28.7141 70.4499 28.7289C70.3693 28.742 70.2515 28.742 70.1523 28.7453C68.1067 28.8342 66.0612 28.9248 64.0155 29.0137C63.6188 29.0054 63.532 29.1009 63.3398 29.1585C63.2716 29.1783 63.2221 29.2046 63.1416 29.2178C63.0548 29.2309 62.943 29.2293 62.8377 29.2326C61.2012 29.3034 59.5647 29.3791 57.922 29.4449C57.5439 29.4598 57.4695 29.5437 57.2649 29.6013C57.1967 29.6194 57.1286 29.6474 57.048 29.6524C56.0252 29.7001 55.0024 29.7445 53.9796 29.7873C53.6387 29.8021 53.6387 29.8005 53.0374 29.9635C52.9692 29.9816 52.8885 30.0013 52.8018 30.0063C51.2706 30.0754 49.7334 30.1413 48.1961 30.2087C47.9977 30.217 47.8614 30.2565 47.7622 30.3125C47.663 30.3684 47.5204 30.4046 47.3221 30.4129C46.0947 30.4672 44.8672 30.5232 43.6398 30.5725C43.2989 30.5857 43.0758 30.6269 42.927 30.7009C42.8155 30.7569 42.6791 30.7849 42.4621 30.7948C41.2348 30.8474 40.0074 30.9051 38.7738 30.9512C38.4143 30.9643 38.2283 31.0203 38.0795 31.0894C37.9617 31.1454 37.8253 31.1652 37.596 31.175C35.3458 31.2705 33.0895 31.366 30.8455 31.4713C30.4674 31.4894 30.2751 31.4318 30.0272 31.3907C29.6739 31.333 29.3454 31.2705 29.3454 31.1421C29.3454 31.1223 29.24 31.0993 29.1656 31.0828C28.6139 30.9594 28.6139 30.9594 28.5271 30.8277C28.4775 30.747 28.4217 30.6647 28.3784 30.5824C28.2978 30.4474 28.0993 30.4129 27.529 30.4376C27.3245 30.4458 27.1199 30.4573 26.9154 30.4639C26.6116 30.4754 26.3823 30.4211 26.3265 30.3223C26.2955 30.268 26.2584 30.2137 26.2274 30.1594C26.5373 30.1462 26.531 30.1446 27.0765 29.9454C27.3059 29.8614 27.306 29.8614 26.8659 29.7775C26.6985 29.7462 26.5373 29.7116 26.3575 29.682C26.2769 29.6688 26.1716 29.6606 26.0848 29.6639C25.5703 29.6836 25.062 29.7067 24.5537 29.7297C23.7355 29.7659 23.7354 29.7659 22.9047 29.598C22.8365 29.5849 22.7311 29.5602 22.7435 29.547C22.8117 29.4861 22.9791 29.4597 23.1898 29.4532C23.4998 29.4433 23.8035 29.4268 24.1073 29.4137C24.3118 29.4054 24.5164 29.3956 24.7209 29.3873C24.9131 29.3248 25.1116 29.2639 25.2913 29.1997C25.5765 29.1009 25.5764 29.0976 25.1859 29.0285C24.9379 28.9824 24.6714 28.9412 24.4172 28.8984C24.1135 28.9116 23.8035 28.9264 23.4998 28.9379C23.1155 28.9527 22.9605 28.9215 22.8613 28.8145C22.7745 28.7206 22.8799 28.64 23.1774 28.6202C23.4812 28.6005 23.7664 28.5873 23.9214 28.5034C24.0702 28.4227 24.3305 28.3914 24.6528 28.3848C24.8574 28.3799 25.062 28.3684 25.2665 28.3585C25.5331 28.3453 25.6757 28.2614 25.6199 28.1675C25.5889 28.1066 25.5269 28.0556 25.2851 28.0424C24.2127 27.9848 24.2003 27.9865 23.6672 27.8745C23.6176 27.8646 23.5805 27.835 23.5991 27.8202C23.6301 27.7955 23.6983 27.7593 23.7727 27.7544C24.4855 27.7181 25.1984 27.6852 25.9112 27.6605C26.1468 27.6523 26.3204 27.6408 26.401 27.5799C26.5125 27.4959 26.4629 27.4185 26.246 27.3609C26.1778 27.3428 26.0661 27.3198 25.9917 27.3214C25.1735 27.3511 24.3615 27.3889 23.5432 27.4185C23.4688 27.4218 23.3325 27.3939 23.3015 27.3725C23.2395 27.333 23.3325 27.2803 23.5494 27.2622C23.8346 27.2375 24.1259 27.2358 24.3181 27.1535C24.5846 27.0366 24.9131 26.9297 25.2107 26.8177C25.2603 26.798 25.341 26.7601 25.3224 26.7568C25.1674 26.7206 24.9876 26.6926 24.8264 26.658C24.5537 26.6004 24.5536 26.5198 24.6156 26.4424C24.6652 26.3798 24.8512 26.3551 25.0805 26.3551C25.1797 26.3551 25.3037 26.3552 25.3843 26.3403C25.595 26.3041 25.6632 26.258 25.5578 26.2234C25.4959 26.2037 25.3843 26.1757 25.31 26.179C23.9834 26.2333 22.6505 26.286 21.3302 26.3535C20.9397 26.3733 20.76 26.3107 20.5245 26.2663C20.3447 26.2317 20.1772 26.2185 19.9541 26.2432C19.7433 26.2662 19.5388 26.2531 19.4086 26.1988C19.3033 26.1543 19.4892 26.1165 19.9913 26.0737C20.0843 26.0654 20.1896 26.0605 20.2578 26.044C20.9769 25.8662 20.9768 25.8646 21.4728 25.8416C21.9563 25.8202 21.9564 25.8185 22.2105 25.723C22.3283 25.6786 22.4584 25.6341 22.57 25.588C22.6134 25.5699 22.6878 25.537 22.663 25.5271C22.5267 25.4761 22.3406 25.4646 22.1237 25.4761C21.6402 25.5041 21.0699 25.4811 20.8158 25.6374C20.7166 25.6967 20.5616 25.7132 20.3385 25.723C18.0945 25.8185 15.8504 25.9206 13.6002 26.0128C13.2345 26.0276 13.0672 26.0885 12.9247 26.156C12.8007 26.2119 12.6643 26.2284 12.4287 26.2383C12.1932 26.2482 12.0071 26.2531 11.8707 26.1988C11.7902 26.1658 11.8584 26.1198 12.0443 26.0737C12.3109 26.0078 12.2613 25.9255 12.1745 25.8481C12.1125 25.7971 11.9203 25.7609 11.7158 25.7642C11.412 25.7708 11.1208 25.7889 10.8666 25.723C10.7178 25.6852 10.5318 25.6588 10.3645 25.6259C10.0421 25.5584 9.71977 25.4893 9.26725 25.5337C8.95731 25.5173 8.74035 25.458 8.49239 25.4119C8.07707 25.3362 8.03988 25.3247 8.33742 25.244C8.67216 25.1535 8.41176 25.0349 8.59773 24.946C8.79609 24.8506 9.06893 24.7666 9.31069 24.6777C9.37267 24.6547 9.42849 24.6333 9.49048 24.6103C9.3479 24.5773 9.21775 24.5362 9.05038 24.5131C8.83342 24.4835 8.72184 24.4473 8.73423 24.3452C8.69084 24.3304 8.70931 24.3683 8.7589 24.3781C8.81469 24.388 8.95117 24.3798 9.01936 24.3683C9.19293 24.337 9.27962 24.2958 9.23623 24.2613C9.21143 24.2432 9.09374 24.2201 9.01936 24.2201C8.88298 24.2201 8.76522 24.2563 8.72803 24.3452C8.03376 24.4127 7.31458 24.4456 6.59551 24.472C6.52112 24.4753 6.4282 24.4423 6.34141 24.4259C6.05626 24.3699 6.05623 24.3716 5.21938 24.3551C5.1326 24.3534 5.01488 24.3304 4.97149 24.3074C4.79172 24.207 4.79797 24.0967 4.71119 23.9897C4.87236 23.9205 5.0334 23.853 5.20077 23.7855C5.53551 23.6489 5.96952 23.5287 6.22987 23.3789C6.17409 23.2983 6.09969 23.2176 6.37244 23.1518C7.14729 23.0695 7.14114 23.0695 7.3519 22.9905C7.95319 22.7666 8.54824 22.5411 9.17433 22.3205C9.3417 22.2629 9.34172 22.2316 9.04418 22.2069C8.95119 22.2003 8.85188 22.1987 8.7527 22.202C8.44276 22.2135 8.13282 22.2431 7.82908 22.2365C7.52533 22.2316 7.30217 22.1592 7.05422 22.1147C6.80007 22.0686 6.54593 22.0209 6.29177 21.9731C6.00043 21.9781 5.70914 22.0242 5.41779 21.9501C5.19463 21.8925 4.9157 21.8513 4.66155 21.8036C4.85371 21.6785 5.2133 21.583 5.49225 21.4727C5.7464 21.3723 5.75246 21.374 6.43433 21.2966C6.75667 21.2604 6.86826 21.0743 6.59551 21.02C6.26697 20.9542 5.91991 20.8933 5.58517 20.8307C5.29382 20.8357 4.99634 20.8801 4.71739 20.806C4.50043 20.7501 4.25243 20.7122 3.8929 20.7336C3.28541 20.7698 2.66554 20.7879 2.05186 20.8176C1.84109 20.8274 1.61167 20.8209 1.51869 20.7649C1.4567 20.7254 1.63648 20.6711 1.84104 20.6595C2.15098 20.6431 2.4299 20.6233 2.58487 20.541C2.73364 20.4587 3.00636 20.434 3.3287 20.4225C3.41549 20.4192 3.51474 20.3994 3.55813 20.3797C3.78129 20.2842 4.02926 20.2019 4.50658 20.2052C4.70494 20.1723 4.81025 20.1311 4.74826 20.0916C4.71107 20.0702 4.58096 20.0422 4.50658 20.0455C3.99207 20.062 3.47759 20.0785 2.97548 20.1081C2.73992 20.1213 2.56006 20.1245 2.41129 20.0751C2.30591 20.0422 2.36169 19.9978 2.56005 19.95C2.73362 19.9089 2.78327 19.8611 2.77087 19.8052C2.73987 19.6751 2.55387 19.6373 1.95878 19.6455C1.53106 19.6521 1.42568 19.6307 1.33269 19.5188C1.3079 19.4924 1.24602 19.4562 1.28941 19.4381C1.55596 19.3262 1.72954 19.1879 2.23165 19.1352C2.43001 19.1155 2.64069 19.1155 2.76466 19.0727C2.88864 19.0299 3.00027 18.9805 3.13045 18.9393C3.29162 18.8899 3.40309 18.8439 3.3287 18.8126C3.20473 18.7566 3.00643 18.7517 2.77707 18.7714C2.57871 18.7879 2.36795 18.7895 2.16339 18.7994C1.79766 18.8175 1.50018 18.7747 1.45679 18.7023C1.33901 18.5113 1.215 18.322 1.10962 18.1311C1.09722 18.108 1.12813 18.0784 1.17772 18.0586C1.35129 17.9895 1.53733 17.9237 1.71709 17.8562C1.92785 17.7788 2.26265 17.7936 2.54779 17.7788C2.95072 17.7574 2.95058 17.759 3.48988 17.601C3.70064 17.5385 4.06639 17.5632 4.28335 17.5072C4.35154 17.4891 4.45692 17.4594 4.43832 17.443C4.41353 17.4216 4.28962 17.4051 4.19663 17.3952C4.10985 17.3854 4.00449 17.3804 3.91151 17.3854C2.78332 17.4331 1.66136 17.4841 0.533168 17.5302C0.341003 17.5385 0.130236 17.5023 0.062049 17.4512C-0.00613831 17.4035 0.0123977 17.3459 0 17.2915C0.179767 17.224 0.38425 17.1615 0.539221 17.0891C0.656999 17.0331 0.793398 17.0084 1.02895 17.0051C1.3389 17.0002 1.64267 16.9804 1.98981 16.9656C2.63449 16.7253 3.26673 16.4734 3.961 16.2331C4.23995 16.136 4.17187 16.0372 4.22766 15.9335C4.28345 15.838 4.69875 15.8528 4.97769 15.8248C5.20085 15.8018 5.27514 15.7491 5.18836 15.7129C5.13877 15.6915 5.02725 15.6668 4.94047 15.6668C4.7359 15.6668 4.53135 15.6816 4.32679 15.6898C4.12222 15.6981 3.88668 15.6931 3.71931 15.7211C3.55814 15.7475 3.4527 15.8034 3.34732 15.8512C3.22954 15.9038 3.07468 15.922 2.83912 15.9253C2.53538 15.9285 2.23165 15.9433 1.92791 15.9549C1.59317 15.8907 1.24596 15.8281 0.923623 15.7606C0.861634 15.7475 0.84917 15.7096 0.855369 15.6849C0.867766 15.6207 0.774808 15.5812 0.570246 15.5499C0.396678 15.5236 0.254092 15.4857 0.0929222 15.4528C0.216899 15.4084 0.353322 15.3656 0.452504 15.3178C0.669464 15.2174 0.942243 15.145 1.41336 15.1483C1.59932 15.0841 1.74805 15.0051 1.98981 14.9606C2.21916 14.9178 2.60971 14.9606 2.78328 14.8635C2.87006 14.8157 3.00031 14.7614 3.16768 14.7417C3.43423 14.7104 3.78136 14.7269 3.93633 14.6347C4.02931 14.582 4.16563 14.5343 4.3454 14.5211C4.54996 14.5063 4.76067 14.503 4.90944 14.4717C4.99003 14.4553 5.07682 14.4289 5.07682 14.4059C5.07682 14.3911 4.95294 14.368 4.86616 14.3581C4.78557 14.3466 4.68007 14.3384 4.58709 14.3417C4.27715 14.3515 3.97341 14.3697 3.66347 14.3795C3.57668 14.3828 3.47753 14.3713 3.38455 14.3614C3.1118 14.3351 3.13036 14.3022 3.34732 14.2429C3.56428 14.1853 3.71933 14.1112 3.8991 14.0437C4.09746 14.0322 4.34538 14.0371 4.48176 14.0059C4.71111 13.9548 4.87224 13.8807 5.05821 13.8165C5.26277 13.8067 5.47352 13.8034 5.66568 13.7853C5.74627 13.7787 5.78349 13.7425 5.85168 13.7211C5.97566 13.6799 6.08112 13.6207 6.24849 13.6009C6.52124 13.5713 6.85597 13.5828 7.01714 13.4923C7.11012 13.4396 7.25264 13.3836 7.42621 13.3803C7.90972 13.3738 8.11429 13.2832 8.36224 13.1976C8.54821 13.1334 8.94495 13.1663 9.14951 13.1021C9.28588 13.061 9.38513 13.0099 9.5215 12.9704C9.57729 12.954 9.69503 12.9458 9.78801 12.9408C10.2963 12.9161 10.8108 12.898 11.3191 12.8717C11.3997 12.8667 11.4741 12.842 11.5361 12.8223C11.6663 12.7795 11.7468 12.7202 11.908 12.6922C12.0691 12.6643 12.2985 12.6643 12.4968 12.656C13.1353 12.6313 13.1849 12.6379 13.4763 12.498C13.7119 12.3844 14.2884 12.4651 14.4806 12.34C14.5922 12.2675 14.7966 12.2083 15.1624 12.2001C15.6769 12.1885 16.1852 12.1573 16.6997 12.1359C17.1584 12.1161 17.1522 12.1161 17.6481 11.963C17.8713 11.8939 18.1999 11.9037 18.4912 11.8906C18.8012 11.8774 19.0863 11.8577 19.2351 11.7754C19.3838 11.6947 19.6565 11.6683 19.9727 11.6568C20.264 11.6453 20.5926 11.6535 20.822 11.5877C21.3799 11.4297 21.3737 11.428 21.7642 11.4115C22.3779 11.3852 22.9916 11.3589 23.6053 11.3309C24.0144 11.3128 24.4421 11.3095 24.8264 11.2733C25.1054 11.2469 25.2293 11.1548 25.4091 11.0906C25.9174 11.0659 26.4257 11.0412 26.934 11.0181C27.6468 10.9852 28.3659 10.9556 29.085 10.9243C29.3949 10.8617 29.4384 10.7235 29.9591 10.7169C30.269 10.7136 30.5728 10.6922 30.8827 10.679C31.3972 10.656 31.9055 10.6263 32.42 10.6148C32.8105 10.6066 32.8786 10.5177 33.0832 10.4617C33.1514 10.442 33.2134 10.414 33.294 10.4091C34.0998 10.363 34.9304 10.3531 35.7177 10.2856C35.7983 10.279 35.8727 10.2444 35.8913 10.2198C35.9037 10.2066 35.7983 10.1819 35.7301 10.1704C35.6495 10.1572 35.5442 10.144 35.4574 10.1473C32.8973 10.2576 30.3372 10.3696 27.7771 10.4799C27.4176 10.4963 27.4176 10.4947 26.5435 10.6757C26.4691 10.6905 26.3823 10.707 26.2893 10.7119C25.8801 10.7317 25.4648 10.7432 25.0619 10.7679C24.7334 10.7877 24.4607 10.7679 24.2252 10.7086C24.0578 10.6658 23.8841 10.6527 23.6734 10.656C23.4378 10.6609 23.2829 10.679 23.1466 10.7235C22.9668 10.7844 22.8738 10.8634 22.4957 10.8799C20.7538 10.9506 19.0118 11.0296 17.2761 11.1054C17.0344 11.0823 16.9166 11.0478 16.9786 11.0066C17.0158 10.9819 17.0902 10.949 17.1646 10.9457C17.8774 10.9111 18.5965 10.8815 19.3094 10.8486C19.4085 10.8436 19.5449 10.8469 19.6007 10.8305C19.8734 10.7564 19.9727 10.6362 20.4872 10.628C20.7848 10.623 21.0885 10.5984 21.3736 10.5753C21.4542 10.5687 21.5286 10.5342 21.5472 10.5095C21.5534 10.4963 21.4542 10.4716 21.3798 10.4601C21.1071 10.4123 20.791 10.47 20.5183 10.4371C20.4253 10.4255 20.295 10.4091 20.2764 10.3893C20.264 10.3712 20.3694 10.3416 20.4438 10.3235C20.512 10.307 20.6049 10.2922 20.6979 10.2872C21.5161 10.2494 22.3345 10.2099 23.1528 10.1802C23.4875 10.1687 23.723 10.1276 23.8718 10.0518C23.9834 9.99587 24.1197 9.96625 24.3305 9.95802C25.7624 9.89711 27.1943 9.82962 28.6325 9.77365C28.992 9.76049 29.178 9.70617 29.3268 9.63539C29.4446 9.57942 29.581 9.55966 29.8103 9.54978C31.8621 9.46418 33.9015 9.36871 35.9533 9.28641C36.3315 9.27159 36.4431 9.2008 36.6353 9.1399C36.7035 9.1185 36.7467 9.09216 36.8335 9.07899C36.9203 9.06582 37.0319 9.06745 37.1373 9.06416C38.7738 8.99338 40.4104 8.91767 42.0531 8.85182C42.4374 8.83701 42.5117 8.75469 42.71 8.69708C42.7782 8.67897 42.8402 8.64935 42.9208 8.64441C44.1482 8.58844 45.3755 8.53577 46.6029 8.48144C47.4212 8.44523 48.2394 8.40901 49.0576 8.37444C49.4606 8.35798 49.4606 8.35632 50.0061 8.19994C50.0681 8.18183 50.1549 8.16043 50.2355 8.15549C52.5911 8.05014 54.9404 7.94975 57.2959 7.84604C57.4943 7.83781 57.6368 7.79993 57.736 7.74396C57.8352 7.68799 57.9779 7.65013 58.1701 7.6419C60.0111 7.55959 61.8521 7.47894 63.6994 7.40157C64.0341 7.3884 64.2696 7.34889 64.4184 7.27482C64.53 7.21885 64.6664 7.18923 64.8771 7.181C66.7182 7.10198 68.5593 7.01802 70.4066 6.94229C70.7599 6.92748 70.9334 6.87152 71.107 6.80567C71.169 6.78263 71.2186 6.74476 71.293 6.74147C72.2104 6.69538 73.1216 6.64764 74.0452 6.61636C74.4296 6.60319 74.5598 6.53405 74.7148 6.46821C74.8387 6.41553 74.9813 6.39743 75.2169 6.39084C75.7314 6.37603 76.2397 6.34806 76.7418 6.32007C76.8162 6.31513 76.9092 6.27892 76.9154 6.25587C76.9278 6.21307 76.7851 6.18343 76.5496 6.16862C74.0948 6.27562 71.634 6.38261 69.1792 6.48961C68.7763 6.50771 68.7763 6.50772 68.2308 6.66411C68.1688 6.68221 68.0819 6.70362 67.9952 6.70856C65.6396 6.81226 63.2903 6.91432 60.9347 7.01803C60.7364 7.02626 60.5938 7.06412 60.4946 7.12009C60.3955 7.17606 60.2528 7.21392 60.0606 7.22215C57.8104 7.32092 55.5603 7.42134 53.3039 7.51516C52.9692 7.52833 52.7337 7.56618 52.5849 7.6419C52.4733 7.69787 52.3369 7.72751 52.1262 7.73574C49.9752 7.82792 47.8303 7.92504 45.6731 8.01393C45.4561 8.02216 45.2951 7.97442 45.3074 7.92997C45.3136 7.90693 45.4065 7.86908 45.4809 7.86579C46.6029 7.81147 47.7188 7.75549 48.847 7.71434C49.2251 7.70117 49.3366 7.62874 49.5288 7.56783C49.5907 7.54643 49.6404 7.51845 49.721 7.50693C49.8077 7.49376 49.9193 7.49541 50.0247 7.49212C52.684 7.37524 55.3434 7.25672 58.0089 7.14643C58.3932 7.12997 58.4675 7.0493 58.6659 6.99169C58.734 6.97193 58.7961 6.94231 58.8767 6.93902C59.6949 6.89951 60.5131 6.86494 61.3314 6.83037C62.7633 6.76782 64.1952 6.70526 65.6334 6.64271C66.0487 6.6246 66.0487 6.62459 66.5818 6.46985C66.6438 6.45175 66.7306 6.42872 66.8112 6.42543C70.5987 6.25917 74.3863 6.0929 78.1738 5.92829C78.3721 5.92006 78.5147 5.8822 78.6139 5.82623C78.713 5.77191 78.8556 5.7324 79.0478 5.72252C84.168 5.49865 89.2821 5.27477 94.4023 5.05418C94.7371 5.03937 94.9726 5.0048 95.1213 4.92743C95.2267 4.87146 95.3693 4.84184 95.58 4.83196C101.209 4.58669 106.837 4.34142 112.472 4.0945C116.259 3.92988 120.047 3.76198 123.834 3.60066C124.182 3.58584 124.367 3.5348 124.541 3.46731C124.597 3.44426 124.653 3.4064 124.727 3.40311C125.539 3.36195 126.351 3.3241 127.163 3.28624C127.417 3.33068 127.671 3.37349 127.926 3.41794C128.118 3.35538 128.304 3.29118 128.496 3.22863C129.723 3.18089 130.932 3.10681 132.172 3.08377C132.252 3.08212 132.339 3.1134 132.426 3.12986C133.002 3.23357 133.331 3.22534 133.697 3.08706C133.827 3.03768 133.938 2.99323 134.137 2.985C134.751 2.95537 135.371 2.93562 135.978 2.90105C136.307 2.88294 136.579 2.8994 136.815 2.95866C136.982 3.00146 137.156 3.01958 137.36 3.0097C138.489 2.96032 139.611 2.91257 140.739 2.8599C140.819 2.8566 140.894 2.82861 140.956 2.80886C141.086 2.76606 141.197 2.71998 141.321 2.67553C141.489 2.70351 141.675 2.72492 141.811 2.76113C141.985 2.80393 142.146 2.80392 142.381 2.7924C146.882 2.59322 151.388 2.39898 155.889 2.19815C156.273 2.18169 156.44 2.25083 156.701 2.28705C156.788 2.30021 156.874 2.31667 156.967 2.31996C157.066 2.32325 157.172 2.31338 157.271 2.30845C160.649 2.16029 164.028 2.01378 167.406 1.86563C167.853 1.84587 167.853 1.84587 168.516 1.94793C168.596 1.9611 168.702 1.97592 168.789 1.97098C170.326 1.90678 171.863 1.83765 173.394 1.7718C173.593 1.76357 173.76 1.78991 173.94 1.82777C174.293 1.90184 174.318 1.90185 174.578 1.79321C174.702 1.74218 174.832 1.71088 175.037 1.69607C175.26 1.67961 175.44 1.68456 175.613 1.71419C175.861 1.75535 176.041 1.82447 176.419 1.80637C178.056 1.729 179.698 1.66481 181.329 1.58579C181.701 1.56768 181.899 1.62365 182.147 1.6648C182.234 1.67962 182.314 1.70266 182.407 1.7076C182.5 1.71254 182.612 1.70101 182.711 1.69607C184.757 1.60718 186.808 1.51995 188.848 1.42447C189.232 1.40637 189.4 1.47714 189.66 1.51335C189.747 1.52652 189.846 1.54958 189.927 1.54629C191.154 1.49526 192.388 1.44092 193.615 1.3866C194.055 1.36684 194.055 1.36849 194.724 1.4689C194.805 1.48207 194.91 1.49524 194.997 1.49195C196.429 1.43104 197.867 1.36849 199.299 1.30594C199.739 1.28618 199.739 1.28619 201.01 1.37179C201.103 1.37837 201.202 1.38826 201.295 1.38497C202.932 1.31418 204.574 1.24504 206.211 1.16931C206.539 1.1545 206.812 1.16766 207.048 1.22693C207.215 1.26972 207.389 1.28784 207.593 1.27797C209.434 1.1973 211.282 1.11994 213.117 1.03434C213.47 1.01788 213.699 1.05408 213.947 1.10182C214.028 1.11828 214.108 1.14133 214.201 1.14791C214.294 1.1545 214.4 1.14791 214.499 1.14297C216.34 1.06231 218.187 0.986591 220.022 0.899346C220.394 0.881239 220.592 0.937204 220.84 0.978358C220.927 0.993173 221.02 1.0228 221.094 1.02116C221.813 0.993174 222.532 0.968491 223.245 0.927338C223.63 0.904292 223.797 0.98 224.057 1.01622C224.144 1.02774 224.243 1.05244 224.324 1.04915C225.861 0.984951 227.399 0.917464 228.93 0.848327C229.147 0.83845 229.308 0.853251 229.481 0.896051C229.711 0.953666 229.977 0.976712 230.312 0.958605C231.025 0.920744 231.744 0.894413 232.463 0.863136C232.885 0.845029 232.885 0.845034 234.174 0.930633C234.267 0.937218 234.366 0.947087 234.459 0.943795C235.686 0.891119 236.92 0.840092 238.141 0.782477C238.47 0.766016 238.743 0.780827 238.978 0.840088C239.145 0.882887 239.313 0.901005 239.524 0.891128C240.652 0.841744 241.774 0.792356 242.902 0.742972C243.311 0.724864 243.72 0.69358 244.129 0.69358C244.427 0.695226 244.644 0.774237 244.91 0.813744C244.985 0.825267 245.109 0.812113 245.208 0.808821C246.64 0.746268 248.078 0.688648 249.504 0.617864C249.876 0.599757 250.074 0.655722 250.322 0.696875C250.409 0.71169 250.502 0.741322 250.576 0.739676C251.091 0.721569 251.599 0.696874 252.113 0.675475C252.727 0.649137 253.347 0.629383 253.954 0.593168C254.45 0.563538 254.636 0.706746 255.033 0.711685C255.337 0.716623 255.647 0.688644 255.95 0.675475C256.564 0.649137 257.178 0.619509 257.792 0.596464C258.008 0.588233 258.176 0.561884 258.244 0.502623C258.257 0.4911 258.151 0.466418 258.083 0.451603C257.259 0.283697 257.258 0.283689 256.428 0.319904C255.913 0.34295 255.405 0.366 254.89 0.385754C254.804 0.389046 254.705 0.375878 254.618 0.366001C254.37 0.338017 254.395 0.305097 254.605 0.245836C254.816 0.186576 254.977 0.114152 255.157 0.0466608C255.411 0.0894602 255.659 0.132244 255.913 0.175044C256.118 0.166813 256.323 0.156951 256.527 0.14872C257.55 0.105921 258.573 0.061472 259.595 0.0219648C259.67 0.0186725 259.763 0.0516 259.85 0.0680613C260.098 0.115799 260.321 0.156941 260.68 0.138834C261.598 0.0910959 262.521 0.0565271 263.439 0.0153738C263.842 -0.00273366 263.842 -0.00273205 264.548 0.0993282C264.629 0.110851 264.734 0.124021 264.821 0.120729C265.745 0.0828677 266.662 0.0417192 267.586 0.00221197C267.784 -0.00601869 267.976 0.0153802 268.119 0.0631181C268.175 0.0828717 268.162 0.115788 268.398 0.385754C269.129 0.604689 269.631 0.581655 270.14 0.561901C270.357 0.553671 270.549 0.545432 270.691 0.512509C270.766 0.494402 270.859 0.46806 270.859 0.44666C270.859 0.430198 270.722 0.403856 270.636 0.400563C270.022 0.367641 269.439 0.436788 268.838 0.451603C268.559 0.458188 268.317 0.400572 268.268 0.306743C268.255 0.280404 268.237 0.252422 268.218 0.226084C268.199 0.199746 268.187 0.171763 268.169 0.145425C267.927 0.137194 267.784 0.16682 267.679 0.222788C267.592 0.26888 267.468 0.321556 267.301 0.346248C267.133 0.372586 266.904 0.367657 266.699 0.375887C266.501 0.384118 266.284 0.405515 266.098 0.393992C265.912 0.380823 265.763 0.333077 265.59 0.303447C265.509 0.288632 265.41 0.26724 265.329 0.270532C264.617 0.298517 263.91 0.32649 263.203 0.362705C262.831 0.382459 262.645 0.313332 262.41 0.270532C262.224 0.23761 262.038 0.24583 262.007 0.321552C261.926 0.502627 262.211 0.578345 262.844 0.543776C263.364 0.514146 263.835 0.509223 264.245 0.62116C264.3 0.635975 264.431 0.642557 264.511 0.639265C265.019 0.619511 265.521 0.594817 266.03 0.575063C266.123 0.571771 266.222 0.578345 266.309 0.584929C267.573 0.673821 267.573 0.675475 268.001 0.655722C268.206 0.645845 268.404 0.637614 268.385 0.387401C268.776 0.119082 269.396 0.100978 269.997 0.0614703C270.388 0.0367783 270.555 0.109211 270.809 0.147072C270.896 0.160242 270.989 0.186575 271.07 0.183283C272.402 0.12896 273.729 0.0713375 275.055 0.0104306C275.279 0.000553781 275.44 0.0104322 275.613 0.0532316C275.836 0.107554 276.084 0.14213 276.438 0.122376C277.144 0.0828693 277.863 0.0581829 278.582 0.0252602C278.948 0.00879891 278.948 0.00878204 279.686 0.110842C279.766 0.122365 279.872 0.135535 279.959 0.132243C280.678 0.104259 281.391 0.0697002 282.104 0.0400698C282.302 0.0318391 282.482 0.0548826 282.637 0.0993282C282.792 0.143774 282.978 0.166817 283.17 0.158587C283.889 0.128956 284.602 0.096044 285.314 0.0664136C285.401 0.0631213 285.507 0.0746434 285.587 0.0861664C286.343 0.188227 286.343 0.18821 286.691 0.171748C287.199 0.147056 287.72 0.135546 288.222 0.102624C288.711 0.069701 288.966 0.165169 289.3 0.217845C290.218 0.179984 291.141 0.148715 292.053 0.102624C292.424 0.0828701 292.623 0.137188 292.871 0.179987C292.958 0.194802 293.044 0.226082 293.125 0.224436C293.435 0.217851 293.739 0.199747 294.043 0.186578C294.346 0.173409 294.656 0.160242 294.96 0.147072C295.307 0.19481 295.536 0.306746 296.032 0.268885C296.33 0.245839 296.646 0.2409 296.95 0.227731C297.253 0.214562 297.563 0.201395 297.867 0.188226C298.072 0.179995 298.282 0.175049 298.481 0.160234C298.847 0.135542 299.026 0.216212 299.287 0.252427C299.374 0.26395 299.473 0.283691 299.553 0.280399C300.167 0.257353 300.787 0.237601 301.388 0.19974C301.853 0.170109 302.169 0.2195 302.498 0.288637C302.566 0.303453 302.684 0.311683 302.77 0.30839C303.489 0.280406 304.202 0.245828 304.915 0.216197C305.107 0.207967 305.293 0.234304 305.448 0.277103C305.61 0.321549 305.789 0.342965 305.988 0.334734C306.7 0.305104 307.42 0.272171 308.133 0.242541C308.219 0.239249 308.325 0.25242 308.405 0.265589C309.099 0.367649 309.099 0.369297 309.509 0.349544C309.608 0.344605 309.713 0.3413 309.812 0.336362C310.321 0.313316 310.848 0.305096 311.343 0.265589C311.914 0.221144 312.329 0.277115 312.732 0.370944C313.24 0.351191 313.761 0.339665 314.257 0.306743C314.629 0.282051 314.827 0.3446 315.075 0.385754C315.162 0.400569 315.255 0.430199 315.329 0.426907C316.048 0.398923 316.767 0.37424 317.474 0.333086C317.858 0.31004 318.026 0.384103 318.286 0.421964C318.373 0.435133 318.466 0.458191 318.546 0.454899C318.956 0.441729 319.365 0.421966 319.774 0.403859C320.251 0.382459 320.251 0.384104 320.883 0.484518C321.181 0.532256 321.479 0.494393 321.77 0.48287C322.08 0.469701 322.371 0.459827 322.619 0.527319C322.774 0.570118 322.96 0.596457 323.152 0.589873C323.561 0.575057 323.977 0.560249 324.38 0.535557C324.702 0.515804 324.981 0.528966 325.216 0.589873C325.384 0.632672 325.557 0.654085 325.762 0.644208C326.679 0.604701 327.603 0.563532 328.52 0.525671C328.601 0.522379 328.713 0.5372 328.787 0.552015C328.961 0.581645 329.128 0.614561 329.295 0.647483C329.698 0.632668 330.114 0.6261 330.51 0.603055C330.932 0.580009 331.316 0.571776 331.645 0.662313C331.713 0.682067 331.812 0.710036 331.893 0.708389C332.203 0.701805 332.506 0.685348 332.81 0.672179C333.114 0.65901 333.424 0.645843 333.727 0.632674C334.081 0.673827 334.304 0.792347 334.8 0.754486C335.098 0.73144 335.414 0.726502 335.717 0.713333C336.021 0.700164 336.331 0.68535 336.635 0.673827C336.734 0.670535 336.846 0.662299 336.932 0.668884C337.025 0.675468 337.106 0.698519 337.186 0.71498C337.434 0.762718 337.664 0.810462 338.017 0.782477C338.315 0.759432 338.631 0.754492 338.935 0.739676C339.35 0.721569 339.35 0.721572 340.038 0.825278C340.317 0.868078 340.633 0.812112 340.9 0.848327C341.079 0.873019 341.234 0.914163 341.408 0.942147C341.482 0.95367 341.6 0.958602 341.687 0.955309C342.096 0.940494 342.511 0.925686 342.914 0.900994C343.243 0.881241 343.516 0.900992 343.745 0.960253C343.912 1.00305 344.08 1.02117 344.29 1.01129C345.313 0.965201 346.336 0.925681 347.353 0.87465C347.7 0.856543 347.979 0.884534 348.171 0.943795C348.499 1.04586 348.964 0.92569 349.305 1.008C349.516 1.05903 349.727 1.11829 350.111 1.0936C350.818 1.0508 351.537 1.02774 352.25 0.99811C352.504 1.04256 352.758 1.08701 353.018 1.13146C353.427 1.11335 353.837 1.09523 354.246 1.07877C354.549 1.0656 354.859 1.05079 355.163 1.03926C355.262 1.03597 355.368 1.02939 355.461 1.03762C355.554 1.04585 355.628 1.06725 355.715 1.08371C356.143 1.16437 356.142 1.16603 356.849 1.1331C357.153 1.11829 357.444 1.10841 357.698 1.17426C357.934 1.23516 358.213 1.24668 358.535 1.22857C359.143 1.19565 359.757 1.17096 360.376 1.14791C360.569 1.13968 360.748 1.16767 360.909 1.21047C361.151 1.27796 361.449 1.27138 361.753 1.25327C362.155 1.23022 362.552 1.20718 362.893 1.29937C362.961 1.31912 363.067 1.34709 363.141 1.34544C363.649 1.33227 364.164 1.3224 364.66 1.29113C365.156 1.25985 365.397 1.36191 365.738 1.41129C366.247 1.38989 366.761 1.36849 367.269 1.34709C367.369 1.34215 367.486 1.32735 367.573 1.33558C367.939 1.37014 368.15 1.4936 368.652 1.45574C368.943 1.43434 369.259 1.42776 369.563 1.42283C369.644 1.42118 369.749 1.44915 369.805 1.47055C369.836 1.48207 369.805 1.51335 369.768 1.52981C369.656 1.5759 369.52 1.61871 369.42 1.66645C369.408 1.67303 369.526 1.70265 369.594 1.71582C369.761 1.74545 369.954 1.74053 370.177 1.72736C370.369 1.71583 370.567 1.73888 370.704 1.78826C370.759 1.80802 370.741 1.84094 370.623 1.94958C370.623 2.03024 370.753 1.99402 370.797 1.94134C370.865 1.86562 370.735 1.84093 370.487 1.88208C370.313 1.91171 370.226 1.95452 370.27 1.98909C370.295 2.00719 370.412 2.03024 370.623 1.94958C371.168 1.85081 371.578 1.83271 371.987 1.81461C372.092 1.80967 372.216 1.7932 372.291 1.80307C372.557 1.84258 372.805 1.89032 373.065 1.93477C373.363 1.92489 373.642 1.90019 373.933 1.96439C374.342 2.05493 374.361 2.0467 374.758 2.02859C374.962 2.01871 375.167 2.0105 375.371 2.00227C375.576 1.99404 375.737 2.01872 375.917 2.05658C376.283 2.13395 376.314 2.13394 376.555 2.02859C376.698 1.96439 376.797 1.943 376.977 1.97263C377.572 2.07304 377.578 2.07962 378.086 2.04999C378.508 2.0253 378.905 2.01872 379.215 2.11255C379.425 2.17839 379.494 2.16358 379.661 2.09444C380.107 1.91172 380.312 1.91501 381.149 2.0467C381.539 2.10925 381.942 2.04176 382.339 2.03353C382.674 2.02695 382.909 2.06645 382.934 2.17016C382.953 2.23436 383.008 2.28046 383.232 2.30185C383.318 2.31009 383.424 2.3216 383.51 2.31831C384.025 2.29856 384.533 2.27551 385.048 2.25246C385.308 2.24094 385.451 2.16359 385.401 2.06153C385.345 1.95288 385.444 1.91336 385.816 1.88208C386.04 1.86398 386.219 1.86728 386.399 1.89691C386.598 1.92984 386.542 1.95946 386.368 2.01872C385.953 2.16358 386.002 2.25246 386.536 2.35287C386.721 2.38744 386.87 2.41873 386.914 2.46976C386.938 2.4961 386.914 2.53067 386.969 2.55042C387.273 2.66071 387.695 2.7315 388.166 2.78418C388.618 2.73974 388.928 2.8138 389.275 2.87306C389.548 2.91915 389.87 2.87965 390.162 2.86319C390.49 2.84508 390.763 2.85825 390.999 2.91915C391.166 2.96195 391.34 2.9817 391.544 2.97347C391.953 2.95536 392.369 2.94385 392.771 2.91751C393.119 2.89446 393.379 2.92739 393.596 2.98336C393.869 3.05414 394.173 3.00639 394.458 3.01627C394.842 3.02779 395.034 3.17429 395.536 3.13479C395.834 3.11174 396.144 3.10351 396.454 3.09693C396.534 3.09528 396.633 3.12327 396.702 3.14303C397.03 3.23356 397.415 3.22862 397.836 3.20228C398.127 3.18418 398.412 3.16772 398.698 3.23028C399.169 3.33563 399.69 3.42782 400.185 3.52494C400.254 3.60066 400.204 3.68954 400.557 3.73398C400.743 3.75703 400.917 3.79161 401.059 3.82947C401.233 3.87392 401.394 3.88544 401.617 3.87392C402.02 3.85087 402.442 3.84592 402.839 3.81629C403.204 3.78995 403.434 3.84429 403.657 3.89532C403.836 3.93647 404.004 3.95622 404.221 3.92659C404.444 3.8986 404.605 3.9167 404.785 3.96115C405.039 4.02206 405.058 4.01548 405.901 4.03359C405.988 4.03524 406.093 4.05991 406.142 4.08131C406.167 4.09284 406.112 4.12578 406.068 4.14224C406.012 4.16199 405.925 4.18503 405.845 4.18996C404.927 4.23276 404.004 4.27063 403.086 4.31342C402.993 4.31836 402.894 4.3299 402.826 4.34636C402.752 4.36447 402.659 4.38914 402.659 4.41219C402.659 4.42865 402.783 4.44841 402.869 4.45993C403.142 4.49779 403.465 4.44018 403.731 4.48298C403.911 4.51097 404.06 4.55046 404.239 4.5768C404.314 4.58832 404.432 4.58668 404.525 4.58339C404.835 4.57187 405.138 4.55541 405.448 4.54553C405.535 4.54389 405.634 4.56036 405.715 4.57353C406.31 4.67229 406.31 4.67229 406.824 4.65089C407.029 4.64266 407.246 4.61796 407.438 4.62784C407.624 4.63772 407.785 4.68216 407.953 4.71015C408.3 4.76941 408.628 4.82702 408.653 4.95542C408.665 5.0048 408.87 5.0476 409.074 5.05089C409.273 5.05418 409.484 5.03609 409.688 5.02621C410.172 5.00646 410.172 5.00646 410.798 5.10687C410.971 5.13486 411.157 5.13814 411.38 5.12168C411.467 5.1151 411.573 5.12169 411.666 5.12992C411.969 5.15461 411.969 5.18588 411.771 5.24514C411.492 5.33239 411.517 5.34062 412.298 5.4147C412.595 5.44268 412.825 5.49536 413.073 5.54145C413.476 5.61553 413.47 5.61552 413.203 5.71264C413.141 5.73404 413.085 5.75709 413.023 5.78013C412.843 5.84433 412.701 5.91347 412.329 5.92005C411.92 5.92664 411.511 5.95298 411.102 5.97109C410.705 5.9892 410.599 6.02869 410.637 6.14063C410.68 6.27561 410.761 6.29043 411.474 6.28878C411.678 6.28878 411.858 6.30195 412.013 6.34639C411.938 6.39907 411.802 6.44023 411.604 6.4501C411.095 6.47479 410.581 6.4962 410.073 6.5176C409.663 6.53571 409.254 6.55381 408.845 6.57191C408.591 6.58344 408.43 6.66904 408.498 6.76452C408.535 6.81884 408.566 6.87316 408.597 6.92748C408.665 7.03613 408.796 7.06412 409.211 7.05918C409.316 7.05754 409.415 7.04436 409.515 7.04765C409.918 7.05917 410.11 7.1958 410.593 7.16781C410.996 7.14477 411.418 7.13983 411.814 7.1102C412.18 7.08386 412.385 7.14314 412.639 7.18759C412.726 7.2024 412.819 7.23366 412.893 7.23202C413.408 7.21391 413.922 7.19581 414.424 7.16454C414.66 7.15137 414.802 7.16124 414.988 7.20075C415.435 7.29622 415.447 7.29128 416.11 7.26165C416.594 7.23861 416.6 7.2419 417.22 7.34231C417.393 7.3703 417.579 7.37029 417.803 7.35712C418.094 7.34066 418.398 7.31433 418.701 7.33902C418.794 7.3456 418.912 7.36536 418.943 7.38676C418.962 7.40158 418.875 7.43779 418.801 7.44932C418.255 7.53491 417.617 7.5201 417.021 7.55467C416.835 7.56455 416.649 7.53327 416.494 7.48882C416.333 7.44438 416.16 7.42628 415.949 7.43451C415.54 7.45261 415.125 7.46413 414.722 7.49047C414.375 7.51351 414.133 7.47565 413.891 7.42462C413.81 7.40816 413.717 7.37688 413.637 7.37852C412.719 7.41145 411.796 7.44438 410.885 7.49047C410.519 7.51022 410.308 7.45755 410.06 7.41311C409.973 7.39829 409.887 7.36701 409.806 7.36866C409.496 7.37524 409.192 7.39335 408.882 7.40651C407.754 7.4559 406.632 7.50528 405.504 7.55137C405.43 7.55467 405.337 7.52009 405.25 7.50528C405.082 7.47565 404.909 7.44766 404.735 7.41968C404.425 7.43285 404.122 7.44931 403.812 7.45918C403.589 7.46577 403.39 7.48882 403.359 7.55137C403.341 7.59253 403.545 7.63038 403.762 7.62709C403.973 7.6238 404.184 7.60404 404.357 7.62544C405.219 7.7308 405.219 7.73244 405.758 7.71105C406.229 7.69129 406.18 7.67482 406.595 7.76536C406.775 7.80487 406.936 7.82792 407.141 7.81805C407.649 7.795 408.163 7.77195 408.678 7.7522C408.758 7.74891 408.864 7.76537 408.944 7.77854C409.552 7.87731 409.552 7.8806 410.054 7.85591C410.711 7.82628 410.736 7.81805 411.176 7.91846C411.48 7.9876 411.759 7.93986 412.05 7.93656C412.385 8.00076 412.75 8.05839 413.054 8.13082C413.414 8.21642 413.792 8.20159 414.201 8.17689C414.505 8.15879 414.802 8.1522 415.05 8.2197C415.286 8.28225 415.571 8.28884 415.893 8.27238C416.185 8.25757 416.482 8.22628 416.786 8.2625C416.867 8.27237 416.99 8.29707 416.984 8.31189C416.978 8.33493 416.897 8.36786 416.817 8.37774C416.247 8.44523 415.621 8.44358 415.019 8.47485C414.939 8.47979 414.833 8.46168 414.753 8.44851C414.579 8.41888 414.412 8.38432 414.244 8.35304C413.941 8.36292 413.631 8.3662 413.333 8.38596C413.104 8.40077 412.93 8.39914 412.763 8.35963C412.608 8.32342 412.441 8.27896 412.255 8.26744C412.069 8.25592 411.852 8.28061 411.647 8.29049C411.443 8.30036 411.207 8.29542 411.046 8.32175C410.885 8.34809 410.785 8.40571 410.68 8.45181C410.562 8.50284 410.401 8.51931 410.165 8.52425C409.949 8.52918 409.775 8.52259 409.614 8.4765C409.546 8.45675 409.453 8.44193 409.36 8.42876C409.273 8.41723 409.174 8.39912 409.093 8.40241C408.169 8.44027 407.252 8.48144 406.328 8.52095C405.87 8.5407 405.876 8.54069 404.921 8.44357C404.835 8.43534 404.729 8.42382 404.642 8.42711C404.128 8.44686 403.62 8.46991 403.105 8.49296C402.584 8.516 402.591 8.51271 401.704 8.409C401.543 8.38925 401.307 8.41559 401.115 8.4123C400.712 8.40407 400.514 8.2658 400.043 8.29214C399.64 8.31518 399.218 8.32012 398.815 8.34975C398.45 8.37608 398.239 8.31848 397.991 8.27403C397.904 8.25921 397.811 8.22629 397.737 8.22958C396.813 8.2658 395.896 8.30695 394.668 8.31189C394.365 8.31189 394.501 8.34646 394.699 8.35798C394.985 8.37609 395.078 8.34152 394.923 8.27568C394.811 8.22959 394.65 8.20652 394.52 8.21805C394.451 8.22463 394.365 8.25592 394.668 8.31189C394.991 8.37444 394.972 8.409 395.028 8.42876C395.164 8.47649 395.357 8.49625 395.555 8.48966C395.865 8.47814 396.169 8.46168 396.479 8.45181C396.565 8.44851 396.671 8.46004 396.751 8.47321C397.433 8.57527 397.439 8.58186 398.165 8.54235C398.394 8.53083 398.561 8.53083 398.741 8.5621C398.989 8.6049 399.169 8.67732 399.547 8.65428C400.049 8.623 400.564 8.60491 401.078 8.5868C401.159 8.58351 401.245 8.61314 401.338 8.6263C401.592 8.66581 401.778 8.73989 402.157 8.70861C402.448 8.68392 402.764 8.67732 403.074 8.67238C403.155 8.67074 403.279 8.69708 403.316 8.71848C403.39 8.75634 403.297 8.80079 403.086 8.83207C403 8.84524 402.882 8.84194 402.783 8.84688C402.374 8.86499 401.964 8.88473 401.555 8.89955C401.338 8.90778 401.134 8.93248 401.109 8.99339C401.09 9.03454 401.314 9.07075 401.524 9.06746C401.834 9.06252 402.144 9.04935 402.442 9.02795C402.969 8.99174 403.427 9.00161 403.855 9.10532C404.159 9.17774 404.14 9.15142 404.463 9.36542C404.543 9.41974 404.785 9.42467 404.996 9.42138C405.504 9.41315 405.74 9.43785 405.696 9.48888C405.64 9.55143 405.461 9.57117 405.231 9.5794C404.822 9.59257 404.413 9.61398 404.004 9.63209C403.905 9.63703 403.793 9.6469 403.7 9.6436C403.607 9.64031 403.52 9.62056 403.44 9.60575C403.266 9.57447 403.117 9.52672 402.931 9.5152C402.746 9.50368 402.529 9.52837 402.324 9.53825C402.119 9.54648 401.902 9.57117 401.717 9.55965C401.531 9.54813 401.376 9.49875 401.208 9.46912C401.128 9.45431 401.028 9.43125 400.948 9.43289C400.539 9.44606 400.13 9.46747 399.721 9.48393C399.218 9.50533 399.218 9.50533 398.611 9.40327C398.437 9.37364 398.258 9.3753 398.028 9.38846C397.532 9.4148 397.526 9.40985 396.621 9.31438C396.534 9.3045 396.429 9.29298 396.342 9.29792C395.418 9.33578 394.501 9.37693 393.584 9.41644C392.796 9.451 392.796 9.45102 392.362 9.61563C392.04 9.73745 392.034 9.73744 392.35 9.79341C392.604 9.8395 392.833 9.90699 393.112 9.93168C393.373 9.95472 393.695 9.88065 393.98 9.95637C394.123 9.99423 394.309 10.0354 394.489 10.042C394.774 10.0502 395.078 10.0025 395.35 10.0749C395.487 10.1111 395.691 10.149 395.865 10.1506C396.169 10.1539 396.479 10.1276 396.782 10.116C396.875 10.1128 396.981 10.1128 397.067 10.121C397.16 10.1309 397.241 10.1506 397.321 10.1671C397.569 10.2231 397.836 10.2494 398.158 10.2214C398.685 10.1753 399.156 10.1984 399.566 10.3037C399.621 10.3185 399.758 10.3202 399.844 10.3136C400.068 10.2971 400.26 10.2955 400.427 10.3268C400.495 10.3399 400.594 10.363 400.582 10.3778C400.563 10.4025 400.489 10.4354 400.409 10.4436C399.826 10.4996 399.2 10.5062 398.598 10.5358C398.518 10.5391 398.419 10.5177 398.338 10.5029C398.165 10.4732 398.016 10.4239 397.83 10.4124C397.644 10.4008 397.427 10.4222 397.222 10.4305C397.018 10.4387 396.801 10.4634 396.615 10.4535C396.429 10.442 396.255 10.4008 396.107 10.3646C395.933 10.3235 395.766 10.3185 395.536 10.335C395.239 10.3564 394.929 10.3597 394.625 10.3712C394.458 10.3399 394.29 10.3053 394.117 10.2757C394.036 10.2609 393.937 10.2428 393.85 10.2444C393.441 10.2576 393.032 10.2774 392.623 10.2955C392.214 10.3136 392.214 10.3136 391.519 10.2115C391.439 10.2 391.333 10.1868 391.247 10.1901C390.732 10.2099 390.224 10.2346 389.709 10.2543C389.511 10.2625 389.331 10.2395 389.17 10.1951C389.015 10.1506 388.829 10.1259 388.637 10.1341C387.819 10.1687 387 10.2016 386.182 10.2428C385.854 10.2593 385.575 10.2444 385.351 10.1852C385.091 10.1177 384.8 10.1342 384.496 10.1473C383.808 10.1803 383.802 10.1786 383.362 10.0946C383.275 10.0782 383.188 10.0469 383.108 10.0485C382.395 10.0732 381.676 10.0963 380.969 10.1358C380.597 10.1572 380.399 10.0996 380.151 10.0568C380.064 10.042 379.971 10.0107 379.897 10.014C379.382 10.0321 378.867 10.0486 378.365 10.0815C377.863 10.1144 377.671 9.96132 377.293 9.96296C376.778 9.96461 376.27 10.0025 375.762 10.0255C375.353 10.0436 374.944 10.0617 374.535 10.0798C374.125 10.0979 373.716 10.1127 373.307 10.1341C373.09 10.1457 372.929 10.1309 372.749 10.0897C372.52 10.0354 372.247 9.99259 371.999 9.94321C371.621 9.87243 371.621 9.87242 371.162 9.89217C371.063 9.89711 370.958 9.90039 370.859 9.90533C370.109 9.94155 370.109 9.93827 369.154 9.83456C369.111 9.82962 368.999 9.84774 368.956 9.8609C368.825 9.9037 368.708 9.94979 368.59 9.99423C368.423 9.96789 368.218 9.95308 368.106 9.91522C367.79 9.80822 367.294 9.95472 366.972 9.84937C366.854 9.80986 366.65 9.77529 366.464 9.76542C366.271 9.75554 366.054 9.77859 365.856 9.78846C365.342 9.81316 365.342 9.81151 364.901 9.95802C364.678 10.0305 364.356 10.0173 364.065 10.0337C363.761 10.0518 363.47 10.0617 363.215 9.99423C362.986 9.93332 362.707 9.91851 362.379 9.93827C361.976 9.96296 361.56 9.97777 361.151 9.99258C361.064 9.99588 360.959 9.98765 360.872 9.97777C359.924 9.88065 359.924 9.87901 359.465 9.90041C359.26 9.91029 359.05 9.91357 358.851 9.92838C358.517 9.95472 358.263 9.92015 358.021 9.86748C357.94 9.85101 357.847 9.81975 357.767 9.8214C357.357 9.82963 356.955 9.84444 356.552 9.85926C356.242 9.87078 355.932 9.87736 355.634 9.90041C355.138 9.93827 354.897 9.83126 354.556 9.78187C354.047 9.80327 353.533 9.81809 353.025 9.84772C352.789 9.86089 352.634 9.85596 352.454 9.81646C352.225 9.76707 352.014 9.7111 351.642 9.7358C351.146 9.76872 350.626 9.78024 350.117 9.8C349.776 9.74897 349.528 9.64525 349.039 9.68311C348.741 9.70615 348.425 9.71109 348.121 9.72426C347.712 9.74237 347.303 9.75884 346.894 9.7786C346.454 9.79835 346.46 9.79341 345.784 9.69629C345.394 9.63868 344.991 9.70287 344.594 9.71275C344.284 9.72098 344.129 9.7967 344.204 9.89382C344.278 9.99094 344.111 10.0667 343.825 10.0798C343.113 10.1111 342.393 10.144 341.681 10.172C341.594 10.1753 341.488 10.1638 341.408 10.1523C340.645 10.0485 340.645 10.0502 340.304 10.065C339.796 10.0897 339.275 10.1029 338.773 10.1341C338.426 10.1555 338.172 10.121 337.949 10.065C337.775 10.0222 337.614 10.0123 337.391 10.0222C334.936 10.1325 332.481 10.2346 330.033 10.3482C329.667 10.3646 329.457 10.3169 329.209 10.2724C329.122 10.2576 329.041 10.2263 328.954 10.2263C328.75 10.2263 328.545 10.2412 328.341 10.251C327.423 10.2905 326.506 10.3383 325.582 10.3679C325.192 10.3811 325.086 10.4568 324.919 10.5194C324.789 10.5671 324.64 10.5868 324.411 10.5934C324.188 10.6 324.026 10.5918 323.853 10.549C323.63 10.493 323.375 10.4584 323.028 10.4815C322.625 10.5078 322.216 10.5194 321.801 10.5375C321.59 10.5457 321.429 10.5753 321.361 10.6346C321.348 10.6445 321.479 10.6692 321.553 10.684C321.801 10.7334 322.036 10.791 322.315 10.8255C322.601 10.8601 322.91 10.8206 323.208 10.8107C323.313 10.8074 323.413 10.7975 323.512 10.7992C323.605 10.8008 323.716 10.8091 323.785 10.8239C324.107 10.898 324.448 10.949 324.894 10.9045C325.278 10.9259 325.477 11.0626 325.967 11.0264C326.264 11.005 326.574 10.9951 326.884 10.9869C326.965 10.9852 327.051 11.0148 327.138 11.0297C327.386 11.0708 327.584 11.1366 327.956 11.1087C328.353 11.079 328.775 11.0741 329.178 11.0511C329.401 11.0379 329.562 11.0494 329.735 11.0922C329.959 11.1465 330.213 11.1877 330.56 11.1613C330.857 11.1383 331.174 11.1333 331.477 11.1185C331.874 11.1004 331.874 11.1021 332.581 11.2041C332.661 11.2157 332.767 11.2288 332.853 11.2255C333.368 11.2058 333.876 11.1811 334.391 11.1613C334.589 11.1531 334.781 11.1745 334.918 11.2222C334.973 11.242 334.955 11.2749 334.973 11.3029C333.951 11.3474 332.928 11.3852 331.911 11.4395C331.527 11.4609 331.353 11.3934 331.099 11.3556C331.012 11.3424 330.919 11.3144 330.839 11.3177C330.12 11.3457 329.407 11.3753 328.694 11.4115C328.471 11.4231 328.304 11.4165 328.136 11.3687C327.708 11.242 327.188 11.3111 326.704 11.3292C326.332 11.3424 326.215 11.3934 326.258 11.5021C326.314 11.6305 326.537 11.67 327.107 11.647C327.312 11.6387 327.516 11.6272 327.721 11.6206C327.919 11.614 328.099 11.6354 328.26 11.6799C328.415 11.7243 328.601 11.7474 328.793 11.7408C329.202 11.726 329.618 11.7112 330.014 11.6865C330.343 11.6667 330.616 11.6832 330.845 11.7441C331.099 11.8116 331.397 11.7967 331.694 11.7819C332.389 11.749 332.395 11.7507 332.829 11.833C332.915 11.8494 333.002 11.8807 333.083 11.8791C333.796 11.8544 334.515 11.833 335.215 11.7935C335.581 11.7737 335.792 11.8264 336.034 11.8692C336.12 11.884 336.207 11.9169 336.288 11.9136C336.802 11.8955 337.317 11.8774 337.819 11.8461C338.054 11.8313 338.197 11.8412 338.389 11.8807C338.848 11.9778 338.86 11.9745 339.511 11.9432C339.709 11.9334 339.926 11.9153 340.112 11.9284C340.298 11.9416 340.447 11.9894 340.621 12.019C340.701 12.0322 340.8 12.0502 340.887 12.047C341.296 12.0338 341.705 12.014 342.114 11.9959C342.499 11.9778 342.499 11.9795 343.218 12.0815C343.509 12.1243 343.813 12.0881 344.104 12.0749C344.421 12.0601 344.706 12.0601 344.947 12.1243C345.189 12.1885 345.481 12.1852 345.791 12.1721C346.082 12.1589 346.379 12.1227 346.677 12.1671C347.359 12.2692 347.359 12.2708 347.78 12.2511C348.394 12.2231 349.001 12.1968 349.621 12.1721C349.702 12.1688 349.807 12.1885 349.888 12.2017C350.061 12.2313 350.21 12.2807 350.396 12.2922C350.582 12.3054 350.799 12.2856 350.997 12.2758C351.636 12.2445 351.679 12.233 352.107 12.3416C352.467 12.4305 352.913 12.3021 353.248 12.4042C353.44 12.4618 353.7 12.5079 354.06 12.4799C354.357 12.4568 354.667 12.4503 354.977 12.4371C355.467 12.4157 355.467 12.4173 356.087 12.5161C356.167 12.5293 356.273 12.5457 356.353 12.5424C356.762 12.5293 357.178 12.5178 357.575 12.4881C358.039 12.4536 358.337 12.5161 358.684 12.577C358.957 12.6248 359.279 12.5852 359.571 12.5688C359.887 12.5523 360.172 12.5573 360.407 12.6215C360.655 12.6873 360.947 12.6791 361.257 12.6659C361.548 12.6544 361.845 12.6165 362.143 12.6626C362.781 12.7647 362.781 12.7647 363.246 12.7449C363.656 12.7268 364.065 12.7071 364.474 12.6939C364.554 12.6906 364.654 12.712 364.734 12.7268C364.908 12.7564 365.056 12.8058 365.242 12.8174C365.428 12.8289 365.645 12.8075 365.85 12.7992C366.054 12.791 366.271 12.7663 366.457 12.7762C366.643 12.7861 366.817 12.8272 366.966 12.8634C367.139 12.9062 367.3 12.9112 367.536 12.8947C367.834 12.8733 368.143 12.8684 368.447 12.8569C368.615 12.8881 368.788 12.9194 368.949 12.954C369.117 12.9902 369.296 12.9869 369.526 12.9754C370.288 12.9359 370.294 12.9408 370.933 13.0429C371.224 13.089 371.528 13.0511 371.819 13.0396C372.129 13.0264 372.421 13.0198 372.662 13.0857C372.898 13.1482 373.189 13.1564 373.499 13.1367C373.698 13.1235 373.908 13.1153 374.113 13.1104C374.206 13.1087 374.318 13.1153 374.386 13.1285C374.714 13.1976 375.037 13.2602 375.489 13.2157C375.886 13.2289 376.084 13.3639 376.562 13.3375C376.964 13.3145 377.386 13.3095 377.783 13.2799C378.148 13.2536 378.409 13.2997 378.595 13.3573C378.93 13.4593 379.401 13.3211 379.735 13.4215C379.928 13.4791 380.175 13.5252 380.547 13.5005C380.956 13.4742 381.087 13.5087 381.204 13.6124C381.273 13.6717 381.26 13.7194 381.136 13.7655C381.012 13.8133 380.876 13.805 380.678 13.7507C380.448 13.6898 380.176 13.6783 379.847 13.6914C379.525 13.7046 379.326 13.619 379.06 13.5861C378.793 13.5515 378.477 13.6091 378.198 13.5647C377.541 13.461 377.541 13.461 377.095 13.4807C376.791 13.4939 376.475 13.5005 376.177 13.5236C375.824 13.5515 375.595 13.5005 375.353 13.4544C375.266 13.4379 375.179 13.4067 375.105 13.4083C374.392 13.433 373.673 13.4561 372.966 13.4972C372.594 13.5186 372.396 13.4593 372.148 13.4182C372.061 13.4034 371.968 13.3737 371.894 13.377C371.28 13.4001 370.673 13.4297 370.059 13.4577C369.941 13.5021 369.811 13.5449 369.699 13.5927C369.582 13.6421 369.421 13.6635 369.185 13.6618C368.794 13.6618 368.41 13.731 368.02 13.6437C367.617 13.5548 367.586 13.5598 367.195 13.5812C366.699 13.6091 366.172 13.6026 365.707 13.6668C365.627 13.6783 365.54 13.7095 365.54 13.7326C365.534 13.7474 365.664 13.7688 365.745 13.782C366.017 13.8215 366.333 13.7639 366.606 13.805C366.786 13.8314 366.935 13.8709 367.115 13.8989C367.189 13.9104 367.3 13.9087 367.4 13.9071C367.505 13.9054 367.604 13.8939 367.703 13.8956C367.796 13.8972 367.896 13.9071 367.97 13.9219C368.311 13.9845 368.67 14.0421 368.974 14.1162C369.272 14.1886 369.551 14.1392 369.848 14.1359C371.038 14.2511 371.038 14.2528 371.838 14.2166C372.036 14.2083 372.241 14.1985 372.446 14.2001C372.532 14.2001 372.613 14.2297 372.7 14.2462C372.948 14.2956 373.183 14.34 373.53 14.3137C373.828 14.2906 374.144 14.2857 374.448 14.2709C374.857 14.2528 374.857 14.2528 375.551 14.3565C375.725 14.3828 375.911 14.3795 376.134 14.3664C376.326 14.3548 376.524 14.3795 376.661 14.4273C376.716 14.447 376.698 14.4799 376.717 14.5079C376.103 14.5343 375.483 14.5524 374.888 14.5919C374.504 14.6166 374.33 14.5458 374.076 14.5079C373.989 14.4948 373.896 14.4668 373.815 14.4701C373.208 14.4948 372.601 14.5227 371.993 14.5557C371.919 14.559 371.826 14.5968 371.819 14.6199C371.807 14.6627 371.962 14.7038 372.185 14.7022C372.483 14.7005 372.774 14.6725 373.041 14.74C373.264 14.7993 373.543 14.8256 373.871 14.7993C374.07 14.7845 374.28 14.7845 374.479 14.7713C375.006 14.7318 375.483 14.74 375.88 14.852C376.183 14.8816 376.481 14.8536 376.772 14.8388C376.989 14.8273 377.2 14.8158 377.355 14.847C377.684 14.9129 378.006 14.9787 378.458 14.9343C378.948 14.9804 379.32 15.0775 379.729 15.1565C379.921 15.1944 380.07 15.2158 380.293 15.1911C380.386 15.1812 380.498 15.1812 380.597 15.1763C380.802 15.168 381.018 15.1433 381.204 15.1532C381.39 15.1647 381.545 15.2125 381.713 15.2421C381.793 15.2569 381.886 15.2816 381.967 15.28C382.277 15.2717 382.581 15.2553 382.884 15.2421C383.188 15.2306 383.492 15.2191 383.796 15.2075C384.05 15.2503 384.31 15.2931 384.564 15.3359C384.973 15.3178 385.383 15.2997 385.786 15.2833C386.238 15.2635 386.238 15.2652 386.889 15.3672C387.18 15.4133 387.49 15.3837 387.769 15.3623C388.234 15.3277 388.544 15.3903 388.873 15.4561C388.941 15.4693 389.065 15.4775 389.145 15.4709C389.468 15.4479 389.746 15.466 389.982 15.5269C390.149 15.5697 390.317 15.5894 390.521 15.5812C391.234 15.5499 391.947 15.517 392.66 15.489C392.747 15.4857 392.846 15.5005 392.926 15.5137C393.559 15.6141 393.565 15.6191 394.03 15.5927C394.445 15.5697 394.83 15.5598 395.158 15.6503C395.226 15.6701 395.332 15.6981 395.406 15.6964C395.914 15.68 396.429 15.6619 396.931 15.6339C397.16 15.6207 397.322 15.6257 397.501 15.6635C397.731 15.7113 397.935 15.7689 398.313 15.7475C399.361 15.6866 399.367 15.6964 400.607 15.81C400.694 15.8182 400.811 15.8051 400.911 15.7985C401.121 15.782 401.276 15.8051 401.462 15.8429C401.878 15.9285 401.89 15.9236 402.287 15.9055C402.591 15.8907 402.907 15.8874 403.204 15.8627C403.663 15.8265 403.967 15.8907 404.308 15.9516C404.58 15.9993 404.896 15.9598 405.188 15.945C405.504 15.9285 405.789 15.9335 406.025 15.996C406.186 16.0388 406.359 16.0619 406.564 16.0537C407.277 16.024 407.99 15.9911 408.703 15.9615C408.789 15.9582 408.895 15.9713 408.975 15.9829C409.682 16.0849 409.682 16.0899 410.383 16.052C410.606 16.0405 410.792 16.0372 410.959 16.0718C411.12 16.1047 411.294 16.136 411.461 16.1672C411.765 16.1557 412.075 16.1524 412.372 16.1327C412.602 16.1179 412.763 16.1244 412.943 16.159C413.178 16.2035 413.376 16.2808 413.748 16.2429C413.941 16.2248 414.164 16.2298 414.356 16.2133C414.585 16.1919 414.74 16.2051 414.92 16.2479C415.143 16.2989 415.372 16.3516 415.732 16.3253C416.129 16.2956 416.55 16.2907 416.953 16.2676C417.176 16.2545 417.331 16.2676 417.511 16.3104C417.734 16.3648 417.989 16.3993 418.336 16.3779C419.042 16.3368 419.048 16.345 419.736 16.4487C419.91 16.475 420.096 16.4718 420.319 16.4586C420.511 16.4471 420.71 16.4718 420.846 16.5195C420.976 16.5722 420.964 16.6051 420.976 16.6331ZM365.738 1.78661C365.534 1.79485 365.329 1.80472 365.032 1.66151C365.013 1.63681 365.026 1.60719 364.982 1.58579C364.883 1.54135 364.728 1.51007 364.542 1.50513C364.207 1.49855 363.804 1.55451 363.81 1.59731C363.817 1.63352 363.922 1.66479 364.127 1.69442C364.213 1.70594 364.282 1.7257 364.362 1.73887C364.598 1.77673 364.784 1.85082 365.125 1.81296C365.063 1.7109 365.094 1.76193 365.125 1.81296C365.094 1.87551 365.187 1.91996 365.41 1.93807C365.472 1.943 365.565 1.9397 365.614 1.92983C365.807 1.89361 365.838 1.84424 365.695 1.71419C365.67 1.73559 365.689 1.77344 365.745 1.78332C365.8 1.7932 365.937 1.78498 366.005 1.77345C366.178 1.74218 366.265 1.70102 366.222 1.66645C366.197 1.64834 366.079 1.6253 366.005 1.6253C365.875 1.6253 365.757 1.66151 365.738 1.78661ZM415.862 20.8768C415.41 20.9081 414.889 20.8966 414.437 20.9608C414.356 20.9723 414.275 21.0019 414.269 21.025C414.263 21.0398 414.387 21.0612 414.461 21.0727C414.629 21.0991 414.815 21.0908 415.032 21.0826C415.36 21.0711 415.552 21.1468 415.806 21.1846C415.887 21.1962 415.992 21.2044 416.079 21.2011C416.581 21.1813 417.077 21.16 417.579 21.1369C417.666 21.132 417.759 21.1204 417.834 21.1056C418.081 21.0579 418.057 21.0266 417.815 20.9904C417.548 20.9509 417.338 20.885 417.065 20.8538C416.674 20.8093 416.278 20.8686 415.862 20.8768ZM380.659 22.0785C380.355 22.0917 380.058 22.1048 379.754 22.118C379.655 22.1229 379.549 22.1246 379.456 22.1312C379.264 22.1427 379.122 22.1773 379.029 22.2316C379.171 22.2744 379.345 22.2991 379.537 22.2941C379.841 22.2843 380.138 22.2629 380.442 22.2579C380.771 22.2513 380.963 22.3254 381.217 22.3633C381.297 22.3748 381.397 22.3764 381.49 22.3781C381.948 22.3847 382.227 22.2991 382.141 22.1789C382.079 22.0851 381.843 22.0291 381.558 22.0406C381.26 22.0522 380.957 22.0653 380.659 22.0785ZM417.982 18.4438C418.057 18.4158 418.137 18.3961 418.174 18.3714C418.286 18.2875 418.243 18.2249 418.038 18.159C417.79 18.0784 417.486 18.1327 417.207 18.1409C417.139 18.1426 417.065 18.1772 417.028 18.1986C417.003 18.2134 417.003 18.2447 417.04 18.2529C417.344 18.3187 417.666 18.3796 417.982 18.4438ZM364.207 13.5812C363.91 13.5943 363.606 13.6042 363.308 13.6223C363.234 13.6273 363.166 13.6585 363.122 13.6799C363.042 13.7194 363.129 13.7737 363.383 13.7787C363.674 13.7853 363.978 13.7573 364.282 13.7441C364.666 13.7277 364.895 13.6668 364.753 13.6141C364.616 13.563 364.43 13.5532 364.207 13.5812ZM37.9059 10.0634C38.1043 10.0551 38.3088 10.0486 38.5072 10.037C38.6931 10.0255 38.8358 9.9893 38.9288 9.93497C38.7738 9.89217 38.6002 9.86913 38.4081 9.87407C38.1043 9.88394 37.8068 9.89711 37.5093 9.91357C37.3233 9.92345 37.1436 9.95966 37.1002 10.0156C37.0568 10.0584 37.472 10.0831 37.9059 10.0634ZM337.992 9.80986C338.073 9.82468 338.153 9.85431 338.234 9.85431C338.432 9.85431 338.637 9.84443 338.823 9.82797C338.904 9.82139 338.965 9.79176 339.003 9.76871C339.027 9.7539 339.021 9.72756 338.984 9.7144C338.804 9.63538 338.085 9.66336 337.967 9.7539C337.955 9.77036 337.986 9.79176 337.992 9.80986ZM318.435 0.795639C318.453 0.821977 318.46 0.848312 318.485 0.87465C318.534 0.924034 318.67 0.960257 318.869 0.984949C319.024 0.943795 319.104 0.897711 319.098 0.848327C319.092 0.821989 319.073 0.795634 319.049 0.769295C318.999 0.719911 318.863 0.683709 318.664 0.659017C318.509 0.698525 318.435 0.744609 318.435 0.795639ZM432.308 22.3649C432.252 22.3863 432.196 22.4077 432.134 22.4275C432.302 22.4752 432.457 22.49 432.574 22.4637C432.649 22.4472 432.692 22.4225 432.748 22.4011C432.581 22.3534 432.432 22.3402 432.308 22.3649ZM428.452 22.5888C428.533 22.6036 428.607 22.6234 428.694 22.6332C428.837 22.6497 428.967 22.6217 429.066 22.5625C428.985 22.5476 428.911 22.5279 428.824 22.518C428.682 22.5015 428.551 22.5295 428.452 22.5888ZM430.894 22.2876C430.851 22.3271 430.938 22.36 431.167 22.388C431.223 22.3666 431.297 22.3468 431.335 22.3238C431.397 22.2859 431.291 22.2513 431.068 22.225C431.006 22.2448 430.95 22.2662 430.894 22.2876ZM417.809 20.513C417.765 20.5525 417.852 20.5855 418.081 20.6134C418.137 20.592 418.212 20.5723 418.249 20.5492C418.311 20.5114 418.205 20.4768 417.982 20.4505C417.92 20.4702 417.865 20.4916 417.809 20.513ZM399.981 8.86499C399.925 8.88639 399.869 8.90779 399.807 8.92754C399.975 8.97528 400.13 8.99009 400.247 8.96375C400.322 8.94729 400.365 8.9226 400.421 8.9012C400.254 8.85346 400.105 8.84029 399.981 8.86499ZM382.903 2.6854C383.052 2.69692 383.176 2.67388 383.281 2.61298C383.201 2.59816 383.126 2.5784 383.039 2.56853C382.897 2.55207 382.767 2.58006 382.667 2.63932C382.748 2.65578 382.829 2.67058 382.903 2.6854ZM373.834 2.29856C373.778 2.31996 373.723 2.34136 373.661 2.36111C373.828 2.40885 373.983 2.42366 374.101 2.39732C374.175 2.38086 374.218 2.35617 374.274 2.33477C374.107 2.28703 373.958 2.27551 373.834 2.29856ZM312.335 0.793992C312.28 0.815391 312.224 0.836792 312.162 0.856545C312.329 0.904283 312.484 0.919094 312.602 0.892755C312.676 0.876294 312.72 0.851601 312.775 0.830202C312.608 0.782464 312.459 0.770946 312.335 0.793992ZM6.11819 14.1869C6.0376 14.1721 5.95709 14.1573 5.8827 14.1408C5.70294 14.1853 5.64716 14.2264 5.74635 14.2577C5.80833 14.2775 5.90125 14.289 5.98183 14.3038C6.1678 14.2594 6.21117 14.2198 6.11819 14.1869Z" fill="#FFE492"/>
</svg>
