<svg width="299" height="26" viewBox="0 0 299 26" fill="none" xmlns="http://www.w3.org/2000/svg">
<path d="M280.718 13.5555C280.309 13.5769 279.895 13.5916 279.494 13.6237C279.234 13.6437 279.122 13.5849 278.949 13.5542C278.891 13.5435 278.829 13.5221 278.775 13.5248C278.37 13.5462 277.965 13.5702 277.56 13.5943C277.436 13.6464 277.357 13.7159 277.167 13.7413C276.981 13.7653 276.762 13.7653 276.555 13.7773C276.283 13.792 276.01 13.8067 275.737 13.8201C275.601 13.8268 275.489 13.8522 275.444 13.9003C275.435 13.9083 275.526 13.9283 275.576 13.9404C275.741 13.9804 275.902 14.0259 276.084 14.0566C276.258 14.086 276.473 14.0379 276.659 14.0753C277.076 14.1595 277.08 14.1582 277.399 14.1421C277.672 14.1274 277.944 14.1114 278.217 14.1007C278.271 14.098 278.333 14.1181 278.391 14.1288C278.564 14.1582 278.676 14.225 278.932 14.1996C279.127 14.1795 279.341 14.1755 279.544 14.1648C279.713 14.2036 279.871 14.2477 280.052 14.2784C280.222 14.3078 280.272 14.3305 280.181 14.3693C280.098 14.4054 279.982 14.4201 279.829 14.4227C279.693 14.4241 279.556 14.4361 279.42 14.4428C279.35 14.4468 279.284 14.4495 279.217 14.4535C278.957 14.4682 278.957 14.4682 278.482 14.3826C278.296 14.3492 278.085 14.396 277.907 14.3639C277.787 14.3426 277.684 14.3105 277.568 14.2878C277.519 14.2784 277.44 14.2771 277.378 14.2798C277.171 14.2891 276.965 14.2958 276.766 14.3132C276.626 14.3252 276.543 14.3626 276.56 14.4C276.564 14.4147 276.663 14.4361 276.721 14.4374C276.853 14.4401 276.994 14.4214 277.122 14.4307C277.246 14.4401 277.374 14.4668 277.465 14.4962C277.651 14.5577 277.862 14.5029 278.039 14.5189C278.225 14.5363 278.378 14.5898 278.556 14.6218C278.601 14.6298 278.688 14.6165 278.759 14.6125C278.961 14.6031 279.164 14.5951 279.366 14.5858C279.536 14.6245 279.718 14.6592 279.871 14.7033C280.148 14.7835 280.445 14.8142 280.805 14.7755C281.007 14.7541 281.206 14.7621 281.367 14.8142C281.532 14.8677 281.722 14.8623 281.933 14.8517C282.127 14.841 282.326 14.8116 282.524 14.849C282.954 14.9318 282.958 14.9358 283.467 14.9038C283.62 14.8944 283.735 14.8917 283.851 14.9225C283.959 14.9505 284.074 14.9746 284.186 15.0013C284.389 14.992 284.595 14.9826 284.798 14.9719C285.058 14.9572 285.203 14.9759 285.265 15.0507C285.302 15.0962 285.319 15.1376 285.409 15.1683C285.517 15.2057 285.633 15.2044 285.79 15.1937C285.939 15.1844 286.046 15.1697 286.108 15.1216C286.133 15.1015 286.182 15.0828 286.228 15.0668C286.265 15.0548 286.323 15.0361 286.356 15.0387C286.418 15.0441 286.501 15.0588 286.521 15.0761C286.724 15.2378 286.724 15.2392 286.931 15.2859C287.158 15.338 287.394 15.3848 287.6 15.4436C287.786 15.4957 287.972 15.473 288.175 15.473C288.328 15.473 288.427 15.5077 288.415 15.5425C288.406 15.5625 288.348 15.5919 288.299 15.5946C287.894 15.6213 287.485 15.644 287.075 15.6627C287.026 15.6654 286.964 15.6413 286.906 15.6293C286.79 15.6053 286.687 15.5679 286.563 15.5598C286.439 15.5518 286.294 15.5719 286.158 15.5785C286.021 15.5852 285.877 15.6026 285.753 15.5919C285.629 15.5812 285.529 15.5425 285.414 15.5171C285.36 15.5051 285.286 15.4877 285.24 15.4917C284.938 15.5238 284.715 15.4797 284.5 15.4209C284.455 15.4089 284.376 15.4008 284.318 15.4035C283.839 15.4262 283.363 15.4529 282.884 15.4783C282.69 15.489 282.532 15.4423 282.491 15.3634C282.47 15.3193 282.429 15.2752 282.429 15.2311C282.429 15.151 282.202 15.1069 282.037 15.1162C281.764 15.1296 281.487 15.1403 281.218 15.1603C280.999 15.1763 280.813 15.1603 280.664 15.1122C280.491 15.0574 280.292 15.0681 280.094 15.0828C279.945 15.0935 279.904 15.1376 279.912 15.2485C279.92 15.338 279.85 15.3661 279.581 15.3808C279.242 15.3995 278.899 15.4182 278.556 15.4329C278.502 15.4356 278.44 15.4129 278.387 15.4008C278.271 15.3768 278.167 15.338 278.043 15.33C277.919 15.3207 277.775 15.3407 277.638 15.3487C277.502 15.3554 277.357 15.3741 277.233 15.3648C277.109 15.3554 277.006 15.3153 276.894 15.2899C276.841 15.2779 276.774 15.2605 276.721 15.2632C276.448 15.2739 276.175 15.2899 275.902 15.3046C275.596 15.3207 275.596 15.3207 275.162 15.2378C274.964 15.2004 274.766 15.2298 274.571 15.2405C274.365 15.2512 274.17 15.2565 274.009 15.2031C273.902 15.1683 273.782 15.147 273.654 15.1536C273.311 15.1697 272.972 15.1897 272.629 15.2058C272.571 15.2084 272.492 15.2017 272.447 15.1897C272.228 15.1336 272.013 15.0895 271.707 15.1176C271.442 15.1416 271.157 15.1429 270.892 15.1657C270.748 15.1777 270.682 15.2204 270.711 15.2539C270.727 15.2712 270.814 15.2913 270.872 15.2913C271.004 15.2926 271.149 15.2726 271.273 15.2806C271.529 15.2966 271.657 15.4088 271.992 15.3781C272.19 15.3594 272.397 15.3527 272.604 15.3474C272.657 15.346 272.715 15.3714 272.773 15.3848C272.939 15.4209 273.083 15.4676 273.323 15.4436C273.521 15.4249 273.732 15.4195 273.935 15.4089C274.257 15.3915 274.257 15.3928 274.675 15.4743C274.873 15.5131 275.071 15.4823 275.266 15.473C275.41 15.4663 275.547 15.453 275.663 15.4717C275.84 15.4997 275.968 15.5638 276.187 15.5598C276.394 15.5558 276.597 15.5371 276.803 15.5304C276.932 15.5264 277.051 15.5478 277.155 15.5839C277.262 15.62 277.378 15.636 277.518 15.628C277.721 15.6173 277.928 15.6039 278.134 15.5973C278.192 15.5959 278.258 15.6079 278.312 15.6186C278.428 15.6427 278.539 15.6707 278.651 15.6961C278.854 15.6881 279.06 15.6854 279.259 15.6694C279.412 15.6574 279.519 15.6627 279.643 15.6895C279.8 15.7255 279.928 15.7897 280.185 15.7589C280.313 15.7442 280.462 15.7482 280.59 15.7349C280.747 15.7175 280.854 15.7242 280.966 15.7643C281.177 15.8404 281.441 15.8418 281.714 15.8124C282.012 15.7803 282.235 15.8177 282.458 15.8765C282.694 15.938 282.694 15.9367 282.876 16.085C282.929 16.1277 283.082 16.1478 283.21 16.1398C283.425 16.1264 283.611 16.1331 283.768 16.1838C283.934 16.2386 284.132 16.232 284.335 16.2173C284.603 16.1972 284.872 16.1798 285.091 16.2573C285.199 16.2948 285.314 16.3041 285.459 16.2947C285.868 16.2707 286.282 16.256 286.683 16.2266C286.927 16.2079 287.067 16.2507 287.232 16.2867C287.456 16.3362 287.699 16.3803 287.699 16.4858C287.699 16.5032 287.757 16.5232 287.807 16.5366C287.914 16.5647 288.03 16.5887 288.142 16.6154C288.307 16.6555 288.468 16.6889 288.696 16.6676C288.894 16.6502 289.105 16.6448 289.307 16.6328C289.51 16.6208 289.696 16.6141 289.878 16.6649C290.089 16.7223 290.312 16.7771 290.552 16.8199C290.721 16.8506 290.944 16.7985 291.126 16.8399C291.238 16.8653 291.345 16.8947 291.465 16.9161C291.515 16.9254 291.593 16.9188 291.659 16.9161C291.796 16.9107 291.936 16.9067 292.069 16.8934C292.222 16.8787 292.337 16.8814 292.453 16.9121C292.561 16.9402 292.668 16.9789 292.792 16.9869C292.978 16.9989 293.185 16.9455 293.371 17.007C293.466 17.0377 293.586 17.0671 293.71 17.0764C293.834 17.0858 293.978 17.0657 294.111 17.0671C294.168 17.0671 294.239 17.0885 294.272 17.1058C294.292 17.1152 294.264 17.1406 294.235 17.1539C294.197 17.17 294.144 17.1914 294.09 17.194C293.681 17.2181 293.272 17.2381 292.862 17.2608C292.618 17.2742 292.618 17.2742 292.127 17.19C292.011 17.17 291.883 17.174 291.738 17.1833C291.544 17.1954 291.345 17.2181 291.143 17.194C290.878 17.1032 290.552 17.0951 290.204 17.1299C290.06 17.1446 289.927 17.1446 289.82 17.1192C289.593 17.0684 289.353 17.0217 289.15 16.9615C288.993 16.9148 288.919 16.9108 288.853 16.9749C288.832 16.9949 288.811 17.0163 288.816 17.035C288.84 17.1018 288.886 17.1673 288.911 17.2341C288.919 17.2528 288.886 17.2742 288.865 17.2942C288.799 17.3504 288.712 17.3463 288.568 17.2996C288.423 17.2528 288.249 17.2221 288.018 17.2435C287.819 17.2622 287.604 17.2595 287.406 17.2795C287.1 17.3089 286.885 17.2662 286.666 17.2087C286.621 17.1967 286.542 17.19 286.484 17.1927C285.868 17.2234 285.257 17.2582 284.641 17.2889C284.508 17.2956 284.389 17.2755 284.285 17.2395C284.178 17.2034 284.058 17.1847 283.925 17.1914C283.38 17.2194 282.834 17.2448 282.289 17.2795C282.065 17.2942 281.888 17.2769 281.735 17.2301C281.619 17.1954 281.512 17.1847 281.367 17.1887C281.21 17.1927 281.098 17.2061 281.02 17.2448C280.945 17.2822 280.999 17.3049 281.164 17.3343C281.342 17.3664 281.507 17.4078 281.677 17.4452C281.813 17.4399 281.95 17.4292 282.082 17.4305C282.14 17.4305 282.194 17.4546 282.251 17.4679C282.417 17.5067 282.57 17.5454 282.805 17.5241C283.004 17.5054 283.215 17.5014 283.417 17.4893C283.698 17.4746 283.698 17.4746 284.153 17.5588C284.269 17.5802 284.393 17.5788 284.541 17.5668C284.67 17.5575 284.802 17.5762 284.893 17.6163C284.93 17.6323 284.918 17.659 284.839 17.7472C284.839 17.8127 284.926 17.7833 284.955 17.7405C285 17.6791 284.913 17.659 284.748 17.6924C284.632 17.7165 284.575 17.7512 284.603 17.7793C284.62 17.794 284.699 17.8127 284.839 17.7472C285.203 17.667 285.48 17.6577 285.744 17.6363C285.901 17.6243 286.001 17.6296 286.125 17.6644C286.273 17.7058 286.422 17.7499 286.666 17.7285C286.931 17.7045 287.212 17.7018 287.48 17.6817C287.728 17.663 287.857 17.7218 288.014 17.7566C288.204 17.798 288.415 17.7512 288.588 17.7753C288.77 17.7993 288.898 17.8581 289.109 17.8688C289.415 17.8327 289.609 17.8995 289.841 17.9436C290.023 17.977 290.237 17.9476 290.432 17.9329C290.651 17.9169 290.833 17.9316 290.986 17.9797C291.159 18.0345 291.354 18.0225 291.552 18.0105C292.015 17.9837 292.031 17.9797 292.3 18.0532C292.494 18.1066 292.68 18.0826 292.875 18.0759C293.044 18.112 293.21 18.1507 293.387 18.1828C293.433 18.1908 293.52 18.1775 293.59 18.1735C293.792 18.1628 293.999 18.1521 294.202 18.1414C294.338 18.1347 294.483 18.1147 294.607 18.1227C294.731 18.132 294.834 18.1708 294.946 18.1962C295.057 18.2216 295.173 18.247 295.28 18.2737C295.446 18.3138 295.603 18.3472 295.834 18.3271C296.033 18.3098 296.239 18.3044 296.446 18.2924C296.706 18.2777 296.698 18.2817 297.182 18.3619C297.442 18.406 297.711 18.3525 297.975 18.3472C298.108 18.3445 298.236 18.3592 298.327 18.398C298.364 18.414 298.352 18.4407 298.364 18.4634C297.682 18.4995 296.996 18.5302 296.322 18.5743C296.062 18.5917 295.925 18.5436 295.785 18.5035C295.553 18.4394 295.247 18.5329 295.028 18.4501C294.896 18.4006 294.706 18.3726 294.478 18.3966C294.346 18.41 294.206 18.4086 294.069 18.4207C293.722 18.4501 293.404 18.4514 293.127 18.3592C293.032 18.3271 292.895 18.3098 292.796 18.279C292.68 18.2456 292.569 18.2269 292.432 18.2336C291.816 18.2657 291.205 18.2977 290.593 18.3325C290.539 18.3351 290.485 18.3552 290.44 18.3699C290.324 18.4073 290.361 18.4367 290.547 18.4608C290.609 18.4688 290.659 18.4861 290.717 18.4995C290.829 18.5249 290.932 18.565 291.056 18.5743C291.18 18.5837 291.325 18.565 291.461 18.5583C291.597 18.5516 291.742 18.5316 291.866 18.5396C291.99 18.5489 292.093 18.5877 292.209 18.6117C292.263 18.6238 292.329 18.6438 292.383 18.6425C292.656 18.6345 292.924 18.6198 293.197 18.6077C293.367 18.6438 293.511 18.6959 293.714 18.7079C293.842 18.716 293.978 18.7013 294.111 18.7039C294.168 18.7053 294.243 18.7253 294.272 18.7427C294.288 18.7534 294.235 18.7801 294.193 18.7935C294.036 18.8442 293.821 18.8349 293.627 18.8509C293.416 18.8683 293.226 18.8629 293.065 18.8108C292.957 18.7761 292.837 18.7574 292.705 18.7641C292.362 18.7814 292.023 18.8015 291.68 18.8162C291.622 18.8189 291.552 18.8068 291.498 18.7975C291.064 18.716 291.064 18.7133 290.758 18.7307C290.308 18.7561 290.308 18.756 290.006 18.6852C289.948 18.6719 289.886 18.6465 289.836 18.6478C289.357 18.6692 288.882 18.6906 288.406 18.7213C288.249 18.7307 288.142 18.7307 288.026 18.6959C287.927 18.6665 287.811 18.6331 287.687 18.6251C287.559 18.6171 287.418 18.6371 287.282 18.6438C287.146 18.6505 287.001 18.6679 286.881 18.6572C286.757 18.6465 286.65 18.6091 286.542 18.5824C286.43 18.5543 286.311 18.5556 286.158 18.5663C285.686 18.597 285.682 18.593 285.215 18.5102C285.161 18.5008 285.091 18.4901 285.033 18.4928C284.69 18.5089 284.351 18.5289 284.008 18.5449C283.876 18.5516 283.748 18.5342 283.657 18.4955C283.62 18.4795 283.632 18.4527 283.607 18.4006C283.578 18.3886 283.611 18.41 283.62 18.43C283.682 18.4273 283.756 18.43 283.802 18.4193C283.917 18.3939 283.975 18.3605 283.946 18.3325C283.93 18.3178 283.851 18.2991 283.802 18.2991C283.711 18.2991 283.632 18.3285 283.607 18.4006C283.347 18.4447 283.07 18.4541 282.801 18.4754C282.644 18.4888 282.545 18.4821 282.421 18.4474C282.272 18.4046 282.119 18.3632 281.875 18.3846C281.611 18.4086 281.33 18.4127 281.057 18.4314C280.743 18.4527 280.606 18.3325 280.342 18.3351C280.069 18.3378 279.796 18.3605 279.523 18.3766C279.284 18.3899 279.284 18.3899 278.788 18.3031C278.606 18.271 278.391 18.3178 278.213 18.2844C278.093 18.263 277.99 18.2309 277.874 18.2082C277.824 18.1989 277.746 18.1988 277.684 18.2015C277.341 18.2176 276.994 18.2282 276.663 18.2576C276.287 18.2924 276.002 18.255 275.733 18.1761C275.394 18.1908 275.051 18.1989 274.716 18.2242C274.472 18.2429 274.332 18.1989 274.166 18.1628C274.108 18.1508 274.059 18.1307 273.997 18.1254C273.935 18.12 273.86 18.1307 273.794 18.1347C273.521 18.1494 273.24 18.1561 272.976 18.1802C272.649 18.2109 272.525 18.1013 272.273 18.0879C272.104 18.1534 272.013 18.2429 271.678 18.2496C271.405 18.255 271.132 18.2764 270.859 18.2911C270.723 18.2977 270.587 18.3058 270.45 18.3124C270.231 18.3245 270.128 18.3766 270.173 18.4567C270.198 18.5008 270.219 18.5449 270.239 18.589C270.281 18.6679 270.177 18.7347 270.004 18.744C269.524 18.7694 269.049 18.7961 268.569 18.8188C268.441 18.8255 268.317 18.8028 268.214 18.7667C268.106 18.7307 267.987 18.7146 267.854 18.7213C267.375 18.7467 266.899 18.7734 266.42 18.7961C266.366 18.7988 266.296 18.7854 266.242 18.7748C266.127 18.7507 266.015 18.7227 265.903 18.6973C265.63 18.7093 265.362 18.7173 265.093 18.7333C264.659 18.7574 264.659 18.7587 264.341 18.6852C264.283 18.6719 264.225 18.6465 264.171 18.6478C263.965 18.6532 263.762 18.6665 263.555 18.6786C262.948 18.7133 262.948 18.7133 262.77 18.6732C262.609 18.6358 262.464 18.5904 262.22 18.6117C261.956 18.6358 261.675 18.6438 261.402 18.6572C261.199 18.6665 260.997 18.6772 260.794 18.6799C260.74 18.6812 260.683 18.6558 260.625 18.6425C260.459 18.6011 260.298 18.5676 260.071 18.5904C259.938 18.6037 259.798 18.6064 259.662 18.6131C259.306 18.6318 259.306 18.6318 258.723 18.5516C258.665 18.5436 258.595 18.5342 258.537 18.5382C258.058 18.5623 257.582 18.589 257.103 18.6117C257.045 18.6144 256.975 18.6064 256.917 18.5997C256.264 18.5222 256.264 18.5222 255.569 18.5596C255.305 18.573 255.297 18.5783 255.02 18.5075C254.896 18.4768 254.792 18.4621 254.648 18.4714C254.102 18.5035 253.552 18.5249 253.011 18.5623C252.767 18.5783 252.626 18.5382 252.461 18.5022C252.403 18.4901 252.341 18.4634 252.291 18.4648C251.746 18.4902 251.2 18.5209 250.655 18.5463C250.605 18.5489 250.543 18.5222 250.485 18.5102C250.373 18.4861 250.266 18.4501 250.142 18.442C250.014 18.434 249.873 18.4541 249.733 18.4608C249.39 18.4781 249.39 18.4768 248.993 18.398C248.939 18.3873 248.869 18.3726 248.815 18.3752C248.269 18.402 247.72 18.4247 247.178 18.4634C246.868 18.4848 246.657 18.446 246.438 18.3899C246.393 18.3779 246.314 18.3726 246.256 18.3752C245.641 18.406 245.029 18.4407 244.413 18.4714C244.285 18.4781 244.161 18.4554 244.057 18.4207C243.892 18.3659 243.698 18.3726 243.491 18.3846C243.016 18.4126 243.012 18.4113 242.731 18.3472C242.673 18.3338 242.623 18.3164 242.561 18.3098C242.503 18.3031 242.429 18.3071 242.367 18.3098C242.094 18.3231 241.821 18.3378 241.548 18.3525C241.276 18.3672 240.999 18.3752 240.73 18.398C240.399 18.426 240.242 18.3391 240.011 18.2991C239.672 18.3164 239.324 18.3271 238.99 18.3552C238.733 18.3766 238.614 18.3178 238.444 18.287C238.386 18.2763 238.324 18.2536 238.27 18.2563C237.655 18.2857 237.039 18.3178 236.427 18.3538C236.278 18.3619 236.179 18.3512 236.055 18.3191C235.778 18.247 235.766 18.2496 235.303 18.2764C235.1 18.2884 234.906 18.2991 234.732 18.2443C234.579 18.1948 234.393 18.1828 234.174 18.1988C233.905 18.2189 233.628 18.2296 233.356 18.2429C233.083 18.2576 232.81 18.2777 232.537 18.2844C232.318 18.291 232.186 18.2283 232.012 18.1962C231.959 18.1868 231.884 18.1855 231.822 18.1882C231.549 18.2002 231.268 18.2095 231.004 18.2322C230.681 18.2603 230.504 18.1868 230.276 18.1441C230.227 18.1347 230.144 18.1401 230.082 18.1441C229.602 18.1681 229.127 18.1948 228.647 18.2202C228.478 18.1841 228.304 18.1494 228.135 18.1133C227.862 18.1267 227.589 18.1414 227.316 18.1548C227.11 18.1654 226.899 18.1695 226.705 18.1895C226.453 18.2162 226.329 18.1534 226.159 18.1227C226.101 18.112 226.039 18.0893 225.986 18.092C225.642 18.1067 225.299 18.1227 224.96 18.1454C224.638 18.1681 224.51 18.0479 224.245 18.0492C223.972 18.0505 223.691 18.0679 223.427 18.092C223.121 18.12 222.906 18.0773 222.687 18.0198C222.641 18.0078 222.563 18.0011 222.505 18.0038C222.162 18.0198 221.823 18.0398 221.48 18.0559C221.422 18.0585 221.352 18.0519 221.294 18.0439C220.641 17.965 220.641 17.9637 220.356 17.9797C220.153 17.9904 219.946 18.0038 219.74 18.0105C219.682 18.0131 219.612 18.0011 219.558 17.9904C219.128 17.9089 219.128 17.9076 218.818 17.9236C218.545 17.9383 218.272 17.953 217.999 17.9677C217.83 17.9316 217.656 17.8969 217.487 17.8608C217.148 17.8782 216.801 17.8915 216.466 17.9156C216.309 17.9263 216.206 17.9223 216.086 17.8889C215.937 17.8488 215.788 17.802 215.54 17.8247C215.275 17.8488 214.994 17.8514 214.726 17.8715C214.403 17.8955 214.271 17.7739 214.011 17.7753C213.738 17.7766 213.457 17.794 213.192 17.818C212.886 17.8461 212.671 17.8033 212.452 17.7459C212.407 17.7339 212.328 17.7272 212.27 17.7298C211.518 17.7686 210.77 17.8073 210.018 17.8488C209.555 17.8741 209.555 17.8755 208.674 17.802C208.612 17.7966 208.546 17.7913 208.484 17.794C208.211 17.806 207.93 17.8154 207.666 17.8381C207.343 17.8661 207.165 17.794 206.938 17.7499C206.888 17.7405 206.81 17.7459 206.744 17.7485C206.537 17.7579 206.335 17.7699 206.128 17.7806C205.855 17.7953 205.582 17.81 205.309 17.8247C205.14 17.79 204.966 17.7539 204.797 17.7191C204.458 17.7365 204.111 17.7459 203.776 17.7739C203.52 17.7953 203.4 17.7392 203.23 17.7071C203.172 17.6964 203.11 17.6737 203.057 17.6751C202.441 17.7045 201.825 17.7352 201.213 17.7726C200.961 17.7886 200.845 17.7285 200.676 17.6978C200.618 17.6884 200.552 17.6711 200.498 17.6737C200.089 17.6924 199.68 17.7151 199.27 17.7379C199.039 17.7512 199.039 17.7512 198.535 17.6684C198.477 17.659 198.411 17.6497 198.353 17.6523C197.055 17.7191 195.761 17.79 194.463 17.8568C194.331 17.8635 194.211 17.8434 194.108 17.8073C194 17.7713 193.88 17.7526 193.748 17.7592C193.202 17.7873 192.653 17.8127 192.111 17.8474C191.888 17.8621 191.71 17.8447 191.557 17.798C191.441 17.7632 191.334 17.7499 191.189 17.7579C190.916 17.7739 190.644 17.7873 190.371 17.802C190.098 17.8167 189.825 17.8314 189.552 17.8461C189.28 17.8608 189.003 17.8688 188.734 17.8915C188.403 17.9196 188.242 17.8367 188.015 17.7953C187.606 17.8154 187.196 17.8354 186.791 17.8568C186.245 17.8848 185.7 17.9156 185.154 17.9423C185.105 17.945 185.043 17.9209 184.985 17.9089C184.815 17.8755 184.691 17.8287 184.439 17.8434C183.216 17.9142 181.984 17.9744 180.756 18.0439C180.5 18.0586 180.388 18.0011 180.215 17.9704C180.157 17.961 180.091 17.9423 180.037 17.945C179.355 17.9784 178.673 18.0158 177.991 18.0519C177.714 18.0666 177.714 18.0666 177.251 17.9837C177.197 17.9744 177.127 17.9623 177.069 17.965C176.18 18.0104 175.296 18.0585 174.407 18.1053C174.275 18.112 174.155 18.0933 174.047 18.0572C173.944 18.0211 173.82 18.0011 173.692 18.0078C172.873 18.0505 172.051 18.092 171.237 18.1387C171.018 18.1521 170.836 18.1401 170.679 18.092C170.567 18.0572 170.455 18.0425 170.315 18.0505C169.087 18.116 167.859 18.1788 166.632 18.2483C166.396 18.2617 166.231 18.2363 166.082 18.1922C165.962 18.1574 165.859 18.1507 165.71 18.1561C165.553 18.1628 165.458 18.1775 165.371 18.2176C165.26 18.2697 165.189 18.3351 164.925 18.3392C164.652 18.3432 164.375 18.3592 164.106 18.3819C163.85 18.4046 163.73 18.3445 163.569 18.3084C163.449 18.283 163.337 18.279 163.184 18.2911C163.044 18.3017 162.957 18.3244 162.874 18.3672C162.693 18.4581 162.676 18.4581 162.453 18.4006C162.333 18.3699 162.225 18.3458 162.093 18.3512C161.548 18.3779 161.002 18.4073 160.456 18.438C160.142 18.4554 160.138 18.4581 159.902 18.3913C159.787 18.3579 159.675 18.3418 159.539 18.3498C158.038 18.43 156.538 18.5075 155.037 18.5917C154.806 18.6051 154.649 18.577 154.483 18.5369C154.43 18.5235 154.376 18.5048 154.314 18.4995C154.252 18.4941 154.182 18.4995 154.115 18.5022C153.024 18.5596 151.929 18.6144 150.842 18.6786C150.594 18.6933 150.461 18.6505 150.292 18.6158C150.234 18.6037 150.184 18.585 150.122 18.5797C150.06 18.5757 149.986 18.585 149.92 18.589C148.829 18.6465 147.733 18.7013 146.646 18.7654C146.386 18.7801 146.274 18.724 146.105 18.6946C146.047 18.6839 145.985 18.6638 145.931 18.6665C145.588 18.6812 145.249 18.7013 144.906 18.7186C144.087 18.7627 143.269 18.8042 142.45 18.8496C142.136 18.867 142 18.748 141.735 18.7534C141.392 18.7601 141.053 18.7868 140.71 18.8055C140.437 18.8202 140.165 18.8336 139.892 18.8496C139.623 18.8643 139.623 18.8643 138.954 18.7868C138.896 18.7801 138.825 18.7707 138.768 18.7734C137.813 18.8229 136.854 18.8723 135.903 18.9257C135.684 18.9378 135.502 18.9311 135.345 18.8817C135.233 18.8469 135.118 18.8295 134.981 18.8376C133.547 18.9137 132.117 18.9899 130.682 19.0647C130.629 19.0674 130.558 19.054 130.505 19.0433C130.389 19.0193 130.277 18.9912 130.166 18.9658C130.083 18.9966 129.975 19.0246 129.922 19.0594C129.847 19.1061 129.748 19.1195 129.591 19.1275C129.434 19.1355 129.335 19.1329 129.211 19.0981C129.062 19.0554 128.909 19.0219 128.665 19.0353C127.165 19.1195 125.664 19.1957 124.164 19.2785C123.916 19.2919 123.8 19.2331 123.626 19.2023C123.568 19.193 123.502 19.1783 123.449 19.181C122.833 19.2117 122.221 19.2451 121.605 19.2772C119.898 19.368 118.191 19.4549 116.488 19.5511C116.178 19.5685 115.967 19.5351 115.748 19.4776C115.702 19.4656 115.624 19.4589 115.566 19.4616C113.177 19.5872 110.788 19.7141 108.402 19.841C108.274 19.8477 108.15 19.8263 108.047 19.7916C107.939 19.7555 107.82 19.7382 107.687 19.7448C106.596 19.8023 105.505 19.8598 104.414 19.9186C104.141 19.9333 104.137 19.9346 103.856 19.8704C103.798 19.8571 103.736 19.8317 103.69 19.8344C103.595 19.8411 103.504 19.8744 103.438 19.9199C103.372 19.968 103.269 19.9813 103.116 19.9907C102.959 20.0001 102.855 19.9961 102.735 19.964C102.582 19.9239 102.442 19.8851 102.194 19.8985C99.0565 20.0695 95.9191 20.2339 92.7817 20.4036C92.5296 20.4169 92.4138 20.3608 92.2402 20.3301C92.1823 20.3207 92.1245 20.3074 92.0625 20.3047C91.9964 20.302 91.9261 20.3101 91.86 20.3141C86.7426 20.5853 81.6253 20.8579 76.508 21.1292C76.2021 21.1452 76.2062 21.1452 75.8714 21.2681C75.8301 21.2828 75.7763 21.3029 75.7184 21.3055C74.1518 21.391 72.5811 21.4739 71.0103 21.5567C70.3283 21.5928 69.6463 21.6302 68.9642 21.665C68.7204 21.677 68.7204 21.677 68.1375 21.8213C68.0879 21.8333 68.03 21.8494 67.9721 21.852C65.244 21.9977 62.5158 22.1433 59.7835 22.2863C59.5686 22.297 59.395 22.3211 59.2958 22.3852C59.2255 22.4306 59.1346 22.4573 58.9982 22.4654C57.0885 22.5669 55.1789 22.6698 53.265 22.7687C53.0377 22.7807 52.9012 22.8181 52.7896 22.8742C52.7524 22.893 52.7193 22.9143 52.6656 22.9277C52.616 22.9397 52.5416 22.9437 52.4796 22.9477C50.8427 23.0346 49.2059 23.1241 47.5648 23.207C47.321 23.219 47.2217 23.2684 47.1018 23.3205C47.0605 23.3379 47.0315 23.362 46.9778 23.374C46.9241 23.3847 46.8455 23.3847 46.7794 23.3873C45.4153 23.4595 44.0513 23.533 42.6872 23.6051C42.4227 23.5985 42.3648 23.676 42.2366 23.7227C42.1912 23.7388 42.1582 23.7601 42.1044 23.7708C42.0466 23.7815 41.9721 23.7802 41.9018 23.7829C40.8105 23.8403 39.7193 23.9018 38.6239 23.9552C38.3718 23.9673 38.3221 24.0354 38.1857 24.0822C38.1403 24.0969 38.0948 24.1196 38.0411 24.1236C37.3591 24.1623 36.6771 24.1984 35.995 24.2332C35.7677 24.2452 35.7677 24.2439 35.3667 24.3761C35.3212 24.3908 35.2675 24.4069 35.2096 24.4109C34.1886 24.467 33.1635 24.5204 32.1384 24.5752C32.0061 24.5819 31.9152 24.614 31.8491 24.6594C31.7829 24.7048 31.6879 24.7342 31.5556 24.7409C30.7371 24.785 29.9186 24.8304 29.1002 24.8705C28.8728 24.8812 28.7241 24.9146 28.6249 24.9748C28.5505 25.0202 28.4595 25.0429 28.3148 25.0509C27.4964 25.0937 26.678 25.1405 25.8554 25.1779C25.6157 25.1886 25.4916 25.234 25.3924 25.2901C25.3139 25.3355 25.2229 25.3516 25.07 25.3596C23.5695 25.4371 22.0649 25.5146 20.5686 25.6001C20.3164 25.6148 20.1883 25.568 20.0229 25.5346C19.7873 25.4879 19.5683 25.4371 19.5683 25.3329C19.5683 25.3168 19.498 25.2981 19.4484 25.2848C19.0805 25.1845 19.0805 25.1845 19.0226 25.0776C18.9896 25.0122 18.9524 24.9454 18.9234 24.8786C18.8697 24.769 18.7374 24.7409 18.3571 24.761C18.2207 24.7676 18.0843 24.777 17.9479 24.7823C17.7453 24.7917 17.5924 24.7476 17.5552 24.6674C17.5345 24.6233 17.5098 24.5792 17.4891 24.5351C17.6958 24.5245 17.6916 24.5231 18.0553 24.3614C18.2083 24.2933 18.2083 24.2933 17.9149 24.2251C17.8033 24.1998 17.6958 24.1717 17.5759 24.1476C17.5221 24.1369 17.4519 24.1303 17.394 24.1329C17.0509 24.149 16.712 24.1677 16.3731 24.1864C15.8274 24.2158 15.8274 24.2158 15.2735 24.0795C15.228 24.0688 15.1577 24.0488 15.166 24.0381C15.2115 23.9886 15.323 23.9672 15.4636 23.9619C15.6703 23.9539 15.8728 23.9405 16.0753 23.9298C16.2118 23.9232 16.3482 23.9151 16.4846 23.9085C16.6127 23.8577 16.745 23.8083 16.8649 23.7561C17.0551 23.676 17.055 23.6733 16.7946 23.6172C16.6292 23.5798 16.4515 23.5463 16.282 23.5116C16.0795 23.5223 15.8728 23.5343 15.6703 23.5437C15.414 23.5557 15.3106 23.5303 15.2445 23.4435C15.1866 23.3673 15.2569 23.3018 15.4553 23.2858C15.6579 23.2698 15.8481 23.2591 15.9514 23.1909C16.0506 23.1255 16.2242 23.1001 16.4392 23.0947C16.5756 23.0907 16.712 23.0814 16.8484 23.0733C17.0261 23.0626 17.1212 22.9945 17.084 22.9183C17.0633 22.8689 17.022 22.8275 16.8608 22.8168C16.1457 22.77 16.1374 22.7713 15.7819 22.6805C15.7488 22.6725 15.7241 22.6484 15.7365 22.6364C15.7571 22.6164 15.8026 22.587 15.8522 22.5829C16.3276 22.5535 16.8029 22.5268 17.2783 22.5068C17.4354 22.5001 17.5511 22.4907 17.6048 22.4413C17.6792 22.3732 17.6462 22.3104 17.5015 22.2636C17.456 22.2489 17.3816 22.2302 17.332 22.2315C16.7863 22.2556 16.2449 22.2863 15.6992 22.3104C15.6496 22.313 15.5587 22.2903 15.5381 22.273C15.4967 22.2409 15.5587 22.1981 15.7034 22.1834C15.8935 22.1634 16.0878 22.162 16.2159 22.0952C16.3937 22.0004 16.6127 21.9135 16.8111 21.8227C16.8442 21.8066 16.898 21.7759 16.8856 21.7732C16.7823 21.7438 16.6624 21.7211 16.5549 21.693C16.373 21.6463 16.373 21.5808 16.4143 21.518C16.4474 21.4672 16.5714 21.4472 16.7243 21.4472C16.7905 21.4472 16.8731 21.4472 16.9269 21.4351C17.0674 21.4058 17.1129 21.3683 17.0426 21.3403C17.0013 21.3242 16.9269 21.3015 16.8773 21.3042C15.9928 21.3483 15.104 21.391 14.2235 21.4458C13.9631 21.4619 13.8433 21.4111 13.6862 21.375C13.5664 21.3469 13.4547 21.3363 13.3059 21.3563C13.1653 21.375 13.029 21.3643 12.9422 21.3202C12.8719 21.2842 12.9959 21.2534 13.3307 21.2187C13.3927 21.212 13.463 21.208 13.5084 21.1946C13.9879 21.0503 13.9879 21.049 14.3186 21.0303C14.641 21.0129 14.6411 21.0116 14.8106 20.9341C14.8891 20.898 14.9758 20.8619 15.0502 20.8245C15.0792 20.8098 15.1288 20.7831 15.1123 20.7751C15.0214 20.7336 14.8973 20.7243 14.7526 20.7336C14.4302 20.7564 14.05 20.7376 13.8805 20.8646C13.8144 20.9127 13.711 20.9261 13.5622 20.9341C12.0659 21.0116 10.5695 21.0944 9.06899 21.1692C8.82511 21.1813 8.71357 21.2307 8.6185 21.2855C8.53583 21.3309 8.44487 21.3443 8.2878 21.3523C8.13072 21.3603 8.00665 21.3643 7.91572 21.3202C7.86198 21.2935 7.90746 21.2561 8.03147 21.2187C8.20921 21.1652 8.17613 21.0984 8.11826 21.0356C8.07692 20.9942 7.94878 20.9648 7.81238 20.9675C7.60983 20.9728 7.41561 20.9875 7.24613 20.9341C7.14693 20.9033 7.0229 20.8819 6.91129 20.8552C6.69635 20.8004 6.48139 20.7443 6.17964 20.7804C5.97297 20.767 5.82829 20.7189 5.66295 20.6815C5.386 20.6201 5.3612 20.6107 5.55961 20.5452C5.78282 20.4717 5.60918 20.3755 5.73319 20.3034C5.86546 20.2259 6.0474 20.1577 6.20861 20.0856C6.24994 20.0669 6.28716 20.0495 6.3285 20.0308C6.23342 20.0041 6.14663 19.9707 6.03503 19.952C5.89035 19.9279 5.81595 19.8985 5.82421 19.8157C5.79528 19.8036 5.80759 19.8344 5.84066 19.8424C5.87787 19.8504 5.96887 19.8437 6.01434 19.8344C6.13008 19.809 6.18789 19.7756 6.15895 19.7475C6.14242 19.7328 6.06394 19.7141 6.01434 19.7141C5.9234 19.7141 5.84488 19.7435 5.82008 19.8157C5.35712 19.8705 4.87755 19.8972 4.39806 19.9186C4.34845 19.9212 4.28649 19.8945 4.22862 19.8811C4.03847 19.8357 4.03845 19.837 3.48042 19.8237C3.42255 19.8223 3.34405 19.8036 3.31512 19.7849C3.19525 19.7034 3.19941 19.6139 3.14154 19.527C3.24901 19.4709 3.3564 19.4161 3.46801 19.3614C3.69122 19.2504 3.98063 19.1529 4.15424 19.0313C4.11704 18.9658 4.06743 18.9004 4.24931 18.8469C4.766 18.7801 4.7619 18.7801 4.90244 18.716C5.30339 18.5342 5.70019 18.3512 6.11768 18.1721C6.22929 18.1254 6.2293 18.1 6.03089 18.0799C5.96889 18.0746 5.90266 18.0733 5.83653 18.0759C5.62985 18.0853 5.42317 18.1093 5.22063 18.104C5.01809 18.1 4.86928 18.0412 4.70394 18.0051C4.53446 17.9677 4.36499 17.9289 4.19552 17.8902C4.00124 17.8942 3.807 17.9316 3.61272 17.8715C3.46391 17.8247 3.27792 17.7913 3.10844 17.7526C3.23658 17.651 3.47636 17.5735 3.66237 17.484C3.83185 17.4025 3.83589 17.4038 4.29058 17.341C4.50553 17.3116 4.57993 17.1606 4.39806 17.1165C4.17898 17.0631 3.94755 17.0136 3.72434 16.9629C3.53006 16.9669 3.33169 17.003 3.14568 16.9428C3.001 16.8974 2.83563 16.8667 2.59588 16.884C2.1908 16.9134 1.77745 16.9281 1.36823 16.9522C1.22769 16.9602 1.0747 16.9548 1.0127 16.9094C0.971365 16.8773 1.09125 16.8333 1.22765 16.8239C1.43433 16.8105 1.62032 16.7945 1.72366 16.7277C1.82286 16.6609 2.00472 16.6408 2.21967 16.6315C2.27754 16.6288 2.34372 16.6128 2.37266 16.5967C2.52146 16.5192 2.68682 16.4524 3.0051 16.4551C3.13738 16.4284 3.2076 16.395 3.16627 16.3629C3.14146 16.3455 3.0547 16.3228 3.0051 16.3255C2.66202 16.3389 2.31894 16.3522 1.98413 16.3763C1.82705 16.387 1.70711 16.3896 1.60791 16.3495C1.53764 16.3228 1.57484 16.2867 1.70711 16.248C1.82285 16.2146 1.85595 16.1758 1.84769 16.1304C1.82702 16.0248 1.70299 15.9941 1.30617 16.0008C1.02095 16.0061 0.950677 15.9888 0.888674 15.8979C0.872139 15.8765 0.830877 15.8471 0.859811 15.8324C1.03755 15.7416 1.1533 15.6293 1.48812 15.5866C1.62039 15.5705 1.76088 15.5705 1.84355 15.5358C1.92622 15.5011 2.00066 15.461 2.08746 15.4276C2.19494 15.3875 2.26927 15.3501 2.21967 15.3247C2.13699 15.2792 2.00477 15.2752 1.85182 15.2913C1.71955 15.3046 1.57901 15.306 1.44261 15.314C1.19873 15.3287 1.00036 15.2939 0.971426 15.2351C0.892888 15.0801 0.810193 14.9265 0.739922 14.7715C0.731655 14.7528 0.752266 14.7287 0.785335 14.7127C0.901074 14.6566 1.02513 14.6031 1.145 14.5483C1.28554 14.4855 1.50879 14.4976 1.69894 14.4855C1.96762 14.4682 1.96752 14.4695 2.32714 14.3412C2.46768 14.2904 2.71157 14.3105 2.85625 14.2651C2.90172 14.2504 2.97199 14.2263 2.95959 14.2129C2.94305 14.1956 2.86043 14.1822 2.79842 14.1742C2.74055 14.1662 2.6703 14.1622 2.6083 14.1662C1.85599 14.2049 1.10784 14.2464 0.35553 14.2838C0.22739 14.2904 0.086845 14.2611 0.0413759 14.2196C-0.00409319 14.1809 0.00826711 14.1341 0 14.09C0.119873 14.0352 0.256228 13.9845 0.359567 13.9257C0.438104 13.8802 0.529059 13.8602 0.686134 13.8575C0.892811 13.8535 1.09538 13.8375 1.32685 13.8254C1.75674 13.6304 2.17834 13.4259 2.6413 13.2308C2.82731 13.152 2.78191 13.0718 2.81911 12.9876C2.85631 12.9101 3.13325 12.9222 3.31926 12.8995C3.46806 12.8808 3.5176 12.838 3.45973 12.8086C3.42666 12.7912 3.3523 12.7712 3.29443 12.7712C3.15802 12.7712 3.02162 12.7832 2.88521 12.7899C2.74881 12.7966 2.59174 12.7926 2.48013 12.8153C2.37266 12.8367 2.30235 12.8821 2.23208 12.9208C2.15354 12.9636 2.05027 12.9783 1.8932 12.981C1.69066 12.9836 1.48812 12.9957 1.28558 13.005C1.06237 12.9529 0.83084 12.9021 0.615895 12.8473C0.57456 12.8367 0.566248 12.8059 0.570382 12.7859C0.578649 12.7338 0.516662 12.7017 0.380255 12.6763C0.264515 12.6549 0.169435 12.6242 0.0619629 12.5975C0.144634 12.5614 0.235604 12.5266 0.301741 12.4879C0.446416 12.4064 0.628312 12.3476 0.942462 12.3503C1.06647 12.2982 1.16565 12.234 1.32685 12.198C1.4798 12.1632 1.74022 12.1979 1.85596 12.1191C1.91383 12.0804 2.00068 12.0363 2.11229 12.0202C2.29003 11.9948 2.52151 12.0082 2.62485 11.9334C2.68685 11.8906 2.77775 11.8519 2.89763 11.8412C3.03403 11.8292 3.17454 11.8265 3.27374 11.8011C3.32748 11.7877 3.38536 11.7664 3.38536 11.7477C3.38536 11.7356 3.30275 11.7169 3.24488 11.7089C3.19114 11.6995 3.12079 11.6929 3.05879 11.6955C2.85211 11.7036 2.64957 11.7182 2.44289 11.7263C2.38502 11.7289 2.31891 11.7196 2.2569 11.7116C2.07503 11.6902 2.0874 11.6635 2.23208 11.6154C2.37675 11.5686 2.48015 11.5085 2.60002 11.4537C2.7323 11.4443 2.89761 11.4483 2.98855 11.4229C3.14149 11.3815 3.24894 11.3214 3.37294 11.2693C3.50935 11.2613 3.64988 11.2586 3.77802 11.2439C3.83176 11.2386 3.85658 11.2092 3.90205 11.1918C3.98472 11.1584 4.05505 11.1103 4.16665 11.0942C4.34853 11.0702 4.57174 11.0795 4.67921 11.006C4.74121 10.9633 4.83625 10.9179 4.95199 10.9152C5.27441 10.9099 5.41082 10.8363 5.57616 10.7669C5.70017 10.7148 5.96472 10.7415 6.10113 10.6894C6.19207 10.656 6.25824 10.6145 6.34918 10.5825C6.38639 10.5691 6.46489 10.5624 6.5269 10.5584C6.86585 10.5384 7.20892 10.5237 7.54787 10.5023C7.60161 10.4983 7.65125 10.4783 7.69259 10.4622C7.77939 10.4275 7.83307 10.3794 7.94054 10.3567C8.04801 10.3339 8.20093 10.3339 8.33321 10.3273C8.75896 10.3072 8.79206 10.3126 8.98634 10.199C9.14342 10.1068 9.52789 10.1723 9.65603 10.0707C9.73043 10.0119 9.86678 9.96381 10.1107 9.95713C10.4537 9.94778 10.7927 9.92239 11.1358 9.90502C11.4417 9.88898 11.4375 9.88897 11.7682 9.76471C11.917 9.70859 12.1361 9.71661 12.3304 9.70592C12.5371 9.69523 12.7272 9.6792 12.8264 9.61239C12.9256 9.54692 13.1075 9.52553 13.3183 9.51618C13.5126 9.50682 13.7317 9.51351 13.8846 9.46007C14.2567 9.33179 14.2525 9.33044 14.513 9.31708C14.9222 9.2957 15.3314 9.27432 15.7406 9.25161C16.0134 9.23691 16.2986 9.23424 16.5549 9.20485C16.7409 9.18347 16.8236 9.10864 16.9434 9.05653C17.2824 9.03648 17.6213 9.01643 17.9603 8.99773C18.4356 8.971 18.9151 8.94696 19.3946 8.92157C19.6013 8.87079 19.6303 8.75855 19.9775 8.75321C20.1842 8.75053 20.3867 8.73317 20.5934 8.72248C20.9365 8.70377 21.2754 8.67972 21.6185 8.67036C21.8789 8.66368 21.9243 8.59152 22.0607 8.54609C22.1062 8.53005 22.1476 8.50735 22.2013 8.50334C22.7387 8.46592 23.2925 8.45791 23.8175 8.40312C23.8712 8.39778 23.9208 8.36971 23.9332 8.34967C23.9415 8.33898 23.8712 8.31895 23.8258 8.30959C23.772 8.2989 23.7018 8.28821 23.6439 8.29088C21.9367 8.38041 20.2296 8.47128 18.5225 8.5608C18.2827 8.57416 18.2827 8.57282 17.6999 8.7198C17.6503 8.73183 17.5924 8.74519 17.5304 8.74919C17.2576 8.76523 16.9806 8.77459 16.7119 8.79464C16.4929 8.81067 16.311 8.79462 16.154 8.74652C16.0424 8.71178 15.9266 8.7011 15.786 8.70377C15.6289 8.70778 15.5257 8.72248 15.4347 8.75856C15.3149 8.808 15.2528 8.87213 15.0007 8.88549C13.8392 8.94295 12.6776 9.00708 11.5202 9.06855C11.359 9.04984 11.2804 9.02179 11.3218 8.98838C11.3466 8.96834 11.3962 8.94161 11.4458 8.93894C11.9211 8.91088 12.4006 8.88683 12.876 8.86011C12.9421 8.8561 13.033 8.85876 13.0702 8.8454C13.2521 8.78527 13.3183 8.68773 13.6614 8.68105C13.8598 8.67704 14.0623 8.657 14.2525 8.63829C14.3062 8.63295 14.3558 8.60489 14.3682 8.58484C14.3724 8.57415 14.3062 8.5541 14.2566 8.54475C14.0747 8.506 13.864 8.55278 13.6821 8.52606C13.6201 8.5167 13.5332 8.50334 13.5208 8.4873C13.5126 8.4726 13.5828 8.44855 13.6325 8.43385C13.6779 8.42049 13.7399 8.40847 13.8019 8.40446C14.3475 8.37373 14.8932 8.34165 15.4389 8.3176C15.6621 8.30825 15.8191 8.27484 15.9183 8.21337C15.9927 8.16794 16.0837 8.1439 16.2242 8.13722C17.179 8.08778 18.1339 8.03299 19.0929 7.98756C19.3326 7.97687 19.4567 7.93278 19.5559 7.87533C19.6344 7.8299 19.7254 7.81386 19.8783 7.80584C21.2465 7.73636 22.6064 7.65886 23.9746 7.59205C24.2268 7.58003 24.3012 7.52257 24.4293 7.47313C24.4748 7.45576 24.5037 7.43438 24.5615 7.42369C24.6194 7.413 24.6938 7.41432 24.7641 7.41165C25.8553 7.35419 26.9467 7.29274 28.0421 7.23929C28.2983 7.22726 28.3479 7.16045 28.4801 7.11368C28.5256 7.09898 28.567 7.07494 28.6207 7.07093C29.4392 7.0255 30.2576 6.98274 31.076 6.93864C31.6217 6.90925 32.1673 6.87985 32.7129 6.85179C32.9816 6.83843 32.9816 6.83708 33.3453 6.71014C33.3867 6.69544 33.4446 6.67807 33.4983 6.67406C35.0691 6.58854 36.6357 6.50705 38.2064 6.42287C38.3387 6.41619 38.4337 6.38544 38.4999 6.34001C38.566 6.29458 38.6612 6.26385 38.7893 6.25717C40.017 6.19036 41.2446 6.12489 42.4764 6.06208C42.6996 6.0514 42.8567 6.01932 42.9559 5.95919C43.0303 5.91376 43.1212 5.88972 43.2617 5.88304C44.4894 5.8189 45.7171 5.75074 46.9489 5.68928C47.1845 5.67725 47.3002 5.63183 47.416 5.57838C47.4573 5.55967 47.4904 5.52894 47.54 5.52626C48.1518 5.48885 48.7594 5.4501 49.3753 5.42471C49.6316 5.41402 49.7184 5.3579 49.8217 5.30445C49.9044 5.26169 49.9995 5.247 50.1566 5.24165C50.4997 5.22963 50.8386 5.20692 51.1734 5.1842C51.223 5.1802 51.285 5.1508 51.2892 5.13209C51.2974 5.09735 51.2023 5.07329 51.0453 5.06127C49.4084 5.14812 47.7674 5.23497 46.1305 5.32182C45.8618 5.33652 45.8618 5.33653 45.4981 5.46347C45.4567 5.47817 45.3988 5.49554 45.3409 5.49955C43.7702 5.58373 42.2036 5.66657 40.6329 5.75075C40.5006 5.75744 40.4055 5.78817 40.3394 5.8336C40.2733 5.87903 40.1781 5.90976 40.05 5.91644C38.5495 5.99662 37.049 6.07813 35.5444 6.15429C35.3212 6.16498 35.1642 6.1957 35.065 6.25717C34.9906 6.3026 34.8996 6.32666 34.7591 6.33334C33.3247 6.40817 31.8945 6.48699 30.456 6.55915C30.3113 6.56583 30.2039 6.52708 30.2122 6.491C30.2163 6.4723 30.2782 6.44158 30.3278 6.4389C31.076 6.39481 31.8201 6.34937 32.5724 6.31597C32.8246 6.30528 32.8989 6.24648 33.0271 6.19704C33.0684 6.17967 33.1015 6.15696 33.1552 6.1476C33.2131 6.13691 33.2875 6.13826 33.3578 6.13558C35.1311 6.04071 36.9044 5.94451 38.6818 5.85498C38.9381 5.84162 38.9876 5.77614 39.1199 5.72937C39.1654 5.71334 39.2067 5.68929 39.2605 5.68662C39.8061 5.65455 40.3517 5.62649 40.8974 5.59843C41.8522 5.54765 42.807 5.49687 43.766 5.4461C44.043 5.4314 44.043 5.43139 44.3985 5.30579C44.4398 5.29109 44.4977 5.2724 44.5515 5.26972C47.0771 5.13477 49.6027 4.99981 52.1283 4.86619C52.2606 4.85951 52.3556 4.82877 52.4218 4.78334C52.4879 4.73925 52.5829 4.70718 52.7111 4.69916C56.1254 4.51744 59.5356 4.3357 62.9499 4.15665C63.1731 4.14463 63.3302 4.11656 63.4294 4.05376C63.4996 4.00833 63.5947 3.98429 63.7352 3.97627C67.4885 3.77717 71.2418 3.57808 74.9992 3.37765C77.5248 3.24403 80.0504 3.10774 82.576 2.97679C82.8075 2.96476 82.9315 2.92333 83.0472 2.86855C83.0844 2.84984 83.1216 2.81911 83.1712 2.81643C83.7127 2.78303 84.2542 2.7523 84.7957 2.72157C84.9652 2.75765 85.1346 2.79239 85.3041 2.82847C85.4322 2.7777 85.5563 2.72558 85.6845 2.6748C86.5029 2.63605 87.3089 2.57592 88.1356 2.55722C88.1894 2.55588 88.2472 2.58127 88.3051 2.59464C88.6895 2.67882 88.9086 2.67213 89.1525 2.55989C89.2393 2.51981 89.3137 2.48373 89.4459 2.47705C89.8551 2.453 90.2686 2.43696 90.6737 2.4089C90.8928 2.3942 91.0746 2.40756 91.2316 2.45566C91.3433 2.49041 91.459 2.50511 91.5955 2.49709C92.3478 2.45701 93.0959 2.41825 93.8482 2.3755C93.902 2.37282 93.9515 2.3501 93.9928 2.33407C94.0796 2.29932 94.1541 2.26192 94.2368 2.22584C94.3484 2.24856 94.4724 2.26593 94.5633 2.29533C94.6791 2.33007 94.7865 2.33006 94.9436 2.32071C97.9445 2.15903 100.95 2.00135 103.951 1.83834C104.207 1.82498 104.319 1.8811 104.492 1.9105C104.55 1.92119 104.608 1.93454 104.67 1.93722C104.736 1.93989 104.806 1.93188 104.872 1.92787C107.125 1.80761 109.378 1.68868 111.631 1.56842C111.928 1.55239 111.928 1.55239 112.371 1.63523C112.424 1.64592 112.495 1.65795 112.553 1.65394C113.578 1.60183 114.603 1.54571 115.624 1.49226C115.756 1.48558 115.868 1.50696 115.988 1.53769C116.223 1.59782 116.24 1.59783 116.413 1.50964C116.496 1.46821 116.583 1.44281 116.719 1.43079C116.868 1.41743 116.988 1.42145 117.104 1.4455C117.269 1.47891 117.389 1.53502 117.641 1.52032C118.732 1.45752 119.828 1.40541 120.915 1.34127C121.163 1.32657 121.295 1.372 121.46 1.40541C121.518 1.41743 121.572 1.43614 121.634 1.44015C121.696 1.44416 121.77 1.4348 121.836 1.43079C123.201 1.35863 124.569 1.28783 125.929 1.21033C126.185 1.19563 126.297 1.25307 126.47 1.28247C126.528 1.29316 126.594 1.31188 126.648 1.30921C127.466 1.26778 128.289 1.22368 129.107 1.17958C129.401 1.16355 129.401 1.16488 129.847 1.24639C129.901 1.25708 129.971 1.26777 130.029 1.2651C130.984 1.21566 131.943 1.16488 132.898 1.11411C133.191 1.09807 133.191 1.09808 134.039 1.16756C134.101 1.1729 134.167 1.18093 134.229 1.17826C135.32 1.1208 136.416 1.06467 137.507 1.00321C137.726 0.991183 137.908 1.00187 138.065 1.04997C138.176 1.08471 138.292 1.09942 138.429 1.0914C139.656 1.02593 140.888 0.963129 142.112 0.893647C142.347 0.880285 142.5 0.909669 142.665 0.948419C142.719 0.961782 142.773 0.980492 142.835 0.985837C142.897 0.991182 142.967 0.985833 143.033 0.981825C144.261 0.91635 145.493 0.854888 146.716 0.784069C146.964 0.76937 147.097 0.814799 147.262 0.848204C147.32 0.86023 147.382 0.884283 147.431 0.882947C147.911 0.860231 148.39 0.840195 148.866 0.80679C149.122 0.788083 149.234 0.849538 149.407 0.878934C149.465 0.888288 149.531 0.90834 149.585 0.905668C150.61 0.853556 151.635 0.798775 152.656 0.742655C152.801 0.734637 152.908 0.746652 153.024 0.781394C153.177 0.828161 153.355 0.846868 153.578 0.83217C154.053 0.801437 154.533 0.780064 155.012 0.754676C155.293 0.739978 155.293 0.739982 156.153 0.809465C156.215 0.81481 156.281 0.822821 156.343 0.820149C157.162 0.77739 157.984 0.73597 158.799 0.689203C159.018 0.675841 159.2 0.687864 159.357 0.735967C159.468 0.770709 159.58 0.785415 159.72 0.777397C160.473 0.737311 161.221 0.697222 161.973 0.657136C162.246 0.642437 162.519 0.617043 162.792 0.617043C162.99 0.618379 163.135 0.682514 163.313 0.714583C163.362 0.723937 163.445 0.713259 163.511 0.710587C164.466 0.659811 165.425 0.613039 166.376 0.555582C166.624 0.540884 166.756 0.586313 166.921 0.619718C166.979 0.631744 167.041 0.655797 167.091 0.654461C167.434 0.639762 167.773 0.619717 168.116 0.602346C168.525 0.580967 168.938 0.564933 169.343 0.535536C169.674 0.511484 169.798 0.627731 170.063 0.631739C170.265 0.635748 170.472 0.613036 170.674 0.602346C171.084 0.580967 171.493 0.556918 171.902 0.538211C172.047 0.53153 172.158 0.510142 172.204 0.462038C172.212 0.452685 172.142 0.43265 172.096 0.420624C171.547 0.284331 171.547 0.284325 170.993 0.313721C170.65 0.332428 170.311 0.351138 169.968 0.367173C169.91 0.369845 169.844 0.359156 169.786 0.351139C169.62 0.328423 169.637 0.301702 169.777 0.253598C169.918 0.205495 170.025 0.146707 170.145 0.0919227C170.315 0.126664 170.48 0.161393 170.65 0.196134C170.786 0.189453 170.922 0.181448 171.059 0.174767C171.741 0.140026 172.423 0.103945 173.105 0.0718763C173.155 0.0692039 173.217 0.095932 173.274 0.109294C173.44 0.148044 173.589 0.18144 173.828 0.166742C174.44 0.127992 175.056 0.0999315 175.668 0.0665263C175.936 0.051828 175.936 0.0518293 176.408 0.134674C176.461 0.144028 176.532 0.154718 176.59 0.152045C177.205 0.121313 177.817 0.0879115 178.433 0.0558425C178.565 0.0491615 178.694 0.0665315 178.789 0.105282C178.826 0.121316 178.818 0.148035 178.975 0.367173C179.462 0.544888 179.797 0.526191 180.136 0.510156C180.281 0.503475 180.409 0.496787 180.504 0.470063C180.554 0.455365 180.616 0.433982 180.616 0.416612C180.616 0.40325 180.525 0.381866 180.467 0.379194C180.058 0.35247 179.669 0.408598 179.268 0.420624C179.082 0.425969 178.921 0.379201 178.888 0.303037C178.88 0.281658 178.867 0.258944 178.855 0.237565C178.842 0.216185 178.834 0.193471 178.822 0.172092C178.661 0.165411 178.565 0.189459 178.495 0.23489C178.437 0.272303 178.355 0.315062 178.243 0.335105C178.131 0.356484 177.978 0.352483 177.842 0.359164C177.71 0.365845 177.565 0.383214 177.441 0.37386C177.317 0.363171 177.218 0.324414 177.102 0.300362C177.048 0.288337 176.982 0.270972 176.929 0.273645C176.453 0.29636 175.982 0.319067 175.511 0.348464C175.263 0.364498 175.139 0.308386 174.982 0.273645C174.858 0.246921 174.734 0.253593 174.713 0.315059C174.659 0.462042 174.849 0.523504 175.271 0.495443C175.618 0.471392 175.932 0.467395 176.205 0.558258C176.242 0.570283 176.329 0.575626 176.383 0.572954C176.722 0.556919 177.057 0.536874 177.396 0.52084C177.458 0.518167 177.524 0.523504 177.582 0.528849C178.425 0.601004 178.425 0.602347 178.71 0.586313C178.847 0.578295 178.979 0.571614 178.966 0.36851C179.227 0.150709 179.64 0.136013 180.041 0.103944C180.302 0.0839009 180.413 0.142697 180.583 0.173429C180.64 0.184119 180.702 0.205494 180.756 0.202822C181.645 0.158727 182.529 0.111953 183.414 0.0625138C183.563 0.0544965 183.67 0.0625151 183.786 0.0972564C183.935 0.141351 184.1 0.169417 184.336 0.153383C184.807 0.121314 185.287 0.101276 185.766 0.0745514C186.01 0.0611893 186.01 0.0611756 186.502 0.14402C186.556 0.153374 186.626 0.164064 186.684 0.161392C187.163 0.138676 187.639 0.110624 188.114 0.0865727C188.246 0.0798916 188.366 0.0985966 188.469 0.134674C188.573 0.170752 188.697 0.189457 188.825 0.182776C189.304 0.158724 189.78 0.132008 190.255 0.107957C190.313 0.105284 190.383 0.114637 190.437 0.12399C190.941 0.206835 190.941 0.206821 191.173 0.193459C191.512 0.173416 191.859 0.164073 192.194 0.137349C192.52 0.110625 192.69 0.188118 192.913 0.230877C193.525 0.200144 194.141 0.174763 194.748 0.137349C194.996 0.121315 195.129 0.165406 195.294 0.200147C195.352 0.212173 195.41 0.237563 195.463 0.236227C195.67 0.230882 195.873 0.216187 196.075 0.205497C196.278 0.194807 196.484 0.184119 196.687 0.173429C196.918 0.212179 197.071 0.30304 197.402 0.272307C197.6 0.2536 197.811 0.249592 198.014 0.238902C198.216 0.228213 198.423 0.217524 198.626 0.206835C198.762 0.200153 198.902 0.196139 199.035 0.184113C199.279 0.16407 199.399 0.229552 199.572 0.258949C199.63 0.268302 199.696 0.284326 199.75 0.281654C200.159 0.262947 200.572 0.246914 200.973 0.216181C201.283 0.192129 201.494 0.23222 201.713 0.288341C201.759 0.300367 201.837 0.307047 201.895 0.304375C202.375 0.281659 202.85 0.253591 203.325 0.22954C203.453 0.222859 203.578 0.244237 203.681 0.278979C203.788 0.315056 203.908 0.33244 204.04 0.325759C204.516 0.301707 204.995 0.274975 205.471 0.250923C205.529 0.248251 205.599 0.258943 205.653 0.269632C206.116 0.352477 206.116 0.353815 206.388 0.33778C206.454 0.333772 206.525 0.331089 206.591 0.32708C206.93 0.308373 207.281 0.301701 207.612 0.269632C207.992 0.233555 208.269 0.278988 208.538 0.355151C208.877 0.339117 209.224 0.329762 209.555 0.303037C209.803 0.282994 209.935 0.333768 210.1 0.367173C210.158 0.379199 210.22 0.40325 210.27 0.400578C210.749 0.377862 211.229 0.357827 211.7 0.324421C211.956 0.305714 212.068 0.365833 212.241 0.396565C212.299 0.407255 212.361 0.425972 212.415 0.423299C212.688 0.41261 212.961 0.396567 213.234 0.381869C213.552 0.364498 213.552 0.365833 213.973 0.447342C214.172 0.486092 214.37 0.455358 214.565 0.446004C214.771 0.435315 214.965 0.4273 215.131 0.482085C215.234 0.516826 215.358 0.538206 215.486 0.532861C215.759 0.520835 216.036 0.508815 216.305 0.488772C216.52 0.472738 216.706 0.483421 216.863 0.532861C216.974 0.567602 217.09 0.584984 217.227 0.576966C217.838 0.544897 218.454 0.51148 219.066 0.480747C219.12 0.478075 219.194 0.490105 219.244 0.502131C219.359 0.526183 219.471 0.552901 219.583 0.579625C219.851 0.567599 220.128 0.562268 220.393 0.543561C220.674 0.524854 220.93 0.518171 221.149 0.591663C221.195 0.607697 221.261 0.6304 221.315 0.629064C221.521 0.623719 221.724 0.610361 221.926 0.599671C222.129 0.588982 222.336 0.578293 222.538 0.567604C222.774 0.601009 222.923 0.697215 223.253 0.666482C223.452 0.647775 223.662 0.643766 223.865 0.633077C224.068 0.622387 224.274 0.610362 224.477 0.601009C224.543 0.598337 224.617 0.591652 224.675 0.596996C224.737 0.602341 224.791 0.621052 224.845 0.634414C225.01 0.673164 225.163 0.711919 225.399 0.689203C225.597 0.670496 225.808 0.666486 226.01 0.654461C226.287 0.639762 226.287 0.639765 226.746 0.723946C226.932 0.758687 227.143 0.713258 227.321 0.742655C227.441 0.762698 227.544 0.796096 227.66 0.818811C227.709 0.828165 227.788 0.832168 227.846 0.829495C228.118 0.817469 228.395 0.805449 228.664 0.785406C228.883 0.769372 229.065 0.785404 229.218 0.833508C229.33 0.868249 229.441 0.882955 229.582 0.874938C230.264 0.837524 230.946 0.805445 231.624 0.764022C231.855 0.749324 232.041 0.772045 232.169 0.820149C232.388 0.902994 232.698 0.805453 232.926 0.872263C233.066 0.913685 233.207 0.961791 233.463 0.941748C233.934 0.907007 234.414 0.88829 234.889 0.864238C235.059 0.900315 235.228 0.936401 235.402 0.972478C235.675 0.95778 235.947 0.943073 236.22 0.929711C236.423 0.919021 236.629 0.906996 236.832 0.897643C236.898 0.894971 236.968 0.889624 237.03 0.896305C237.092 0.902986 237.142 0.920361 237.2 0.933723C237.485 0.999197 237.485 1.00054 237.956 0.973816C238.159 0.96179 238.353 0.953773 238.523 1.00722C238.68 1.05666 238.866 1.06601 239.081 1.05131C239.486 1.02459 239.895 1.00454 240.308 0.985837C240.436 0.979156 240.556 1.00187 240.664 1.03661C240.825 1.0914 241.023 1.08605 241.226 1.07136C241.495 1.05265 241.759 1.03395 241.986 1.10877C242.032 1.12481 242.102 1.14751 242.152 1.14618C242.491 1.13549 242.834 1.12747 243.165 1.10209C243.495 1.0767 243.656 1.15954 243.884 1.19963C244.223 1.18226 244.566 1.16488 244.905 1.14751C244.971 1.1435 245.049 1.13149 245.107 1.13817C245.351 1.16623 245.492 1.26644 245.827 1.23571C246.021 1.21834 246.232 1.213 246.434 1.20899C246.488 1.20765 246.558 1.23036 246.595 1.24773C246.616 1.25708 246.595 1.28247 246.571 1.29583C246.496 1.33324 246.405 1.368 246.339 1.40675C246.331 1.41209 246.409 1.43613 246.455 1.44682C246.566 1.47087 246.695 1.46687 246.843 1.45618C246.972 1.44683 247.104 1.46554 247.195 1.50562C247.232 1.52166 247.22 1.54838 247.141 1.63657C247.141 1.70204 247.228 1.67264 247.257 1.62988C247.302 1.56842 247.215 1.54837 247.05 1.58178C246.934 1.60583 246.877 1.64058 246.905 1.66864C246.922 1.68334 247 1.70204 247.141 1.63657C247.505 1.5564 247.778 1.54171 248.05 1.52701C248.121 1.523 248.203 1.50963 248.253 1.51764C248.431 1.54971 248.596 1.58847 248.77 1.62455C248.968 1.61653 249.154 1.59648 249.348 1.64859C249.621 1.72208 249.634 1.7154 249.898 1.7007C250.035 1.69269 250.171 1.68602 250.307 1.67934C250.444 1.67266 250.551 1.69269 250.671 1.72343C250.915 1.78623 250.936 1.78622 251.097 1.7007C251.192 1.64859 251.258 1.63123 251.378 1.65528C251.775 1.73679 251.779 1.74213 252.118 1.71808C252.399 1.69803 252.663 1.69269 252.87 1.76885C253.011 1.8223 253.056 1.81028 253.168 1.75416C253.465 1.60584 253.602 1.6085 254.16 1.7154C254.42 1.76618 254.689 1.7114 254.953 1.70472C255.177 1.69937 255.334 1.73144 255.35 1.81562C255.363 1.86773 255.4 1.90515 255.549 1.92252C255.607 1.9292 255.677 1.93855 255.735 1.93588C256.078 1.91984 256.417 1.90113 256.76 1.88243C256.933 1.87307 257.029 1.81028 256.995 1.72744C256.958 1.63925 257.024 1.60717 257.272 1.58178C257.421 1.56708 257.541 1.56977 257.661 1.59382C257.793 1.62054 257.756 1.64459 257.64 1.6927C257.363 1.81028 257.396 1.88242 257.752 1.96393C257.876 1.99199 257.975 2.01739 258.004 2.05882C258.021 2.08019 258.004 2.10825 258.041 2.12429C258.244 2.21381 258.525 2.27128 258.839 2.31404C259.141 2.27796 259.347 2.33808 259.579 2.38618C259.761 2.42359 259.976 2.39153 260.17 2.37817C260.389 2.36347 260.571 2.37416 260.728 2.4236C260.84 2.45834 260.955 2.47437 261.092 2.46769C261.365 2.45299 261.642 2.44364 261.91 2.42226C262.142 2.40355 262.315 2.43028 262.46 2.47571C262.642 2.53317 262.844 2.49441 263.035 2.50243C263.291 2.51178 263.419 2.6307 263.754 2.59863C263.952 2.57992 264.159 2.57325 264.366 2.5679C264.419 2.56657 264.485 2.58928 264.531 2.60532C264.75 2.67881 265.006 2.6748 265.287 2.65342C265.482 2.63872 265.672 2.62537 265.862 2.67614C266.176 2.76166 266.523 2.83649 266.854 2.91533C266.899 2.97679 266.866 3.04893 267.102 3.08501C267.226 3.10372 267.342 3.13179 267.437 3.16252C267.553 3.1986 267.66 3.20796 267.809 3.1986C268.077 3.1799 268.359 3.17587 268.623 3.15182C268.867 3.13044 269.02 3.17455 269.169 3.21597C269.289 3.24938 269.4 3.26541 269.545 3.24135C269.694 3.21864 269.801 3.23333 269.921 3.26941C270.091 3.31885 270.103 3.31351 270.665 3.32821C270.723 3.32955 270.793 3.34958 270.826 3.36695C270.843 3.3763 270.806 3.40304 270.777 3.41641C270.74 3.43244 270.682 3.45114 270.628 3.45514C270.016 3.48989 269.4 3.52062 268.788 3.55536C268.726 3.55937 268.66 3.56873 268.615 3.58209C268.565 3.59679 268.503 3.61682 268.503 3.63553C268.503 3.64889 268.586 3.66493 268.644 3.67428C268.826 3.70502 269.041 3.65825 269.218 3.69299C269.338 3.71571 269.437 3.74777 269.557 3.76915C269.607 3.7785 269.685 3.77717 269.747 3.7745C269.954 3.76515 270.157 3.75179 270.363 3.74377C270.421 3.74243 270.487 3.7558 270.541 3.76649C270.938 3.84666 270.938 3.84666 271.281 3.82929C271.417 3.82261 271.562 3.80256 271.69 3.81058C271.814 3.8186 271.922 3.85467 272.033 3.87739C272.265 3.92549 272.484 3.97226 272.5 4.07648C272.509 4.11657 272.645 4.15131 272.781 4.15398C272.914 4.15665 273.054 4.14197 273.191 4.13395C273.513 4.11791 273.513 4.11791 273.931 4.19942C274.046 4.22214 274.17 4.2248 274.319 4.21144C274.377 4.2061 274.447 4.21145 274.509 4.21813C274.712 4.23817 274.712 4.26355 274.58 4.31166C274.394 4.38248 274.41 4.38916 274.931 4.44929C275.129 4.47201 275.282 4.51477 275.448 4.55218C275.716 4.61231 275.712 4.6123 275.534 4.69114C275.493 4.70851 275.456 4.72722 275.415 4.74592C275.295 4.79804 275.2 4.85415 274.952 4.8595C274.679 4.86484 274.406 4.88623 274.133 4.90093C273.869 4.91563 273.798 4.94768 273.823 5.03855C273.852 5.14811 273.906 5.16014 274.381 5.15881C274.518 5.15881 274.637 5.16949 274.741 5.20557C274.691 5.24833 274.6 5.28174 274.468 5.28975C274.129 5.3098 273.786 5.32717 273.447 5.34454C273.174 5.35924 272.901 5.37393 272.629 5.38863C272.459 5.39798 272.352 5.46747 272.397 5.54497C272.422 5.58907 272.442 5.63316 272.463 5.67726C272.509 5.76545 272.595 5.78817 272.872 5.78416C272.943 5.78282 273.009 5.77212 273.075 5.7748C273.344 5.78415 273.472 5.89505 273.794 5.87234C274.063 5.85363 274.344 5.84963 274.609 5.82557C274.852 5.80419 274.989 5.85231 275.158 5.88839C275.216 5.90041 275.278 5.92579 275.328 5.92445C275.671 5.90975 276.014 5.89507 276.349 5.86968C276.506 5.85899 276.601 5.867 276.725 5.89907C277.022 5.97657 277.031 5.97256 277.473 5.94851C277.795 5.9298 277.8 5.93247 278.213 6.01398C278.329 6.0367 278.453 6.03669 278.602 6.026C278.796 6.01264 278.998 5.99127 279.201 6.01131C279.263 6.01665 279.341 6.03269 279.362 6.05006C279.375 6.06209 279.317 6.09149 279.267 6.10084C278.903 6.17032 278.478 6.1583 278.081 6.18636C277.957 6.19438 277.833 6.16899 277.729 6.13291C277.622 6.09683 277.506 6.08214 277.366 6.08882C277.093 6.10352 276.816 6.11287 276.547 6.13425C276.316 6.15295 276.154 6.12222 275.993 6.08079C275.939 6.06743 275.878 6.04204 275.824 6.04338C275.212 6.0701 274.596 6.09683 273.989 6.13425C273.745 6.15028 273.604 6.10753 273.439 6.07145C273.381 6.05942 273.323 6.03403 273.269 6.03537C273.063 6.04071 272.86 6.05541 272.653 6.0661C271.901 6.10618 271.153 6.14627 270.401 6.18368C270.351 6.18636 270.289 6.15829 270.231 6.14627C270.119 6.12221 270.004 6.0995 269.888 6.07678C269.681 6.08747 269.479 6.10083 269.272 6.10885C269.123 6.11419 268.991 6.13291 268.97 6.18368C268.958 6.21709 269.094 6.24782 269.239 6.24514C269.38 6.24247 269.52 6.22644 269.636 6.24381C270.21 6.32932 270.21 6.33066 270.57 6.31329C270.884 6.29726 270.851 6.28389 271.128 6.35738C271.248 6.38945 271.355 6.40817 271.492 6.40015C271.831 6.38144 272.174 6.36273 272.517 6.3467C272.571 6.34403 272.641 6.35739 272.695 6.36808C273.1 6.44825 273.1 6.45092 273.435 6.43088C273.873 6.40683 273.889 6.40015 274.183 6.48166C274.385 6.53778 274.571 6.49902 274.766 6.49635C274.989 6.54846 275.233 6.59524 275.435 6.65403C275.675 6.72351 275.927 6.71148 276.2 6.69143C276.402 6.67673 276.601 6.67139 276.766 6.72618C276.923 6.77695 277.113 6.78231 277.328 6.76894C277.523 6.75692 277.721 6.73152 277.924 6.76092C277.977 6.76894 278.06 6.78899 278.056 6.80101C278.052 6.81972 277.998 6.84645 277.944 6.85446C277.564 6.90925 277.147 6.90791 276.746 6.93329C276.692 6.9373 276.622 6.9226 276.568 6.91191C276.452 6.88786 276.34 6.8598 276.229 6.83442C276.026 6.84243 275.82 6.8451 275.621 6.86113C275.468 6.87316 275.353 6.87184 275.241 6.83977C275.138 6.81037 275.026 6.77428 274.902 6.76493C274.778 6.75558 274.633 6.77562 274.497 6.78364C274.361 6.79166 274.203 6.78764 274.096 6.80902C273.989 6.8304 273.922 6.87717 273.852 6.91459C273.774 6.95601 273.666 6.96938 273.509 6.97339C273.364 6.9774 273.249 6.97205 273.141 6.93463C273.096 6.9186 273.034 6.90657 272.972 6.89588C272.914 6.88652 272.848 6.87182 272.794 6.87449C272.178 6.90523 271.566 6.93864 270.95 6.97071C270.644 6.98675 270.649 6.98673 270.012 6.9079C269.954 6.90122 269.884 6.89187 269.826 6.89454C269.483 6.91057 269.144 6.92928 268.801 6.94799C268.454 6.9667 268.458 6.96402 267.867 6.87984C267.759 6.86381 267.602 6.88519 267.474 6.88252C267.205 6.87584 267.073 6.7636 266.759 6.78498C266.49 6.80368 266.209 6.80769 265.94 6.83174C265.697 6.85312 265.556 6.80636 265.391 6.77028C265.333 6.75826 265.271 6.73153 265.221 6.7342C264.605 6.7636 263.994 6.797 263.175 6.80101C262.973 6.80101 263.063 6.82908 263.196 6.83843C263.386 6.85313 263.448 6.82507 263.345 6.77162C263.27 6.7342 263.163 6.71548 263.076 6.72484C263.03 6.73018 262.973 6.75558 263.175 6.80101C263.39 6.85179 263.378 6.87984 263.415 6.89588C263.506 6.93463 263.634 6.95066 263.766 6.94532C263.973 6.93596 264.175 6.9226 264.382 6.91459C264.44 6.91191 264.51 6.92127 264.564 6.93196C265.019 7.0148 265.023 7.02015 265.506 6.98808C265.659 6.97873 265.771 6.97873 265.891 7.00412C266.056 7.03886 266.176 7.09764 266.428 7.07894C266.763 7.05355 267.106 7.03886 267.449 7.02416C267.503 7.02149 267.561 7.04554 267.623 7.05623C267.792 7.0883 267.916 7.14843 268.168 7.12304C268.363 7.103 268.574 7.09764 268.78 7.09363C268.834 7.0923 268.917 7.11368 268.941 7.13105C268.991 7.16178 268.929 7.19787 268.788 7.22326C268.731 7.23395 268.652 7.23127 268.586 7.23528C268.313 7.24998 268.04 7.266 267.767 7.27803C267.623 7.28471 267.486 7.30476 267.47 7.3542C267.457 7.38761 267.606 7.417 267.747 7.41433C267.953 7.41032 268.16 7.39963 268.359 7.38226C268.71 7.35286 269.016 7.36087 269.301 7.44506C269.504 7.50385 269.491 7.48248 269.706 7.65619C269.76 7.70028 269.921 7.70429 270.062 7.70161C270.401 7.69493 270.558 7.71498 270.529 7.7564C270.491 7.80718 270.372 7.8232 270.219 7.82988C269.946 7.84057 269.673 7.85795 269.4 7.87265C269.334 7.87666 269.26 7.88467 269.198 7.882C269.136 7.87933 269.078 7.86329 269.024 7.85127C268.908 7.82588 268.809 7.78712 268.685 7.77777C268.561 7.76842 268.416 7.78846 268.28 7.79648C268.144 7.80316 267.999 7.8232 267.875 7.81385C267.751 7.8045 267.648 7.76442 267.536 7.74037C267.482 7.72834 267.416 7.70962 267.362 7.71096C267.09 7.72165 266.817 7.73903 266.544 7.75239C266.209 7.76976 266.209 7.76976 265.804 7.68692C265.688 7.66287 265.568 7.66421 265.416 7.6749C265.085 7.69627 265.081 7.69226 264.477 7.61476C264.419 7.60674 264.349 7.59739 264.291 7.6014C263.675 7.63213 263.063 7.66553 262.452 7.6976C261.927 7.72566 261.927 7.72567 261.637 7.85929C261.422 7.95817 261.418 7.95817 261.629 8.0036C261.799 8.04101 261.952 8.09579 262.138 8.11583C262.311 8.13454 262.526 8.07441 262.716 8.13588C262.811 8.16661 262.935 8.20002 263.055 8.20537C263.245 8.21205 263.448 8.17329 263.63 8.23208C263.721 8.26148 263.857 8.29222 263.973 8.29356C264.175 8.29623 264.382 8.27484 264.585 8.26549C264.647 8.26282 264.717 8.26282 264.775 8.2695C264.837 8.27752 264.891 8.29356 264.944 8.30692C265.11 8.35235 265.287 8.37372 265.502 8.35101C265.854 8.31359 266.168 8.3323 266.441 8.41782C266.478 8.42984 266.569 8.43119 266.627 8.42584C266.775 8.41248 266.904 8.41114 267.015 8.43653C267.061 8.44722 267.127 8.46591 267.119 8.47794C267.106 8.49798 267.056 8.52471 267.003 8.53139C266.614 8.57682 266.197 8.58218 265.796 8.60623C265.742 8.6089 265.676 8.59152 265.622 8.57949C265.506 8.55544 265.407 8.51537 265.283 8.50601C265.159 8.49666 265.015 8.51403 264.878 8.52071C264.742 8.52739 264.597 8.54743 264.473 8.53942C264.349 8.53006 264.233 8.49665 264.134 8.46726C264.018 8.43385 263.907 8.42985 263.754 8.44321C263.555 8.46058 263.349 8.46325 263.146 8.47261C263.035 8.44722 262.923 8.41915 262.807 8.3951C262.753 8.38307 262.687 8.36838 262.63 8.36972C262.357 8.38041 262.084 8.39643 261.811 8.41113C261.538 8.42583 261.538 8.42584 261.075 8.343C261.022 8.33365 260.951 8.32296 260.893 8.32563C260.55 8.34166 260.211 8.36169 259.868 8.37773C259.736 8.38441 259.616 8.3657 259.509 8.32962C259.405 8.29355 259.281 8.2735 259.153 8.28018C258.608 8.30824 258.062 8.33497 257.516 8.36838C257.297 8.38174 257.111 8.36972 256.962 8.32161C256.789 8.26683 256.594 8.2802 256.392 8.29088C255.933 8.31761 255.929 8.31626 255.635 8.24812C255.578 8.23475 255.52 8.20936 255.466 8.2107C254.991 8.23074 254.511 8.24945 254.04 8.28152C253.792 8.29889 253.66 8.25213 253.494 8.21739C253.436 8.20536 253.374 8.17997 253.325 8.18264C252.982 8.19734 252.639 8.21071 252.304 8.23743C251.969 8.26416 251.841 8.13989 251.589 8.14123C251.246 8.14257 250.907 8.1733 250.568 8.19201C250.295 8.20671 250.022 8.2214 249.749 8.2361C249.476 8.25079 249.204 8.26281 248.931 8.28018C248.786 8.28954 248.679 8.27751 248.559 8.2441C248.406 8.20001 248.224 8.16528 248.059 8.1252C247.807 8.06774 247.807 8.06773 247.501 8.08377C247.435 8.08777 247.364 8.09044 247.298 8.09445C246.798 8.12385 246.798 8.12118 246.161 8.037C246.132 8.03299 246.058 8.0477 246.029 8.05839C245.942 8.09313 245.864 8.13053 245.785 8.16661C245.674 8.14523 245.537 8.13321 245.463 8.10248C245.252 8.01562 244.921 8.13454 244.706 8.04902C244.628 8.01695 244.491 7.98889 244.367 7.98088C244.239 7.97286 244.095 7.99157 243.962 7.99958C243.619 8.01963 243.619 8.0183 243.326 8.13722C243.177 8.19601 242.962 8.18532 242.768 8.19868C242.565 8.21338 242.371 8.22139 242.201 8.16661C242.048 8.11717 241.863 8.10515 241.643 8.12118C241.375 8.14123 241.098 8.15325 240.825 8.16527C240.767 8.16795 240.697 8.16127 240.639 8.15325C240.006 8.07442 240.006 8.07308 239.701 8.09045C239.564 8.09847 239.424 8.10113 239.291 8.11316C239.068 8.13454 238.899 8.10648 238.738 8.06372C238.684 8.05036 238.622 8.02498 238.568 8.02632C238.295 8.033 238.027 8.04502 237.758 8.05705C237.551 8.0664 237.345 8.07175 237.146 8.09045C236.815 8.12119 236.654 8.03432 236.427 7.99423C236.088 8.01161 235.745 8.02363 235.406 8.04769C235.249 8.05838 235.146 8.05437 235.026 8.02231C234.873 7.98222 234.732 7.93679 234.484 7.95683C234.153 7.98356 233.806 7.99291 233.467 8.00895C233.24 7.96752 233.075 7.88333 232.748 7.91407C232.55 7.93277 232.339 7.93678 232.136 7.94747C231.863 7.96217 231.591 7.97554 231.318 7.99158C231.024 8.00761 231.028 8.0036 230.578 7.92477C230.318 7.878 230.049 7.93011 229.784 7.93812C229.578 7.94481 229.474 8.00627 229.524 8.0851C229.573 8.16394 229.462 8.22541 229.272 8.2361C228.796 8.26148 228.317 8.2882 227.841 8.31091C227.784 8.31359 227.713 8.30423 227.66 8.29488C227.151 8.2107 227.151 8.21205 226.924 8.22407C226.585 8.24412 226.238 8.2548 225.903 8.28018C225.671 8.29756 225.502 8.26951 225.353 8.22407C225.237 8.18933 225.13 8.18131 224.981 8.18933C223.344 8.27886 221.707 8.3617 220.075 8.4539C219.831 8.46726 219.69 8.42852 219.525 8.39244C219.467 8.38041 219.413 8.35502 219.355 8.35502C219.219 8.35502 219.082 8.36705 218.946 8.37507C218.334 8.40714 217.723 8.44588 217.107 8.46993C216.846 8.48062 216.776 8.54209 216.664 8.59287C216.578 8.63162 216.478 8.64765 216.325 8.65299C216.177 8.65834 216.069 8.65165 215.953 8.61691C215.805 8.57148 215.635 8.54342 215.404 8.56212C215.135 8.5835 214.862 8.59287 214.585 8.60756C214.445 8.61425 214.337 8.63829 214.292 8.6864C214.283 8.69441 214.37 8.71446 214.42 8.72649C214.585 8.76658 214.742 8.81334 214.928 8.8414C215.118 8.86946 215.325 8.83738 215.523 8.82936C215.594 8.82669 215.66 8.81868 215.726 8.82002C215.788 8.82135 215.862 8.82804 215.908 8.84006C216.123 8.90019 216.35 8.94161 216.648 8.90554C216.904 8.92291 217.036 9.03381 217.363 9.00441C217.561 8.98704 217.768 8.97903 217.975 8.97235C218.028 8.97101 218.086 8.99506 218.144 9.00709C218.31 9.04049 218.442 9.09394 218.69 9.07122C218.954 9.04717 219.235 9.04317 219.504 9.02446C219.653 9.01377 219.76 9.02312 219.876 9.05787C220.025 9.10196 220.194 9.13536 220.426 9.11398C220.624 9.09527 220.835 9.09126 221.038 9.07923C221.302 9.06453 221.302 9.06587 221.773 9.14872C221.827 9.15807 221.897 9.16876 221.955 9.16609C222.298 9.15006 222.637 9.13001 222.98 9.11398C223.113 9.10729 223.241 9.12466 223.332 9.16341C223.369 9.17945 223.357 9.20619 223.369 9.2289C222.687 9.26498 222.005 9.29571 221.327 9.3398C221.071 9.35717 220.955 9.30239 220.785 9.27166C220.728 9.26097 220.666 9.23825 220.612 9.24093C220.132 9.26364 219.657 9.28769 219.182 9.31708C219.033 9.32644 218.921 9.32109 218.81 9.28234C218.524 9.17945 218.177 9.23557 217.855 9.25027C217.607 9.26096 217.528 9.30239 217.557 9.39058C217.594 9.4948 217.743 9.52687 218.123 9.50817C218.26 9.50149 218.396 9.49213 218.533 9.48678C218.665 9.48144 218.785 9.49881 218.892 9.53488C218.996 9.57096 219.12 9.58967 219.248 9.58432C219.521 9.5723 219.798 9.56028 220.062 9.54023C220.281 9.5242 220.463 9.53756 220.616 9.587C220.785 9.64178 220.984 9.62975 221.182 9.61773C221.645 9.591 221.649 9.59235 221.939 9.65916C221.997 9.67252 222.055 9.69791 222.108 9.69658C222.584 9.67653 223.063 9.65916 223.53 9.62709C223.774 9.61106 223.915 9.65381 224.076 9.68855C224.134 9.70058 224.192 9.7273 224.245 9.72463C224.588 9.70993 224.931 9.69523 225.266 9.66984C225.423 9.65782 225.518 9.66583 225.647 9.6979C225.952 9.77673 225.961 9.77406 226.395 9.74867C226.527 9.74066 226.672 9.72596 226.796 9.73665C226.92 9.74734 227.019 9.7861 227.135 9.81015C227.188 9.82084 227.254 9.83553 227.312 9.83286C227.585 9.82217 227.858 9.80614 228.131 9.79144C228.387 9.77674 228.387 9.77808 228.867 9.86093C229.061 9.89567 229.263 9.86627 229.458 9.85558C229.669 9.84355 229.859 9.84356 230.02 9.89567C230.181 9.94778 230.375 9.9451 230.582 9.93441C230.776 9.92372 230.975 9.89433 231.173 9.93041C231.628 10.0133 231.628 10.0146 231.909 9.99854C232.318 9.97583 232.723 9.95445 233.137 9.93441C233.19 9.93174 233.261 9.94778 233.314 9.95847C233.43 9.98252 233.529 10.0226 233.653 10.0319C233.777 10.0426 233.922 10.0266 234.054 10.0186C234.48 9.9932 234.509 9.98385 234.794 10.072C235.034 10.1442 235.332 10.04 235.555 10.1228C235.683 10.1696 235.856 10.207 236.096 10.1843C236.295 10.1656 236.501 10.1602 236.708 10.1495C237.034 10.1322 237.034 10.1335 237.448 10.2137C237.502 10.2244 237.572 10.2377 237.626 10.2351C237.898 10.2244 238.175 10.215 238.44 10.191C238.75 10.1629 238.948 10.2137 239.18 10.2631C239.362 10.3019 239.577 10.2698 239.771 10.2564C239.982 10.2431 240.172 10.2471 240.329 10.2992C240.494 10.3526 240.689 10.346 240.895 10.3353C241.09 10.3259 241.288 10.2952 241.486 10.3326C241.912 10.4154 241.912 10.4154 242.222 10.3994C242.495 10.3847 242.768 10.3687 243.041 10.358C243.094 10.3553 243.16 10.3727 243.214 10.3847C243.33 10.4088 243.429 10.4489 243.553 10.4582C243.677 10.4676 243.822 10.4502 243.958 10.4435C244.095 10.4368 244.239 10.4168 244.363 10.4248C244.487 10.4328 244.603 10.4662 244.702 10.4956C244.818 10.5304 244.925 10.5344 245.083 10.521C245.281 10.5036 245.488 10.4996 245.69 10.4903C245.802 10.5157 245.917 10.541 246.025 10.5691C246.137 10.5985 246.256 10.5958 246.409 10.5865C246.918 10.5544 246.922 10.5584 247.348 10.6413C247.542 10.6787 247.745 10.6479 247.939 10.6386C248.146 10.6279 248.34 10.6226 248.501 10.676C248.658 10.7268 248.852 10.7335 249.059 10.7174C249.191 10.7067 249.332 10.7001 249.468 10.6961C249.53 10.6947 249.605 10.7001 249.65 10.7108C249.869 10.7669 250.084 10.8177 250.386 10.7816C250.65 10.7923 250.783 10.9018 251.101 10.8805C251.37 10.8617 251.651 10.8577 251.915 10.8337C252.159 10.8123 252.333 10.8497 252.457 10.8965C252.68 10.9793 252.994 10.8671 253.217 10.9486C253.346 10.9954 253.511 11.0328 253.759 11.0127C254.032 10.9914 254.118 11.0194 254.197 11.1036C254.242 11.1517 254.234 11.1905 254.152 11.2279C254.069 11.2666 253.978 11.2599 253.846 11.2158C253.693 11.1664 253.511 11.157 253.292 11.1677C253.077 11.1784 252.945 11.1089 252.767 11.0822C252.589 11.0542 252.378 11.1009 252.192 11.0649C251.754 10.9807 251.754 10.9807 251.457 10.9967C251.254 11.0074 251.043 11.0127 250.845 11.0314C250.609 11.0542 250.456 11.0127 250.295 10.9753C250.237 10.962 250.179 10.9366 250.13 10.9379C249.654 10.9579 249.175 10.9767 248.703 11.0101C248.455 11.0274 248.323 10.9793 248.158 10.9459C248.1 10.9339 248.038 10.9098 247.988 10.9125C247.579 10.9312 247.174 10.9553 246.765 10.978C246.686 11.0141 246.6 11.0488 246.525 11.0876C246.447 11.1276 246.339 11.145 246.182 11.1437C245.922 11.1437 245.665 11.1998 245.405 11.129C245.136 11.0568 245.116 11.0608 244.855 11.0782C244.525 11.1009 244.173 11.0956 243.863 11.1477C243.809 11.157 243.752 11.1824 243.752 11.2011C243.747 11.2132 243.834 11.2305 243.888 11.2412C244.07 11.2733 244.281 11.2265 244.462 11.2599C244.582 11.2813 244.682 11.3134 244.801 11.3361C244.851 11.3454 244.925 11.3441 244.992 11.3428C245.062 11.3414 245.128 11.3321 245.194 11.3334C245.256 11.3348 245.322 11.3428 245.372 11.3548C245.599 11.4056 245.839 11.4523 246.042 11.5125C246.24 11.5713 246.426 11.5312 246.624 11.5285C247.418 11.622 247.418 11.6234 247.951 11.594C248.084 11.5873 248.22 11.5793 248.356 11.5806C248.414 11.5806 248.468 11.6047 248.526 11.618C248.691 11.6581 248.848 11.6942 249.08 11.6728C249.278 11.6541 249.489 11.6501 249.691 11.6381C249.964 11.6234 249.964 11.6234 250.427 11.7076C250.543 11.7289 250.667 11.7263 250.816 11.7156C250.944 11.7062 251.076 11.7263 251.167 11.765C251.204 11.7811 251.192 11.8078 251.204 11.8305C250.795 11.8519 250.382 11.8666 249.985 11.8986C249.729 11.9187 249.613 11.8612 249.443 11.8305C249.386 11.8198 249.324 11.7971 249.27 11.7998C248.865 11.8198 248.46 11.8425 248.055 11.8692C248.005 11.8719 247.943 11.9026 247.939 11.9213C247.931 11.9561 248.034 11.9895 248.183 11.9882C248.381 11.9868 248.575 11.9641 248.753 12.0189C248.902 12.067 249.088 12.0884 249.307 12.067C249.439 12.055 249.58 12.055 249.712 12.0443C250.064 12.0122 250.382 12.0189 250.646 12.1098C250.849 12.1338 251.047 12.1111 251.242 12.0991C251.386 12.0897 251.527 12.0804 251.63 12.1057C251.849 12.1592 252.064 12.2126 252.366 12.1766C252.692 12.214 252.94 12.2928 253.213 12.357C253.341 12.3877 253.441 12.4051 253.589 12.385C253.651 12.377 253.726 12.377 253.792 12.373C253.928 12.3663 254.073 12.3463 254.197 12.3543C254.321 12.3636 254.424 12.4024 254.536 12.4264C254.59 12.4385 254.652 12.4585 254.705 12.4572C254.912 12.4505 255.115 12.4371 255.317 12.4264C255.52 12.4171 255.722 12.4077 255.925 12.3984C256.094 12.4331 256.268 12.4679 256.437 12.5026C256.71 12.4879 256.983 12.4732 257.252 12.4598C257.554 12.4438 257.553 12.4451 257.987 12.528C258.182 12.5654 258.388 12.5413 258.574 12.524C258.884 12.4959 259.091 12.5467 259.31 12.6002C259.356 12.6108 259.438 12.6175 259.492 12.6122C259.707 12.5935 259.893 12.6082 260.05 12.6576C260.162 12.6923 260.273 12.7084 260.41 12.7017C260.885 12.6763 261.36 12.6496 261.836 12.6269C261.894 12.6242 261.96 12.6362 262.014 12.6469C262.435 12.7284 262.439 12.7324 262.749 12.711C263.026 12.6923 263.283 12.6843 263.502 12.7578C263.547 12.7738 263.617 12.7966 263.667 12.7952C264.006 12.7819 264.349 12.7672 264.684 12.7445C264.837 12.7338 264.944 12.7378 265.064 12.7685C265.217 12.8073 265.354 12.854 265.606 12.8367C266.304 12.7872 266.308 12.7952 267.135 12.8874C267.193 12.8941 267.271 12.8834 267.338 12.8781C267.478 12.8647 267.581 12.8834 267.705 12.9142C267.982 12.9836 267.991 12.9796 268.255 12.9649C268.458 12.9529 268.669 12.9502 268.867 12.9302C269.173 12.9008 269.375 12.9529 269.603 13.0024C269.785 13.0411 269.995 13.009 270.19 12.997C270.401 12.9836 270.591 12.9876 270.748 13.0384C270.855 13.0732 270.971 13.0919 271.107 13.0852C271.583 13.0611 272.058 13.0344 272.533 13.0104C272.591 13.0077 272.662 13.0184 272.715 13.0277C273.187 13.1106 273.187 13.1146 273.654 13.0839C273.802 13.0745 273.926 13.0718 274.038 13.0999C274.146 13.1266 274.261 13.152 274.373 13.1774C274.575 13.168 274.782 13.1654 274.981 13.1493C275.133 13.1373 275.241 13.1427 275.361 13.1707C275.518 13.2068 275.65 13.2696 275.898 13.2388C276.026 13.2241 276.175 13.2282 276.303 13.2148C276.456 13.1974 276.56 13.2081 276.679 13.2429C276.828 13.2843 276.981 13.327 277.221 13.3057C277.485 13.2816 277.767 13.2776 278.035 13.2589C278.184 13.2482 278.287 13.2589 278.407 13.2936C278.556 13.3377 278.726 13.3658 278.957 13.3484C279.428 13.315 279.432 13.3217 279.891 13.4059C280.007 13.4273 280.131 13.4246 280.28 13.4139C280.408 13.4045 280.54 13.4246 280.631 13.4633C280.718 13.5061 280.71 13.5328 280.718 13.5555ZM243.884 1.50429C243.747 1.51097 243.611 1.51898 243.413 1.40273C243.4 1.38269 243.408 1.35864 243.38 1.34127C243.313 1.3052 243.21 1.27981 243.086 1.2758C242.863 1.27046 242.594 1.31588 242.598 1.35062C242.602 1.38002 242.673 1.4054 242.809 1.42945C242.867 1.4388 242.912 1.45484 242.966 1.46553C243.123 1.49626 243.247 1.5564 243.475 1.52567C243.454 1.48425 243.433 1.44283 243.475 1.52567C243.454 1.57645 243.516 1.61252 243.665 1.62722C243.706 1.63123 243.768 1.62855 243.801 1.62054C243.929 1.59114 243.95 1.55106 243.855 1.4455C243.838 1.46287 243.851 1.49359 243.888 1.50161C243.925 1.50963 244.016 1.50296 244.062 1.4936C244.177 1.46821 244.235 1.43481 244.206 1.40675C244.19 1.39205 244.111 1.37334 244.062 1.37334C243.975 1.37334 243.896 1.40273 243.884 1.50429ZM277.308 17.0003C277.006 17.0257 276.659 17.0163 276.357 17.0684C276.303 17.0778 276.25 17.1018 276.245 17.1205C276.241 17.1326 276.324 17.1499 276.374 17.1593C276.485 17.1807 276.609 17.174 276.754 17.1673C276.973 17.1579 277.101 17.2194 277.271 17.2501C277.324 17.2595 277.395 17.2662 277.452 17.2635C277.787 17.2475 278.118 17.2301 278.453 17.2114C278.511 17.2074 278.573 17.198 278.622 17.186C278.788 17.1473 278.771 17.1219 278.61 17.0925C278.432 17.0604 278.292 17.0069 278.11 16.9816C277.849 16.9455 277.585 16.9936 277.308 17.0003ZM253.833 17.9757C253.631 17.9864 253.432 17.9971 253.23 18.0078C253.164 18.0118 253.093 18.0131 253.031 18.0185C252.903 18.0278 252.808 18.0559 252.746 18.1C252.841 18.1347 252.957 18.1548 253.085 18.1507C253.288 18.1427 253.486 18.1254 253.689 18.1213C253.908 18.116 254.036 18.1761 254.205 18.2069C254.259 18.2162 254.325 18.2176 254.387 18.2189C254.693 18.2242 254.879 18.1548 254.821 18.0572C254.78 17.9811 254.623 17.9356 254.433 17.945C254.234 17.9543 254.032 17.965 253.833 17.9757ZM278.721 15.0254C278.771 15.0026 278.825 14.9866 278.85 14.9666C278.924 14.8984 278.895 14.8476 278.759 14.7942C278.593 14.7287 278.391 14.7728 278.205 14.7795C278.159 14.7808 278.11 14.8089 278.085 14.8263C278.068 14.8383 278.068 14.8637 278.093 14.8704C278.296 14.9238 278.511 14.9732 278.721 15.0254ZM242.863 11.0782C242.664 11.0889 242.462 11.0969 242.263 11.1116C242.214 11.1156 242.168 11.141 242.139 11.1584C242.086 11.1904 242.144 11.2345 242.313 11.2385C242.507 11.2439 242.71 11.2212 242.912 11.2105C243.169 11.1971 243.322 11.1477 243.227 11.1049C243.136 11.0635 243.012 11.0555 242.863 11.0782ZM25.2766 8.22274C25.4089 8.21606 25.5453 8.21071 25.6776 8.20135C25.8016 8.192 25.8967 8.1626 25.9587 8.11851C25.8554 8.08377 25.7396 8.06506 25.6115 8.06907C25.4089 8.07709 25.2105 8.08778 25.0121 8.10114C24.8881 8.10915 24.7683 8.13855 24.7394 8.18398C24.7104 8.21872 24.9873 8.23877 25.2766 8.22274ZM225.382 8.01696C225.436 8.02898 225.489 8.05304 225.543 8.05304C225.675 8.05304 225.812 8.04501 225.936 8.03165C225.99 8.02631 226.031 8.00226 226.056 7.98355C226.072 7.97152 226.068 7.95015 226.043 7.93946C225.924 7.87532 225.444 7.89804 225.365 7.97153C225.357 7.98489 225.378 8.00226 225.382 8.01696ZM212.341 0.699887C212.353 0.721266 212.357 0.742643 212.374 0.764022C212.407 0.804108 212.498 0.833511 212.63 0.853554C212.733 0.820149 212.787 0.782741 212.783 0.742655C212.779 0.721275 212.766 0.699882 212.75 0.678503C212.717 0.638417 212.626 0.609031 212.494 0.588988C212.39 0.621057 212.341 0.658465 212.341 0.699887ZM288.274 18.2082C288.237 18.2256 288.2 18.2429 288.158 18.259C288.27 18.2977 288.373 18.3098 288.452 18.2884C288.501 18.275 288.53 18.255 288.568 18.2376C288.456 18.1988 288.357 18.1882 288.274 18.2082ZM285.703 18.3899C285.757 18.402 285.806 18.418 285.864 18.426C285.959 18.4394 286.046 18.4166 286.112 18.3685C286.058 18.3565 286.009 18.3405 285.951 18.3325C285.856 18.3191 285.769 18.3418 285.703 18.3899ZM287.332 18.1454C287.303 18.1775 287.361 18.2042 287.513 18.2269C287.551 18.2095 287.6 18.1935 287.625 18.1748C287.666 18.1441 287.596 18.116 287.447 18.0946C287.406 18.1107 287.369 18.128 287.332 18.1454ZM278.606 16.705C278.577 16.737 278.635 16.7638 278.788 16.7865C278.825 16.7691 278.874 16.7531 278.899 16.7344C278.94 16.7036 278.87 16.6756 278.721 16.6542C278.68 16.6702 278.643 16.6876 278.606 16.705ZM266.718 7.24997C266.68 7.26735 266.643 7.28472 266.602 7.30075C266.713 7.3395 266.817 7.35152 266.895 7.33014C266.945 7.31678 266.974 7.29674 267.011 7.27937C266.899 7.24062 266.8 7.22993 266.718 7.24997ZM255.33 2.23385C255.429 2.2432 255.512 2.2245 255.582 2.17506C255.528 2.16304 255.478 2.147 255.421 2.13898C255.325 2.12562 255.239 2.14834 255.173 2.19645C255.226 2.20981 255.28 2.22182 255.33 2.23385ZM249.282 1.91984C249.245 1.93721 249.208 1.95459 249.167 1.97062C249.278 2.00937 249.381 2.02139 249.46 2.00001C249.51 1.98665 249.539 1.96661 249.576 1.94924C249.464 1.91049 249.365 1.90114 249.282 1.91984ZM208.273 0.698549C208.236 0.71592 208.199 0.733291 208.158 0.749326C208.269 0.788076 208.372 0.800098 208.451 0.778719C208.501 0.765357 208.53 0.745313 208.567 0.727942C208.455 0.689192 208.356 0.679843 208.273 0.698549ZM4.07977 11.5699C4.02603 11.5579 3.97234 11.5459 3.92274 11.5325C3.80287 11.5686 3.76568 11.602 3.83181 11.6274C3.87315 11.6434 3.9351 11.6528 3.98884 11.6648C4.11285 11.6287 4.14177 11.5966 4.07977 11.5699Z" fill="#FFE492"/>
</svg>
